<?xml version="1.0" encoding="UTF-8"?>
<svg xmlns="http://www.w3.org/2000/svg" id="Layer_2" data-name="Layer 2" viewBox="0 0 151.32 60.21">
  <defs>
    <style>
      .cls-1 {
        fill: #00a0b0;
      }

      .cls-2 {
        fill: none;
        stroke: #000;
        stroke-linecap: round;
        stroke-linejoin: round;
        stroke-width: 3px;
      }
    </style>
  </defs>
  <g id="Layer_1-2" data-name="Layer 1">
    <g>
      <path class="cls-1" d="M12.73,12.68c1.44,0,2.61-1.17,2.61-2.61s-1.17-2.61-2.61-2.61-2.61,1.17-2.61,2.61,1.17,2.61,2.61,2.61h0Z"></path>
      <path d="M23.02,41.29v-3.18h-6.38V18.38H6.48v3.18h6.36v19.73h10.19Zm14.21,0v-14.64h12.08v-3.18h-12.08V12.64h13.35v-3.18h-17.49v31.83h4.14Zm36.85-2.8c1.97-2.29,2.95-5.18,2.95-8.66s-.98-6.37-2.95-8.65c-1.97-2.28-4.58-3.42-7.85-3.42s-5.9,1.14-7.87,3.42c-1.97,2.28-2.95,5.17-2.95,8.65s.98,6.37,2.95,8.66c1.97,2.29,4.59,3.43,7.87,3.43s5.88-1.15,7.85-3.43h0Zm-12.72-2.12c-1.2-1.59-1.8-3.77-1.8-6.54s.6-4.94,1.8-6.52c1.2-1.59,2.83-2.38,4.87-2.38s3.65,.79,4.85,2.38c1.2,1.59,1.8,3.76,1.8,6.52s-.6,4.96-1.8,6.54c-1.2,1.59-2.82,2.38-4.85,2.38s-3.67-.79-4.87-2.38h0Zm39.93,.59c-2.17,.74-3.66,1.17-4.47,1.28-.81,.12-1.63,.17-2.46,.17-2.76,0-4.79-.94-6.08-2.81-1.29-1.87-1.94-3.84-1.94-5.91,0-1.54,.33-3.05,1.01-4.51,.67-1.46,1.62-2.54,2.85-3.23,1.23-.69,2.54-1.04,3.94-1.04,2.11,0,4.49,.61,7.16,1.83v-3.67c-2.64-.89-5.14-1.33-7.51-1.33-3.2,0-5.93,1.15-8.19,3.45-2.26,2.3-3.39,5.18-3.39,8.65,0,2.31,.5,4.37,1.5,6.18,1,1.81,2.39,3.25,4.17,4.31,1.78,1.06,3.82,1.59,6.12,1.59s4.74-.43,7.3-1.29v-3.67h0Zm20.96-18.58v13.35c-1.01,1.93-2.29,3.52-3.83,4.79-1.54,1.26-2.98,1.9-4.32,1.9-.66,0-1.27-.22-1.83-.68-.57-.45-.96-1.03-1.17-1.73-.21-.7-.32-2.16-.32-4.36v-13.27h-3.81v12.8c0,3.39,.22,5.67,.66,6.84,.44,1.17,1.21,2.11,2.33,2.83,1.11,.72,2.34,1.08,3.68,1.08,1.5,0,3.01-.47,4.51-1.41,1.5-.94,2.87-2.36,4.1-4.24v5.02h3.81V18.38h-3.81Zm19.46,23.54c3.35,0,5.79-.64,7.31-1.92,1.52-1.28,2.29-2.91,2.29-4.89,0-1.52-.48-2.78-1.43-3.79-.95-1.01-2.61-1.95-4.98-2.81l-2.59-.94c-1.77-.64-3.04-1.21-3.82-1.7-.79-.49-1.19-1.15-1.19-1.97s.46-1.55,1.37-2.12c.91-.57,2.17-.85,3.79-.85,2.22,0,4.59,.45,7.11,1.35v-3.47c-2.19-.71-4.51-1.07-6.96-1.07-3.27,0-5.64,.61-7.1,1.83-1.46,1.22-2.19,2.77-2.19,4.66,0,1.34,.38,2.47,1.13,3.4,.74,.94,2.53,1.97,5.37,3.08l2.65,1.05,1.31,.53c1.57,.64,2.56,1.18,2.95,1.62,.4,.44,.6,.96,.6,1.58,0,.93-.42,1.71-1.27,2.33-.85,.62-2.24,.93-4.16,.93-1.19,0-2.64-.2-4.35-.6-1.71-.4-3.33-1.1-4.86-2.1v4.04c3.09,1.23,6.1,1.84,9.02,1.84h0Z"></path>
      <path class="cls-2" d="M23.95,6.63S19.56,1.5,12.73,1.5,1.5,6.63,1.5,6.63"></path>
      <path d="M20.86,59.84c0,.1,.03,.18,.09,.25,.06,.07,.14,.1,.24,.1s.18-.03,.24-.1c.06-.07,.09-.15,.09-.25v-3.71c0-.56-.1-1.09-.29-1.58-.2-.49-.47-.92-.82-1.29s-.76-.65-1.23-.86c-.48-.21-.99-.32-1.55-.32-.46,0-.89,.07-1.29,.22-.4,.15-.75,.33-1.07,.55-.31,.22-.58,.45-.78,.7-.21,.25-.35,.48-.43,.69v-4.39c0-.09-.03-.17-.1-.23-.07-.07-.15-.1-.24-.1s-.17,.03-.24,.1c-.07,.07-.1,.15-.1,.23v10c0,.1,.03,.18,.09,.25,.06,.07,.14,.1,.24,.1s.18-.03,.24-.1c.06-.07,.09-.15,.09-.25v-3.66c0-.46,.1-.9,.29-1.32,.2-.42,.46-.79,.79-1.11,.33-.32,.71-.57,1.14-.76,.43-.19,.88-.29,1.34-.29s.9,.09,1.3,.27c.4,.18,.74,.43,1.02,.74,.29,.31,.51,.68,.66,1.1,.16,.42,.24,.87,.24,1.34v3.7h0Zm25.54,.26c.28-.06,.54-.14,.77-.24,.23-.1,.44-.21,.62-.33,.18-.12,.35-.23,.48-.34,.08-.08,.11-.16,.1-.26-.01-.09-.05-.18-.1-.24-.07-.07-.15-.1-.25-.1s-.19,.03-.25,.1c-.29,.29-.64,.51-1.04,.66-.4,.15-.81,.23-1.23,.23-.45,0-.87-.08-1.26-.24-.39-.16-.74-.38-1.03-.66-.3-.28-.54-.61-.73-.99-.19-.38-.3-.79-.34-1.23h7.06c.12,0,.22-.03,.29-.1,.07-.07,.1-.15,.1-.24,0-.57-.1-1.1-.3-1.6-.2-.49-.48-.92-.83-1.28-.35-.36-.77-.65-1.25-.86-.48-.21-1-.31-1.56-.31s-1.1,.09-1.6,.28c-.51,.19-.96,.46-1.34,.82-.39,.35-.69,.78-.92,1.29-.22,.5-.34,1.07-.34,1.7,0,.56,.11,1.09,.32,1.58,.21,.49,.5,.92,.87,1.28,.37,.36,.8,.65,1.29,.87,.49,.21,1.02,.32,1.58,.32,.33,0,.63-.03,.91-.09h0Zm.48-7.17c.39,.16,.72,.38,1.01,.66,.29,.28,.51,.61,.69,.99,.17,.38,.28,.79,.31,1.23h-6.74c.04-.44,.16-.85,.36-1.23,.2-.38,.45-.71,.76-.99,.31-.28,.67-.5,1.08-.66,.4-.16,.83-.24,1.28-.24s.87,.08,1.25,.24h0Zm29.95,6.06c0,.43,.04,.73,.12,.92,.08,.19,.2,.29,.37,.29,.12,0,.19-.06,.19-.18v-7.73c0-.12-.06-.18-.19-.18-.17,0-.29,.1-.37,.29-.08,.19-.12,.5-.12,.92v.92c-.08-.21-.22-.44-.43-.69-.21-.25-.47-.48-.78-.7-.31-.22-.67-.4-1.07-.55-.4-.15-.83-.22-1.29-.22-.56,0-1.08,.11-1.55,.32-.48,.21-.89,.5-1.23,.87-.35,.37-.62,.8-.82,1.29-.2,.49-.29,1.02-.29,1.58s.1,1.09,.29,1.58c.2,.49,.47,.92,.82,1.29,.35,.37,.76,.66,1.23,.87,.48,.21,.99,.32,1.55,.32,.42,0,.82-.06,1.2-.18,.39-.12,.74-.29,1.05-.49,.31-.2,.58-.43,.81-.69,.23-.26,.39-.52,.5-.79v.92h0Zm-6.51-4.17c.15-.42,.37-.79,.65-1.1,.28-.31,.62-.56,1.01-.74,.39-.18,.82-.27,1.29-.27s.9,.09,1.33,.28c.43,.18,.8,.43,1.12,.75,.33,.31,.59,.68,.78,1.1,.2,.42,.29,.86,.29,1.32s-.1,.92-.29,1.34c-.19,.42-.45,.79-.77,1.1-.32,.31-.69,.56-1.12,.74-.43,.18-.88,.27-1.35,.27s-.9-.09-1.29-.27c-.39-.18-.73-.43-1.01-.74-.28-.31-.5-.68-.65-1.1-.15-.42-.23-.87-.23-1.34s.08-.92,.23-1.34h0Zm27.6-5.1c-.07,.07-.1,.15-.1,.23v9.91c0,.09,.03,.17,.1,.23,.07,.07,.15,.1,.24,.1s.17-.03,.24-.1c.07-.07,.1-.15,.1-.23v-9.91c0-.09-.03-.17-.1-.23-.07-.07-.15-.1-.24-.1s-.17,.03-.24,.1h0Zm22.12,.23c-.07,.07-.11,.16-.11,.24l.03,2.25-1.46-.07c-.09,0-.17,.03-.24,.1-.07,.07-.1,.16-.1,.27,0,.09,.03,.17,.1,.24,.07,.07,.15,.1,.24,.1l1.46-.05-.03,6.82c0,.09,.04,.17,.11,.24,.07,.07,.15,.11,.24,.11s.17-.04,.24-.11c.07-.07,.11-.15,.11-.24l-.03-6.82c.06,0,.15,0,.29,0,.14,0,.29,.01,.45,.02,.16,0,.31,.01,.45,.02,.14,0,.23,0,.28,0,.11,0,.2-.03,.27-.1,.07-.07,.1-.15,.1-.24,0-.25-.12-.37-.37-.37-.05,0-.14,0-.27,0-.13,0-.28,.02-.44,.03s-.31,.02-.45,.03c-.15,0-.25,0-.32,0l.03-2.25c0-.09-.04-.17-.11-.24-.07-.07-.15-.11-.24-.11s-.17,.04-.24,.11h0Zm29.55,9.9c0,.1,.03,.18,.09,.25,.06,.07,.14,.1,.24,.1s.18-.03,.24-.1c.06-.07,.09-.15,.09-.25v-3.71c0-.56-.1-1.09-.29-1.58-.2-.49-.47-.92-.81-1.29-.35-.36-.76-.65-1.23-.86s-.99-.32-1.55-.32c-.46,0-.89,.07-1.28,.22-.4,.15-.75,.33-1.07,.55-.31,.22-.57,.45-.78,.7-.21,.25-.35,.48-.43,.69v-4.39c0-.09-.03-.17-.1-.23-.07-.07-.14-.1-.24-.1s-.17,.03-.23,.1c-.07,.07-.1,.15-.1,.23v10c0,.1,.03,.18,.09,.25,.06,.07,.14,.1,.24,.1s.18-.03,.24-.1c.06-.07,.09-.15,.09-.25v-3.66c0-.46,.1-.9,.29-1.32,.2-.42,.46-.79,.79-1.11,.33-.32,.71-.57,1.14-.76,.43-.19,.88-.29,1.34-.29s.9,.09,1.3,.27c.4,.18,.74,.43,1.02,.74,.29,.31,.51,.68,.66,1.1,.16,.42,.24,.87,.24,1.34v3.7h0Z"></path>
    </g>
  </g>
</svg>
