<svg xmlns="http://www.w3.org/2000/svg" width="41" height="40" viewBox="0 0 41 40" fill="none"><circle cx="20.4287" cy="20" r="20" fill="white" fill-opacity="0.1"></circle><g clip-path="url(#clip0_1012_9688)"><path d="M12.4287 14.1345C12.4287 13.6196 12.6089 13.1949 12.9693 12.8603C13.3296 12.5257 13.7981 12.3584 14.3747 12.3584C14.9409 12.3584 15.3991 12.5231 15.7492 12.8526C16.1095 13.1924 16.2897 13.6351 16.2897 14.1808C16.2897 14.675 16.1147 15.0868 15.7646 15.4163C15.4043 15.7561 14.9306 15.926 14.3438 15.926H14.3283C13.762 15.926 13.3039 15.7561 12.9538 15.4163C12.6037 15.0765 12.4287 14.6493 12.4287 14.1345ZM12.6295 27.648V17.3314H16.0581V27.648H12.6295ZM17.9577 27.648H21.3862V21.8874C21.3862 21.527 21.4274 21.249 21.5098 21.0534C21.6539 20.7033 21.8727 20.4073 22.1662 20.1653C22.4596 19.9234 22.8277 19.8024 23.2704 19.8024C24.4236 19.8024 25.0001 20.5798 25.0001 22.1345V27.648H28.4287V21.7329C28.4287 20.2091 28.0684 19.0534 27.3476 18.2657C26.6269 17.4781 25.6745 17.0843 24.4905 17.0843C23.1623 17.0843 22.1276 17.6557 21.3862 18.7986V18.8294H21.3708L21.3862 18.7986V17.3314H17.9577C17.9783 17.6608 17.9886 18.6853 17.9886 20.4047C17.9886 22.1242 17.9783 24.5386 17.9577 27.648Z" fill="#FEFEFE"></path></g><defs><clipPath id="clip0_1012_9688"><rect width="16" height="16" fill="white" transform="translate(12.4287 12)"></rect></clipPath></defs></svg>