<svg xmlns="http://www.w3.org/2000/svg" width="80" height="80" viewBox="0 0 80 80" fill="none"><circle cx="40" cy="40" r="40" fill="#DAF5F8"></circle><path fill-rule="evenodd" clip-rule="evenodd" d="M40 32.5C35.8579 32.5 32.5 35.8579 32.5 40C32.5 44.1421 35.8579 47.5 40 47.5C44.1421 47.5 47.5 44.1421 47.5 40C47.5 35.8579 44.1421 32.5 40 32.5ZM35.5 40C35.5 37.5147 37.5147 35.5 40 35.5C42.4853 35.5 44.5 37.5147 44.5 40C44.5 42.4853 42.4853 44.5 40 44.5C37.5147 44.5 35.5 42.4853 35.5 40Z" fill="#00A0AF"></path><path fill-rule="evenodd" clip-rule="evenodd" d="M40 22.5C30.9717 22.5 24.8906 27.9084 21.3611 32.4937L21.2975 32.5764C20.4993 33.6131 19.7641 34.5678 19.2654 35.6968C18.7313 36.9057 18.5 38.2234 18.5 40C18.5 41.7766 18.7313 43.0943 19.2654 44.3032C19.7641 45.4322 20.4993 46.3869 21.2975 47.4236L21.3611 47.5063C24.8906 52.0916 30.9717 57.5 40 57.5C49.0283 57.5 55.1094 52.0916 58.6389 47.5063L58.7025 47.4237C59.5007 46.387 60.2359 45.4322 60.7346 44.3032C61.2687 43.0943 61.5 41.7766 61.5 40C61.5 38.2234 61.2687 36.9057 60.7346 35.6968C60.2359 34.5678 59.5007 33.613 58.7025 32.5764L58.6389 32.4937C55.1094 27.9084 49.0283 22.5 40 22.5ZM23.7384 34.3236C26.9973 30.0898 32.3007 25.5 40 25.5C47.6993 25.5 53.0027 30.0898 56.2616 34.3236C57.1387 35.4632 57.6525 36.1441 57.9905 36.9091C58.3063 37.624 58.5 38.4979 58.5 40C58.5 41.5021 58.3063 42.376 57.9905 43.0909C57.6525 43.8559 57.1387 44.5368 56.2616 45.6764C53.0027 49.9102 47.6993 54.5 40 54.5C32.3007 54.5 26.9973 49.9102 23.7384 45.6764C22.8613 44.5368 22.3475 43.8559 22.0095 43.0909C21.6937 42.376 21.5 41.5021 21.5 40C21.5 38.4979 21.6937 37.624 22.0095 36.9091C22.3475 36.1441 22.8613 35.4632 23.7384 34.3236Z" fill="#00A0AF"></path></svg>