<svg xmlns="http://www.w3.org/2000/svg" width="80" height="80" viewBox="0 0 80 80" fill="none"><circle cx="40" cy="40" r="40" fill="#DAF5F8"></circle><path d="M48.0001 37C48.0001 38.6569 47.1047 40 46.0001 40C44.8956 40 44.0001 38.6569 44.0001 37C44.0001 35.3432 44.8956 34 46.0001 34C47.1047 34 48.0001 35.3432 48.0001 37Z" fill="#00A0AF"></path><path d="M36.0001 37C36.0001 38.6569 35.1047 40 34.0001 40C32.8956 40 32.0001 38.6569 32.0001 37C32.0001 35.3432 32.8956 34 34.0001 34C35.1047 34 36.0001 35.3432 36.0001 37Z" fill="#00A0AF"></path><path fill-rule="evenodd" clip-rule="evenodd" d="M42.5301 20.1016C42.6949 19.2897 43.4866 18.7651 44.2985 18.9299C52.7256 20.6404 59.3598 27.2745 61.0704 35.7015C61.2352 36.5134 60.7106 37.3052 59.8988 37.47C59.0869 37.6348 58.2952 37.1102 58.1303 36.2983C56.6594 29.0521 50.948 23.3408 43.7017 21.87C42.8899 21.7052 42.3653 20.9134 42.5301 20.1016ZM37.4705 20.1017C37.6353 20.9136 37.1107 21.7053 36.2988 21.8701C29.0525 23.3409 23.3411 29.0522 21.8702 36.2984C21.7054 37.1103 20.9137 37.6349 20.1018 37.4701C19.2899 37.3053 18.7654 36.5135 18.9302 35.7017C20.6408 27.2746 27.275 20.6405 35.7021 18.93C36.5139 18.7652 37.3057 19.2898 37.4705 20.1017ZM20.1021 42.53C20.914 42.3652 21.7057 42.8898 21.8705 43.7017C23.3414 50.9479 29.0528 56.6592 36.2991 58.13C37.111 58.2948 37.6356 59.0865 37.4708 59.8984C37.306 60.7103 36.5143 61.2349 35.7024 61.0701C27.2753 59.3596 20.6411 52.7255 18.9305 44.2984C18.7657 43.4866 19.2902 42.6948 20.1021 42.53ZM59.8988 42.53C60.7106 42.6948 61.2352 43.4866 61.0704 44.2984C59.3598 52.7255 52.7256 59.3596 44.2985 61.0701C43.4866 61.2348 42.6949 60.7103 42.5301 59.8984C42.3653 59.0865 42.8899 58.2948 43.7017 58.13C50.948 56.6592 56.6594 50.9479 58.1303 43.7017C58.2952 42.8898 59.0869 42.3652 59.8988 42.53ZM32.7951 47.1068C33.2884 46.4413 34.2278 46.3017 34.8933 46.795C36.35 47.8747 38.1083 48.5 40.0001 48.5C41.8919 48.5 43.6502 47.8747 45.1069 46.795C45.7724 46.3017 46.7119 46.4413 47.2052 47.1068C47.6985 47.7724 47.5589 48.7118 46.8933 49.2051C44.9485 50.6467 42.5701 51.5 40.0001 51.5C37.4302 51.5 35.0517 50.6467 33.1069 49.2051C32.4414 48.7118 32.3018 47.7724 32.7951 47.1068Z" fill="#00A0AF"></path></svg>