<svg xmlns="http://www.w3.org/2000/svg" width="80" height="80" viewBox="0 0 80 80" fill="none"><circle cx="40" cy="40" r="40" fill="#DAF5F8"></circle><path fill-rule="evenodd" clip-rule="evenodd" d="M34.5 55C34.5 54.1716 35.1716 53.5 36 53.5H44C44.8284 53.5 45.5 54.1716 45.5 55C45.5 55.8284 44.8284 56.5 44 56.5H36C35.1716 56.5 34.5 55.8284 34.5 55ZM35.8333 60C35.8333 59.1716 36.5049 58.5 37.3333 58.5H42.6667C43.4951 58.5 44.1667 59.1716 44.1667 60C44.1667 60.8284 43.4951 61.5 42.6667 61.5H37.3333C36.5049 61.5 35.8333 60.8284 35.8333 60Z" fill="#00A0AF"></path><path fill-rule="evenodd" clip-rule="evenodd" d="M24.5 32.4361C24.5 24.6266 31.6078 18.5 40 18.5C48.3922 18.5 55.5 24.6266 55.5 32.4361L55.5 32.4427C55.4808 36.8554 53.5828 41.2514 50.2111 44.4493L50.2069 44.4532L47.9988 46.5316C47.6805 46.8311 47.5 47.2489 47.5 47.686C47.5 49.7924 45.7924 51.5 43.686 51.5H36.314C34.2076 51.5 32.5 49.7924 32.5 47.686C32.5 47.2489 32.3195 46.8312 32.0012 46.5316L29.7931 44.4532L29.7889 44.4493C26.4172 41.2514 24.5192 36.8554 24.5 32.4427L24.5 32.4361ZM27.5 32.4329C27.5165 36.0041 29.0604 39.6225 31.8513 42.2706C31.852 42.2713 31.8527 42.2719 31.8534 42.2726L34.0573 44.347C34.978 45.2135 35.5 46.4217 35.5 47.686C35.5 48.1356 35.8644 48.5 36.314 48.5H43.686C44.1356 48.5 44.5 48.1356 44.5 47.686C44.5 46.4217 45.022 45.2135 45.9427 44.347C45.9426 44.3471 45.9427 44.347 45.9427 44.347L48.1466 42.2726C48.1473 42.272 48.1479 42.2713 48.1486 42.2707C50.9396 39.6226 52.4836 36.004 52.5 32.4327C52.4979 26.599 47.0704 21.5 40 21.5C32.9296 21.5 27.502 26.5991 27.5 32.4329Z" fill="#00A0AF"></path></svg>