<svg xmlns="http://www.w3.org/2000/svg" width="80" height="80" viewBox="0 0 80 80" fill="none"><circle cx="40" cy="40" r="40" fill="#DAF5F8"></circle><path fill-rule="evenodd" clip-rule="evenodd" d="M30.5256 22.5174C30.7663 20.2591 32.6777 18.5 35 18.5H45C47.3223 18.5 49.2337 20.2591 49.4744 22.5174C51.0007 22.5485 52.3205 22.6274 53.4473 22.8344C54.9633 23.1129 56.2534 23.6434 57.3033 24.6932C58.5071 25.8971 59.0249 27.4128 59.267 29.213C59.5001 30.947 59.5 33.1516 59.5 35.8868V48.1063C59.5 50.8414 59.5001 53.0461 59.267 54.78C59.0249 56.5802 58.5071 58.096 57.3033 59.2998C56.0995 60.5037 54.5837 61.0214 52.7835 61.2635C51.0496 61.4966 48.8449 61.4966 46.1097 61.4965H33.8903C31.1551 61.4966 28.9504 61.4966 27.2165 61.2635C25.4163 61.0214 23.9005 60.5037 22.6967 59.2998C21.4929 58.096 20.9751 56.5802 20.733 54.78C20.4999 53.0461 20.5 50.8415 20.5 48.1063V35.8868C20.5 33.1516 20.4999 30.947 20.733 29.213C20.9751 27.4128 21.4929 25.8971 22.6967 24.6932C23.7466 23.6434 25.0367 23.1129 26.5527 22.8344C27.6795 22.6274 28.9993 22.5485 30.5256 22.5174ZM30.5295 25.5183C29.0934 25.5489 27.9866 25.6212 27.0947 25.7851C25.9611 25.9933 25.3049 26.3276 24.818 26.8145C24.2645 27.3681 23.9036 28.1452 23.7063 29.6128C23.5032 31.1235 23.5 33.1257 23.5 35.9965V47.9965C23.5 50.8674 23.5032 52.8696 23.7063 54.3803C23.9036 55.8478 24.2645 56.625 24.818 57.1785C25.3715 57.732 26.1487 58.0929 27.6162 58.2902C29.1269 58.4933 31.1292 58.4965 34 58.4965H46C48.8708 58.4965 50.8731 58.4933 52.3838 58.2902C53.8513 58.0929 54.6285 57.732 55.182 57.1785C55.7355 56.625 56.0964 55.8478 56.2937 54.3803C56.4968 52.8696 56.5 50.8674 56.5 47.9965V35.9965C56.5 33.1257 56.4968 31.1235 56.2937 29.6128C56.0964 28.1452 55.7355 27.3681 55.182 26.8145C54.6951 26.3276 54.0389 25.9933 52.9053 25.7851C52.0134 25.6212 50.9066 25.5489 49.4705 25.5183C49.2135 27.7594 47.31 29.5 45 29.5H35C32.69 29.5 30.7865 27.7594 30.5295 25.5183ZM35 21.5C34.1716 21.5 33.5 22.1716 33.5 23V25C33.5 25.8284 34.1716 26.5 35 26.5H45C45.8284 26.5 46.5 25.8284 46.5 25V23C46.5 22.1716 45.8284 21.5 45 21.5H35ZM47.0966 36.9765C47.6618 37.5821 47.6291 38.5313 47.0235 39.0966L38.452 47.0966C37.8757 47.6345 36.9814 47.6345 36.4051 47.0966L32.9765 43.8966C32.3709 43.3313 32.3382 42.3821 32.9034 41.7765C33.4687 41.1709 34.4179 41.1382 35.0235 41.7034L37.4286 43.9482L44.9765 36.9034C45.5821 36.3382 46.5313 36.3709 47.0966 36.9765Z" fill="#00A0AF"></path></svg>