<svg xmlns="http://www.w3.org/2000/svg" width="216" height="216" viewBox="0 0 216 216" fill="none"><path d="M216 165.197H0V165.305H216V165.197Z" fill="#EBEBEB"></path><path d="M194.357 172.148H180.049V172.256H194.357V172.148Z" fill="#EBEBEB"></path><path d="M143.087 173.323H139.333V173.431H143.087V173.323Z" fill="#EBEBEB"></path><path d="M179.617 168.139H171.327V168.247H179.617V168.139Z" fill="#EBEBEB"></path><path d="M41.3207 168.865H22.6626V168.973H41.3207V168.865Z" fill="#EBEBEB"></path><path d="M47.9045 168.865H45.1699V168.973H47.9045V168.865Z" fill="#EBEBEB"></path><path d="M97.2647 170.688H56.7949V170.796H97.2647V170.688Z" fill="#EBEBEB"></path><path d="M102.384 145.93H18.9692C18.3158 145.928 17.6895 145.668 17.2278 145.206C16.7661 144.743 16.5068 144.116 16.5068 143.463V26.2051C16.5125 25.5554 16.7743 24.9342 17.2354 24.4764C17.6964 24.0185 18.3195 23.7611 18.9692 23.76H102.384C103.038 23.76 103.666 24.0199 104.128 24.4825C104.591 24.9451 104.851 25.5725 104.851 26.2267V143.463C104.851 144.117 104.591 144.745 104.128 145.207C103.666 145.67 103.038 145.93 102.384 145.93ZM18.9692 23.8464C18.3444 23.8476 17.7456 24.0966 17.3042 24.5388C16.8627 24.981 16.6148 25.5803 16.6148 26.2051V143.463C16.6148 144.088 16.8627 144.687 17.3042 145.129C17.7456 145.571 18.3444 145.82 18.9692 145.822H102.384C103.009 145.82 103.609 145.572 104.051 145.129C104.493 144.687 104.742 144.088 104.743 143.463V26.2051C104.742 25.5799 104.493 24.9806 104.051 24.5385C103.609 24.0964 103.009 23.8476 102.384 23.8464H18.9692Z" fill="#EBEBEB"></path><path d="M195.83 145.93H112.411C111.757 145.928 111.13 145.668 110.668 145.206C110.205 144.744 109.945 144.117 109.944 143.463V26.2051C109.951 25.555 110.213 24.9338 110.675 24.4761C111.137 24.0184 111.76 23.7611 112.411 23.76H195.83C196.479 23.7623 197.101 24.0202 197.561 24.4779C198.021 24.9356 198.282 25.5562 198.288 26.2051V143.463C198.288 144.116 198.029 144.742 197.568 145.204C197.108 145.666 196.482 145.927 195.83 145.93ZM112.411 23.8464C111.785 23.8476 111.186 24.0964 110.744 24.5385C110.302 24.9806 110.053 25.5799 110.052 26.2051V143.463C110.053 144.088 110.302 144.687 110.744 145.129C111.186 145.572 111.785 145.82 112.411 145.822H195.83C196.455 145.82 197.054 145.572 197.496 145.129C197.938 144.687 198.187 144.088 198.188 143.463V26.2051C198.187 25.5799 197.938 24.9806 197.496 24.5385C197.054 24.0964 196.455 23.8476 195.83 23.8464H112.411Z" fill="#EBEBEB"></path><path d="M111.028 164.981H174.303V72.2087L111.028 72.2087L111.028 164.981Z" fill="#F0F0F0"></path><path d="M113.262 92.2622L172.065 92.2622V75.1291H113.262V92.2622Z" fill="#E0E0E0"></path><path d="M168.722 92.2666H172.062V77.9069H168.722V92.2666Z" fill="#EBEBEB"></path><path d="M152.569 92.2666H155.909V77.9069H152.569V92.2666Z" fill="#EBEBEB"></path><path d="M131.802 91.6913L135.093 92.2585L137.532 78.1075L134.242 77.5403L131.802 91.6913Z" fill="#EBEBEB"></path><path d="M164.588 92.2666H167.927V79.7991H164.588V92.2666Z" fill="#EBEBEB"></path><path d="M156.907 92.2666H160.246V79.7991H156.907V92.2666Z" fill="#EBEBEB"></path><path d="M137.527 92.2666H140.867V79.7991H137.527V92.2666Z" fill="#EBEBEB"></path><path d="M145.486 91.5326L148.746 92.2571L151.451 80.0865L148.191 79.362L145.486 91.5326Z" fill="#EBEBEB"></path><path d="M161.693 92.2666H163.365V77.1941H161.693V92.2666Z" fill="#EBEBEB"></path><path d="M141.826 92.2666H143.498V77.1941H141.826V92.2666Z" fill="#EBEBEB"></path><path d="M172.066 94.9751H113.262V112.108H172.066V94.9751Z" fill="#E0E0E0"></path><path d="M116.601 97.7485H113.262V112.108H116.601V97.7485Z" fill="#EBEBEB"></path><path d="M132.753 97.7485H129.414V112.108H132.753V97.7485Z" fill="#EBEBEB"></path><path d="M151.093 97.3856L147.802 97.9529L150.241 112.104L153.532 111.537L151.093 97.3856Z" fill="#EBEBEB"></path><path d="M120.74 99.6409H117.4V112.108H120.74V99.6409Z" fill="#EBEBEB"></path><path d="M128.417 99.6409H125.077V112.108H128.417V99.6409Z" fill="#EBEBEB"></path><path d="M147.796 99.6409H144.457V112.108H147.796V99.6409Z" fill="#EBEBEB"></path><path d="M137.145 99.2072L133.885 99.9316L136.59 112.102L139.85 111.378L137.145 99.2072Z" fill="#EBEBEB"></path><path d="M123.63 97.0359H121.958V112.108H123.63V97.0359Z" fill="#EBEBEB"></path><path d="M143.502 97.0359H141.83V112.108H143.502V97.0359Z" fill="#EBEBEB"></path><path d="M168.722 112.113H172.062V97.7531H168.722V112.113Z" fill="#EBEBEB"></path><path d="M164.588 112.113H167.927V99.645H164.588V112.113Z" fill="#EBEBEB"></path><path d="M156.907 112.113H160.246V99.645H156.907V112.113Z" fill="#EBEBEB"></path><path d="M161.693 112.113H163.365V97.0401H161.693V112.113Z" fill="#EBEBEB"></path><path d="M113.262 131.959H172.065V114.826H113.262V131.959Z" fill="#E0E0E0"></path><path d="M134.974 131.954H138.313V117.595H134.974V131.954Z" fill="#EBEBEB"></path><path d="M114.205 131.386L117.496 131.953L119.935 117.802L116.644 117.235L114.205 131.386Z" fill="#EBEBEB"></path><path d="M146.984 131.954H150.323V119.487H146.984V131.954Z" fill="#EBEBEB"></path><path d="M139.312 131.954H142.651V119.487H139.312V131.954Z" fill="#EBEBEB"></path><path d="M119.932 131.954H123.271V119.487H119.932V131.954Z" fill="#EBEBEB"></path><path d="M127.888 131.228L131.148 131.952L133.853 119.782L130.593 119.057L127.888 131.228Z" fill="#EBEBEB"></path><path d="M144.098 131.954H145.77V116.882H144.098V131.954Z" fill="#EBEBEB"></path><path d="M124.226 131.954H125.898V116.882H124.226V131.954Z" fill="#EBEBEB"></path><path d="M152.633 131.385L155.923 131.953L158.363 117.802L155.072 117.234L152.633 131.385Z" fill="#EBEBEB"></path><path d="M158.358 131.954H161.698V119.487H158.358V131.954Z" fill="#EBEBEB"></path><path d="M166.318 131.228L169.578 131.952L172.283 119.782L169.023 119.057L166.318 131.228Z" fill="#EBEBEB"></path><path d="M162.657 131.954H164.329V116.882H162.657V131.954Z" fill="#EBEBEB"></path><path d="M185.215 72.2087H174.299V165.223H185.215V72.2087Z" fill="#E0E0E0"></path><path d="M147.193 60.675C151.268 60.1732 154.165 56.4627 153.663 52.3874C153.161 48.3121 149.451 45.4152 145.376 45.917C141.3 46.4189 138.403 50.1294 138.905 54.2047C139.407 58.28 143.118 61.1768 147.193 60.675Z" fill="#E0E0E0"></path><path d="M146.903 59.6039C150.376 59.2603 152.913 56.1658 152.57 52.6922C152.226 49.2186 149.132 46.6813 145.658 47.025C142.185 47.3686 139.647 50.4631 139.991 53.9367C140.335 57.4102 143.429 59.9475 146.903 59.6039Z" fill="#F0F0F0"></path><path d="M146.582 48.9673V53.3866L149.511 51.7278" fill="#F0F0F0"></path><path d="M146.582 53.8185C146.467 53.8185 146.357 53.773 146.276 53.692C146.195 53.611 146.15 53.5011 146.15 53.3865V48.9672C146.15 48.8526 146.195 48.7427 146.276 48.6617C146.357 48.5807 146.467 48.5352 146.582 48.5352C146.696 48.5352 146.806 48.5807 146.887 48.6617C146.968 48.7427 147.014 48.8526 147.014 48.9672V52.6435L149.299 51.3475C149.399 51.2902 149.517 51.2748 149.628 51.3048C149.739 51.3348 149.834 51.4076 149.891 51.5073C149.948 51.607 149.964 51.7253 149.934 51.8363C149.904 51.9473 149.831 52.0419 149.731 52.0992L146.807 53.758C146.738 53.796 146.661 53.8168 146.582 53.8185Z" fill="#E0E0E0"></path><path d="M82.2357 62.1734C82.2357 62.1734 82.8146 58.3459 80.0238 55.8921C77.2331 53.4384 77.475 51.9739 78.2742 51.7838C79.0734 51.5937 79.8078 54.0475 81.0347 54.7257C81.0347 54.7257 81.0736 51.2265 79.8294 49.9348C78.5853 48.6432 77.9286 45.3297 79.1123 45.2692C80.296 45.2088 80.4083 47.2435 80.6675 48.682C80.9267 50.1206 82.2357 52.138 82.2357 52.138C82.2357 52.138 82.4949 49.006 83.2984 47.7187C84.1019 46.4313 81.9592 43.4851 82.7843 42.1934C83.6094 40.9017 85.0869 43.3598 84.9659 46.1246C84.845 48.8894 83.0003 51.8313 83.4323 54.7171C83.4323 54.7171 84.2445 52.691 84.9702 52.5052C85.696 52.3195 86.439 50.9803 86.9272 50.4878C87.4154 49.9953 88.0331 51.706 86.9272 53.3044C85.8213 54.9028 83.0003 59.184 83.4323 62.64L82.2357 62.1734Z" fill="#E6E6E6"></path><path d="M80.5682 60.4324L79.6523 66.1693C79.5862 66.5861 79.6111 67.0123 79.7254 67.4185C79.8398 67.8247 80.0408 68.2013 80.3146 68.5224C80.5885 68.8435 80.9287 69.1014 81.3118 69.2783C81.6949 69.4553 82.1118 69.5472 82.5338 69.5476H83.5101C83.9321 69.5472 84.349 69.4553 84.7321 69.2783C85.1152 69.1014 85.4554 68.8435 85.7292 68.5224C86.0031 68.2013 86.2041 67.8247 86.3184 67.4185C86.4328 67.0123 86.4577 66.5861 86.3915 66.1693L85.4757 60.4324H80.5682Z" fill="#E6E6E6"></path><path d="M94.3965 67.4309H29.7563V70.753H94.3965V67.4309Z" fill="#E0E0E0"></path><path d="M35.5793 55.188H32.7324V67.4309H35.5793V55.188Z" fill="#EBEBEB"></path><path d="M49.3518 55.188H46.5049V67.4309H49.3518V55.188Z" fill="#EBEBEB"></path><path d="M64.9852 54.8812L62.1797 55.3647L64.2593 67.4297L67.0648 66.9461L64.9852 54.8812Z" fill="#EBEBEB"></path><path d="M39.1091 56.7993H36.2622V67.4265H39.1091V56.7993Z" fill="#EBEBEB"></path><path d="M45.6535 56.7993H42.8066V67.4265H45.6535V56.7993Z" fill="#EBEBEB"></path><path d="M62.1735 56.7993H59.3267V67.4265H62.1735V56.7993Z" fill="#EBEBEB"></path><path d="M53.0935 56.4324L50.3145 57.05L52.62 67.4241L55.3991 66.8065L53.0935 56.4324Z" fill="#EBEBEB"></path><path d="M41.5716 54.5789H40.146V67.4309H41.5716V54.5789Z" fill="#EBEBEB"></path><path d="M58.5101 54.5789H57.0845V67.4309H58.5101V54.5789Z" fill="#EBEBEB"></path><path d="M29.7607 95.5454L94.4009 95.5454V92.2233L29.7607 92.2233V95.5454Z" fill="#E0E0E0"></path><path d="M88.5774 92.2234H91.4243V79.9805H88.5774V92.2234Z" fill="#EBEBEB"></path><path d="M74.805 92.2234H77.6519V79.9805H74.805V92.2234Z" fill="#EBEBEB"></path><path d="M57.0934 91.7376L59.8989 92.2212L61.9786 80.1562L59.1731 79.6726L57.0934 91.7376Z" fill="#EBEBEB"></path><path d="M85.0437 92.2234H87.8906V81.5962H85.0437V92.2234Z" fill="#EBEBEB"></path><path d="M78.5032 92.2234H81.3501V81.5962H78.5032V92.2234Z" fill="#EBEBEB"></path><path d="M61.9788 92.2234H64.8257V81.5962H61.9788V92.2234Z" fill="#EBEBEB"></path><path d="M68.7673 91.6043L71.5464 92.2219L73.852 81.8478L71.0729 81.2302L68.7673 91.6043Z" fill="#EBEBEB"></path><path d="M82.5812 92.2234H84.0068V79.3714H82.5812V92.2234Z" fill="#EBEBEB"></path><path d="M65.6423 92.2234H67.0679V79.3714H65.6423V92.2234Z" fill="#EBEBEB"></path><path d="M35.9596 92.1155H49.8354V82.5337H35.9596V92.1155Z" fill="#EBEBEB"></path><path d="M108 184.706C154.26 184.706 191.761 182.517 191.761 179.816C191.761 177.115 154.26 174.926 108 174.926C61.7406 174.926 24.2397 177.115 24.2397 179.816C24.2397 182.517 61.7406 184.706 108 184.706Z" fill="#F5F5F5"></path><path d="M126.641 89.2341V177.842H32.0327V81.3328C32.0327 81.3328 55.5378 80.6848 77.1508 89.7871C77.9457 90.1211 78.7391 90.4696 79.5311 90.8325L126.641 89.2341Z" fill="#263238"></path><path opacity="0.6" d="M126.641 89.2341V177.842H32.0327V81.3328C32.0327 81.3328 55.5378 80.6848 77.1508 89.7871C77.9457 90.1211 78.7391 90.4696 79.5311 90.8325L126.641 89.2341Z" fill="white"></path><path opacity="0.2" d="M126.641 89.2341V177.842H77.1509V89.7871C77.9458 90.1212 78.7392 90.4696 79.5312 90.8325L126.641 89.2341Z" fill="black"></path><path d="M33.7393 80.7236V176.39L52.2245 176.589L60.5535 101.162C60.5535 101.162 49.9781 79.3758 33.7393 80.7236Z" fill="#00A0AF"></path><path opacity="0.8" d="M33.7393 80.7236V176.39L52.2245 176.589L60.5535 101.162C60.5535 101.162 49.9781 79.3758 33.7393 80.7236Z" fill="white"></path><path d="M37.1519 80.7279C37.1519 80.7279 68.1824 80.2959 79.8983 89.7567C79.8983 89.7567 91.4024 87.722 125.34 87.722V176.545H37.1519V80.7279Z" fill="#00A0AF"></path><path opacity="0.9" d="M125.332 87.722V176.545H37.1519V80.7279C37.1519 80.7279 68.1824 80.2959 79.8983 89.7567C79.8983 89.7567 81.0042 89.5623 83.5443 89.2901H83.6048C89.2683 88.6853 101.995 87.722 125.332 87.722Z" fill="white"></path><path opacity="0.1" d="M125.332 87.7219V176.545H79.8853V89.7566L83.5313 89.2901H83.5918C89.2683 88.6853 101.995 87.7219 125.332 87.7219Z" fill="#00A0AF"></path><path opacity="0.1" d="M35.6226 176.412C36.1323 176.412 35.9638 83.186 35.9638 83.186L37.1518 176.546L35.6226 176.412Z" fill="black"></path><path opacity="0.1" d="M34.3394 80.7236L34.8534 160.432L35.1083 80.7236H34.3394Z" fill="black"></path><path d="M101.131 94.8674C110.259 92.8241 120.07 99.9132 119.806 109.365C119.543 118.818 111.33 121.98 103.421 118.835C95.5106 115.69 96.5085 124.019 89.2164 121.427C81.9242 118.835 82.9092 98.9541 101.131 94.8674Z" fill="#00A0AF"></path><path opacity="0.5" d="M119.811 109.158C119.811 109.227 119.811 109.296 119.811 109.365C119.794 110.106 119.719 110.844 119.586 111.573C118.199 119.297 110.683 121.72 103.425 118.835C95.5151 115.694 96.513 124.019 89.2208 121.427C86.24 120.364 84.6416 116.407 85.0477 111.815C85.3759 108.382 86.6701 105.112 88.7802 102.384C91.3722 99.0059 95.4071 96.159 101.131 94.876C110.19 92.8369 119.927 99.7921 119.811 109.158Z" fill="white"></path><path opacity="0.2" d="M83.7605 131.211C83.6746 131.211 83.5922 131.177 83.5314 131.117C83.4707 131.056 83.4365 130.973 83.4365 130.887C83.4365 130.802 83.4707 130.719 83.5314 130.658C83.5922 130.598 83.6746 130.563 83.7605 130.563C83.9117 130.563 99.1916 129.868 121.042 129.868C121.128 129.868 121.21 129.902 121.271 129.963C121.332 130.024 121.366 130.106 121.366 130.192C121.366 130.278 121.332 130.36 121.271 130.421C121.21 130.482 121.128 130.516 121.042 130.516C99.2088 130.516 83.942 131.203 83.7908 131.211H83.7605Z" fill="black"></path><path opacity="0.2" d="M83.7602 136.322C83.6764 136.322 83.5959 136.29 83.5355 136.232C83.4751 136.174 83.4395 136.095 83.4362 136.011C83.4338 135.925 83.465 135.842 83.5231 135.779C83.5812 135.716 83.6616 135.679 83.7472 135.674C83.8984 135.674 99.1782 135.035 121.029 135.035C121.115 135.035 121.197 135.069 121.258 135.13C121.319 135.19 121.353 135.273 121.353 135.359C121.353 135.445 121.319 135.527 121.258 135.588C121.197 135.649 121.115 135.683 121.029 135.683C99.1912 135.683 83.9286 136.313 83.7774 136.322H83.7602Z" fill="black"></path><path opacity="0.2" d="M83.7602 141.433C83.6764 141.433 83.5959 141.4 83.5355 141.342C83.4751 141.284 83.4395 141.205 83.4362 141.122C83.4338 141.035 83.4656 140.951 83.5246 140.888C83.5837 140.825 83.6652 140.788 83.7515 140.785C83.9027 140.785 99.1782 140.197 121.029 140.197C121.115 140.197 121.197 140.231 121.258 140.292C121.319 140.353 121.353 140.435 121.353 140.521C121.353 140.607 121.319 140.689 121.258 140.75C121.197 140.811 121.115 140.845 121.029 140.845C99.1912 140.845 83.9243 141.428 83.7731 141.433H83.7602Z" fill="black"></path><path opacity="0.2" d="M83.7602 146.543C83.6764 146.543 83.5959 146.511 83.5355 146.453C83.4751 146.395 83.4395 146.316 83.4362 146.232C83.4338 146.146 83.4656 146.062 83.5246 145.999C83.5837 145.936 83.6652 145.899 83.7515 145.895C83.9027 145.895 99.1782 145.364 121.029 145.364C121.115 145.364 121.197 145.398 121.258 145.459C121.319 145.519 121.353 145.602 121.353 145.688C121.353 145.774 121.319 145.856 121.258 145.917C121.197 145.978 121.115 146.012 121.029 146.012C99.1912 146.012 83.9243 146.539 83.7731 146.543H83.7602Z" fill="black"></path><path opacity="0.2" d="M83.7605 151.658C83.6746 151.658 83.5922 151.624 83.5314 151.563C83.4707 151.502 83.4365 151.42 83.4365 151.334C83.4365 151.248 83.4707 151.166 83.5314 151.105C83.5922 151.044 83.6746 151.01 83.7605 151.01C83.9117 151.01 99.1916 150.531 121.038 150.531C121.124 150.531 121.206 150.565 121.267 150.625C121.328 150.686 121.362 150.769 121.362 150.855C121.362 150.94 121.328 151.023 121.267 151.084C121.206 151.144 121.124 151.179 121.038 151.179C99.2002 151.179 83.9333 151.649 83.7821 151.658H83.7605Z" fill="black"></path><path opacity="0.2" d="M83.7602 156.768C83.676 156.767 83.5955 156.734 83.5352 156.675C83.4749 156.617 83.4395 156.537 83.4362 156.453C83.435 156.411 83.4422 156.368 83.4575 156.328C83.4727 156.289 83.4956 156.252 83.5249 156.221C83.5542 156.191 83.5893 156.166 83.6282 156.148C83.667 156.131 83.709 156.122 83.7515 156.12C83.9027 156.12 99.1826 155.688 121.029 155.688C121.115 155.688 121.197 155.723 121.258 155.783C121.319 155.844 121.353 155.927 121.353 156.012C121.353 156.098 121.319 156.181 121.258 156.242C121.197 156.302 121.115 156.336 121.029 156.336C99.1912 156.336 83.9243 156.768 83.7731 156.768H83.7602Z" fill="black"></path><path opacity="0.2" d="M83.7605 161.879C83.6746 161.879 83.5922 161.845 83.5314 161.784C83.4707 161.723 83.4365 161.641 83.4365 161.555C83.4365 161.469 83.4707 161.387 83.5314 161.326C83.5922 161.265 83.6746 161.231 83.7605 161.231C83.9117 161.231 99.1873 160.86 121.033 160.86C121.119 160.86 121.202 160.894 121.263 160.955C121.323 161.015 121.357 161.098 121.357 161.184C121.357 161.27 121.323 161.352 121.263 161.413C121.202 161.473 121.119 161.508 121.033 161.508C99.1959 161.508 83.9247 161.875 83.7735 161.879H83.7605Z" fill="black"></path><path opacity="0.2" d="M83.7605 166.99C83.6746 166.99 83.5922 166.956 83.5314 166.895C83.4707 166.834 83.4365 166.752 83.4365 166.666C83.4365 166.58 83.4707 166.497 83.5314 166.437C83.5922 166.376 83.6746 166.342 83.7605 166.342C83.9117 166.342 99.1873 166.026 121.033 166.026C121.119 166.026 121.202 166.061 121.263 166.121C121.323 166.182 121.357 166.264 121.357 166.35C121.357 166.436 121.323 166.519 121.263 166.579C121.202 166.64 121.119 166.674 121.033 166.674C99.1959 166.674 83.9247 166.985 83.7735 166.99H83.7605Z" fill="black"></path><path opacity="0.2" d="M83.7606 172.1C83.6761 172.1 83.595 172.067 83.5345 172.008C83.4739 171.95 83.4388 171.869 83.4366 171.785C83.4354 171.699 83.4683 171.615 83.5281 171.553C83.588 171.491 83.6699 171.455 83.7562 171.452C83.9074 171.452 99.183 171.193 121.029 171.193C121.115 171.193 121.198 171.227 121.258 171.288C121.319 171.349 121.353 171.431 121.353 171.517C121.353 171.603 121.319 171.685 121.258 171.746C121.198 171.807 121.115 171.841 121.029 171.841C99.1916 171.841 83.9204 172.1 83.7692 172.1H83.7606Z" fill="black"></path><path opacity="0.2" d="M76.9393 94.9018C76.893 94.9022 76.8471 94.8918 76.8054 94.8716C76.6844 94.8198 64.4588 89.45 42.699 89.45C42.6131 89.45 42.5307 89.4159 42.4699 89.3551C42.4091 89.2943 42.375 89.2119 42.375 89.126C42.375 89.0401 42.4091 88.9577 42.4699 88.8969C42.5307 88.8361 42.6131 88.802 42.699 88.802C64.61 88.802 76.948 94.2279 77.0732 94.2798C77.1123 94.2975 77.1474 94.3227 77.1766 94.3541C77.2058 94.3854 77.2284 94.4222 77.2433 94.4624C77.2582 94.5026 77.2649 94.5453 77.2632 94.5881C77.2614 94.6309 77.2512 94.6729 77.2331 94.7118C77.2079 94.7686 77.1667 94.8168 77.1145 94.8506C77.0623 94.8843 77.0015 94.9021 76.9393 94.9018Z" fill="black"></path><path opacity="0.2" d="M76.9391 100.012C76.896 100.013 76.8533 100.004 76.8138 99.9866C76.6885 99.9347 64.4586 94.8328 42.6858 94.8328C42.5999 94.8328 42.5175 94.7987 42.4567 94.7379C42.396 94.6772 42.3618 94.5947 42.3618 94.5088C42.3618 94.4229 42.396 94.3405 42.4567 94.2797C42.5175 94.2189 42.5999 94.1848 42.6858 94.1848C64.5925 94.1848 76.9305 99.3386 77.0514 99.3688C77.12 99.398 77.1764 99.45 77.2111 99.5159C77.2459 99.5819 77.2568 99.6578 77.2421 99.7309C77.2274 99.8039 77.1879 99.8697 77.1303 99.9171C77.0728 99.9644 77.0007 99.9905 76.9261 99.9909L76.9391 100.012Z" fill="black"></path><path opacity="0.2" d="M76.9392 105.123C76.898 105.122 76.8572 105.115 76.8182 105.101C76.6973 105.049 64.463 100.215 42.6902 100.215C42.6043 100.215 42.5219 100.181 42.4611 100.12C42.4003 100.06 42.3662 99.9773 42.3662 99.8914C42.3662 99.8055 42.4003 99.723 42.4611 99.6623C42.5219 99.6015 42.6043 99.5674 42.6902 99.5674C64.5926 99.5674 76.9305 104.449 77.0515 104.501C77.0924 104.516 77.1297 104.54 77.1611 104.571C77.1924 104.601 77.2172 104.638 77.2338 104.678C77.2504 104.719 77.2585 104.762 77.2576 104.806C77.2567 104.85 77.2468 104.893 77.2286 104.933C77.2046 104.99 77.1643 105.038 77.1128 105.072C77.0613 105.106 77.0008 105.123 76.9392 105.123Z" fill="black"></path><path opacity="0.2" d="M76.9392 110.234C76.9008 110.242 76.8611 110.242 76.8226 110.234C76.7016 110.19 64.4674 105.616 42.6946 105.616C42.6087 105.616 42.5263 105.581 42.4655 105.521C42.4047 105.46 42.3706 105.377 42.3706 105.292C42.3706 105.206 42.4047 105.123 42.4655 105.062C42.5263 105.002 42.6087 104.968 42.6946 104.968C64.597 104.968 76.9263 109.586 77.0516 109.629C77.0929 109.644 77.1306 109.667 77.1626 109.698C77.1945 109.728 77.2199 109.764 77.2373 109.805C77.2547 109.845 77.2637 109.889 77.2637 109.933C77.2637 109.977 77.2547 110.02 77.2373 110.061C77.2093 110.115 77.1664 110.16 77.1136 110.191C77.0607 110.221 77.0002 110.236 76.9392 110.234Z" fill="black"></path><path opacity="0.2" d="M76.9389 115.344C76.9019 115.344 76.8653 115.336 76.8309 115.322C76.7056 115.279 64.4714 110.972 42.7029 110.972C42.617 110.972 42.5346 110.938 42.4738 110.877C42.413 110.817 42.3789 110.734 42.3789 110.648C42.3789 110.562 42.413 110.48 42.4738 110.419C42.5346 110.358 42.617 110.324 42.7029 110.324C64.601 110.324 76.9303 114.67 77.0512 114.713C77.0933 114.728 77.132 114.75 77.1648 114.78C77.1977 114.81 77.2241 114.847 77.2423 114.887C77.2605 114.928 77.2702 114.971 77.2708 115.016C77.2714 115.06 77.2628 115.104 77.2456 115.145C77.2209 115.206 77.1783 115.257 77.1235 115.293C77.0686 115.328 77.0042 115.346 76.9389 115.344Z" fill="black"></path><path opacity="0.2" d="M76.939 120.459C76.9047 120.465 76.8696 120.465 76.8353 120.459C76.7143 120.416 64.4758 116.377 42.7073 116.377C42.6214 116.377 42.539 116.342 42.4782 116.282C42.4174 116.221 42.3833 116.138 42.3833 116.053C42.3833 115.967 42.4174 115.884 42.4782 115.823C42.539 115.763 42.6214 115.729 42.7073 115.729C64.6011 115.729 76.9303 119.802 77.0513 119.845C77.1239 119.87 77.1854 119.92 77.2248 119.986C77.2642 120.051 77.2791 120.129 77.2666 120.205C77.2542 120.28 77.2153 120.349 77.1569 120.399C77.0985 120.449 77.0243 120.476 76.9476 120.476L76.939 120.459Z" fill="black"></path><path opacity="0.2" d="M76.9391 125.57C76.9062 125.576 76.8725 125.576 76.8397 125.57C76.7187 125.535 64.4802 121.759 42.7117 121.759C42.6258 121.759 42.5434 121.725 42.4826 121.664C42.4218 121.604 42.3877 121.521 42.3877 121.435C42.3877 121.349 42.4218 121.267 42.4826 121.206C42.5434 121.145 42.6258 121.111 42.7117 121.111C64.6011 121.111 76.9261 124.913 77.0471 124.952C77.1223 124.974 77.1871 125.022 77.2293 125.088C77.2716 125.154 77.2885 125.233 77.2769 125.311C77.2653 125.388 77.226 125.459 77.1662 125.51C77.1065 125.561 77.0304 125.588 76.952 125.587L76.9391 125.57Z" fill="black"></path><path opacity="0.2" d="M76.9392 130.68H76.8485C76.7275 130.646 64.4846 127.133 42.7205 127.133C42.6346 127.133 42.5521 127.099 42.4914 127.038C42.4306 126.978 42.3965 126.895 42.3965 126.809C42.3965 126.723 42.4306 126.641 42.4914 126.58C42.5521 126.519 42.6346 126.485 42.7205 126.485C64.6099 126.485 76.9306 130.023 77.0515 130.058C77.0924 130.07 77.1305 130.09 77.1637 130.116C77.1968 130.143 77.2244 130.176 77.2449 130.213C77.2653 130.251 77.2783 130.292 77.2829 130.334C77.2875 130.376 77.2838 130.419 77.2718 130.46C77.2483 130.528 77.2029 130.586 77.1428 130.626C77.0827 130.666 77.0112 130.685 76.9392 130.68Z" fill="black"></path><path opacity="0.2" d="M76.9393 135.791C76.9107 135.795 76.8816 135.795 76.8529 135.791C76.732 135.756 64.4891 132.512 42.699 132.512C42.6131 132.512 42.5307 132.478 42.4699 132.417C42.4091 132.356 42.375 132.274 42.375 132.188C42.375 132.102 42.4091 132.019 42.4699 131.959C42.5307 131.898 42.6131 131.864 42.699 131.864C64.5841 131.864 76.9004 135.13 77.0214 135.164C77.0956 135.186 77.1597 135.233 77.2021 135.298C77.2444 135.363 77.2623 135.44 77.2524 135.517C77.2425 135.594 77.2055 135.664 77.1481 135.716C77.0906 135.768 77.0166 135.797 76.9393 135.799V135.791Z" fill="black"></path><path d="M46.2239 140.309C52.354 133.795 72.3253 141.458 75.2025 150.742C77.6476 158.63 60.6311 176.299 51.6714 167.124C42.7117 157.948 42.4136 144.361 46.2239 140.309Z" fill="#00A0AF"></path><path opacity="0.5" d="M73.3191 158.812C72.6084 159.995 71.7991 161.117 70.8999 162.164C68.711 164.796 65.9904 166.935 62.9165 168.441C60.4844 169.56 57.9744 170.027 55.6676 169.461C54.1423 169.076 52.7579 168.265 51.6759 167.124C49.8173 165.215 48.2497 163.043 47.0232 160.678C46.0773 158.852 45.3341 156.929 44.8071 154.941C44.1861 152.642 43.8867 150.268 43.9172 147.887C43.9235 146.06 44.2495 144.248 44.8805 142.534C45.1893 141.716 45.6462 140.962 46.2284 140.309C52.3584 133.795 72.3298 141.458 75.2069 150.742C75.8852 152.928 75.06 155.892 73.3191 158.812Z" fill="white"></path><path opacity="0.2" d="M73.3189 158.812C72.6083 159.995 71.799 161.117 70.8997 162.164C70.8222 162.088 70.7384 162.019 70.6491 161.957C68.5885 160.536 67.2925 164.981 63.9056 162.169C60.5187 159.356 58.8469 153.097 56.7949 152.44C54.7429 151.783 54.2029 155.032 50.0168 153.827C48.2586 153.321 45.9776 150.729 43.917 147.887C43.9233 146.06 44.2493 144.248 44.8804 142.534C46.8632 145.48 49.4595 148.716 51.6066 149.239C55.6804 150.232 55.676 147.131 59.7498 148.051C63.8235 148.971 66.0397 157.499 68.2947 158.535C69.9018 159.27 70.9515 157.106 73.3189 158.812Z" fill="white"></path><path d="M60.5402 168.364C60.5402 168.364 61.2357 167.046 60.5402 165.875C59.8447 164.705 58.9418 164.273 59.7626 163.028C60.5834 161.784 58.4277 161.499 58.2247 160.328C58.0217 159.158 59.2226 159.058 58.2247 157.996C57.2268 156.933 56.6133 155.537 57.6329 154.596C57.6329 154.596 55.6716 155.775 56.1597 156.458C56.6479 157.14 56.8985 157.922 56.5701 158.285C56.2418 158.648 55.1057 160.48 56.082 161.132C57.0583 161.784 57.1015 163.292 56.514 164.255C55.9265 165.219 56.6349 166.057 57.4125 166.415C58.1901 166.774 58.026 168.977 58.026 168.977L60.5402 168.364Z" fill="#00A0AF"></path><path opacity="0.2" d="M60.5402 168.364C60.5402 168.364 61.2357 167.046 60.5402 165.875C59.8447 164.705 58.9418 164.273 59.7626 163.028C60.5834 161.784 58.4277 161.499 58.2247 160.328C58.0217 159.158 59.2226 159.058 58.2247 157.996C57.2268 156.933 56.6133 155.537 57.6329 154.596C57.6329 154.596 55.6716 155.775 56.1597 156.458C56.6479 157.14 56.8985 157.922 56.5701 158.285C56.2418 158.648 55.1057 160.48 56.082 161.132C57.0583 161.784 57.1015 163.292 56.514 164.255C55.9265 165.219 56.6349 166.057 57.4125 166.415C58.1901 166.774 58.026 168.977 58.026 168.977L60.5402 168.364Z" fill="white"></path><path d="M59.5166 168.364C59.6678 168.03 59.7395 167.666 59.726 167.3C59.7125 166.934 59.6142 166.577 59.4388 166.255C58.8782 165.729 58.5436 165.006 58.5057 164.238C58.5449 163.749 58.5449 163.258 58.5057 162.769C58.4236 162.272 58.0305 161.97 57.7065 161.603C57.5191 161.423 57.3712 161.206 57.2722 160.966C57.1733 160.725 57.1255 160.467 57.1319 160.207C57.1838 159.698 57.3911 159.248 57.4127 158.743C57.4665 158.25 57.3874 157.752 57.1838 157.3C57.4203 157.745 57.5351 158.244 57.5164 158.747C57.5164 159.244 57.322 159.737 57.2918 160.216C57.2931 160.453 57.3432 160.688 57.4391 160.905C57.535 161.122 57.6745 161.317 57.849 161.477C58.1817 161.84 58.6223 162.203 58.713 162.726C58.7519 163.226 58.7519 163.729 58.713 164.229C58.7459 164.966 59.0543 165.663 59.577 166.182C60.009 166.839 59.8449 167.698 59.5468 168.364H59.5166Z" fill="#00A0AF"></path><path d="M61.9315 168.363C61.9315 168.363 63.8798 167.322 63.5386 166.463C63.1973 165.603 61.8365 165.033 62.8862 164.134C63.936 163.236 64.2427 163.192 63.9058 162.168C63.5688 161.145 62.4499 160.574 63.5386 159.961C64.6272 159.348 64.0354 157.995 64.0354 157.995C64.0354 157.995 64.0354 158.894 63.5386 159.019C63.0418 159.144 61.6291 159.771 62.2426 160.777C62.856 161.784 60.8861 162.333 60.8602 163.395C60.8342 164.458 62.3117 165.417 61.5341 165.875C60.7565 166.333 60.359 167.746 60.6398 168.169C60.9206 168.592 61.9315 168.363 61.9315 168.363Z" fill="#00A0AF"></path><path opacity="0.3" d="M61.9315 168.363C61.9315 168.363 63.8798 167.322 63.5386 166.463C63.1973 165.603 61.8365 165.033 62.8862 164.134C63.936 163.236 64.2427 163.192 63.9058 162.168C63.5688 161.145 62.4499 160.574 63.5386 159.961C64.6272 159.348 64.0354 157.995 64.0354 157.995C64.0354 157.995 64.0354 158.894 63.5386 159.019C63.0418 159.144 61.6291 159.771 62.2426 160.777C62.856 161.784 60.8861 162.333 60.8602 163.395C60.8342 164.458 62.3117 165.417 61.5341 165.875C60.7565 166.333 60.359 167.746 60.6398 168.169C60.9206 168.592 61.9315 168.363 61.9315 168.363Z" fill="white"></path><path d="M61.6462 167.927C62.9422 166.929 62.4713 166.134 61.9097 164.882C61.8113 164.696 61.7513 164.492 61.7335 164.283C61.7157 164.074 61.7404 163.863 61.806 163.663C62.0183 163.324 62.2959 163.031 62.6225 162.799C63.4347 162.069 62.4238 160.929 62.8515 160.056C62.9499 159.878 63.1144 159.746 63.3094 159.689C63.121 159.759 62.9664 159.898 62.8774 160.078C62.5577 160.994 63.6204 162.169 62.7305 162.933C62.4264 163.16 62.1683 163.443 61.9702 163.767C61.859 164.119 61.8916 164.501 62.0609 164.83C62.6268 166.096 63.0459 167.068 61.6289 167.944L61.6462 167.927Z" fill="#00A0AF"></path><path d="M58.0433 168.986C58.0433 168.986 58.4753 166.735 56.9374 166.683C55.3994 166.631 54.0732 166.964 54.1985 165.875C54.3238 164.786 54.1985 163.905 53.3345 163.823C52.4705 163.741 51.6583 163.149 51.7793 162.722C51.9002 162.294 50.3062 161.793 50.3062 161.793C50.3062 161.793 51.2479 162.333 51.2047 162.985C51.1615 163.637 51.3689 164.177 52.3927 164.666C53.4166 165.154 52.3927 166.013 52.8852 166.998C53.3777 167.983 53.9954 167.936 55.1575 168.1C55.4858 168.143 55.7943 168.281 56.0447 168.497C56.2951 168.714 56.4763 168.999 56.5658 169.318L58.0433 168.986Z" fill="#00A0AF"></path><path opacity="0.3" d="M58.0433 168.986C58.0433 168.986 58.4753 166.735 56.9374 166.683C55.3994 166.631 54.0732 166.964 54.1985 165.875C54.3238 164.786 54.1985 163.905 53.3345 163.823C52.4705 163.741 51.6583 163.149 51.7793 162.722C51.9002 162.294 50.3062 161.793 50.3062 161.793C50.3062 161.793 51.2479 162.333 51.2047 162.985C51.1615 163.637 51.3689 164.177 52.3927 164.666C53.4166 165.154 52.3927 166.013 52.8852 166.998C53.3777 167.983 53.9954 167.936 55.1575 168.1C55.4858 168.143 55.7943 168.281 56.0447 168.497C56.2951 168.714 56.4763 168.999 56.5658 169.318L58.0433 168.986Z" fill="white"></path><path d="M57.1663 168.687C57.2246 168.613 57.266 168.527 57.2879 168.435C57.3098 168.343 57.3116 168.247 57.2931 168.155C57.2746 168.062 57.2364 167.974 57.181 167.898C57.1255 167.821 57.0542 167.758 56.9719 167.711C56.1079 167.162 55.0668 167.456 54.1121 167.279C54.0055 167.247 53.9074 167.192 53.8251 167.117C53.7428 167.043 53.6785 166.95 53.6369 166.847C53.382 166.056 53.4857 165.249 53.2783 164.523C53.1747 164.125 52.7988 164 52.4143 163.94C52.0299 163.879 51.5503 163.672 51.5935 163.218C51.7015 164.208 53.1055 163.469 53.4166 164.471C53.6715 165.218 53.5591 166.044 53.814 166.769C53.8415 166.848 53.8871 166.919 53.9472 166.977C54.0072 167.035 54.08 167.077 54.1596 167.102C55.1014 167.262 56.1771 167.033 57.0151 167.638C57.1004 167.693 57.1727 167.766 57.227 167.852C57.2812 167.937 57.3162 168.034 57.3293 168.135C57.3425 168.236 57.3335 168.338 57.3032 168.435C57.2728 168.532 57.2217 168.621 57.1534 168.696L57.1663 168.687Z" fill="#00A0AF"></path><path d="M62.9164 168.441C60.4843 169.56 57.9744 170.027 55.6675 169.461C55.9008 169.301 56.1556 169.132 56.4278 168.973C56.6982 168.815 56.9765 168.67 57.2616 168.541C57.5134 168.423 57.7769 168.331 58.0478 168.268H58.0996C58.2857 168.224 58.4795 168.224 58.6656 168.268C58.9608 168.353 59.2753 168.343 59.5641 168.238C59.9053 168.117 60.2303 167.955 60.5318 167.754C60.6225 167.703 60.7089 167.646 60.7953 167.59C61.1755 167.353 61.4908 167.158 61.7025 167.214C61.8683 167.282 62.0162 167.387 62.1345 167.521C62.2641 167.646 62.4067 167.81 62.5665 167.988C62.7264 168.165 62.7955 168.281 62.9164 168.441Z" fill="#00A0AF"></path><path opacity="0.6" d="M62.9164 168.441C60.4843 169.56 57.9744 170.027 55.6675 169.461C55.9008 169.301 56.1556 169.132 56.4278 168.973C56.6982 168.815 56.9765 168.67 57.2616 168.541C57.5134 168.423 57.7769 168.331 58.0478 168.268H58.0996C58.2857 168.224 58.4795 168.224 58.6656 168.268C58.9608 168.353 59.2753 168.343 59.5641 168.238C59.9053 168.117 60.2303 167.955 60.5318 167.754C60.6225 167.703 60.7089 167.646 60.7953 167.59C61.1755 167.353 61.4908 167.158 61.7025 167.214C61.8683 167.282 62.0162 167.387 62.1345 167.521C62.2641 167.646 62.4067 167.81 62.5665 167.988C62.7264 168.165 62.7955 168.281 62.9164 168.441Z" fill="white"></path><path d="M47.7704 153.459C47.7704 153.459 49.2565 151.032 49.6107 150.954C49.9649 150.876 50.3926 150.483 50.2976 150.379C50.2025 150.276 50.0946 150.103 49.7922 150.379C49.4898 150.656 49.0534 151.217 48.9282 151.049C48.8029 150.88 49.1485 150.263 49.2522 149.921C49.3558 149.58 49.9088 149.239 49.7662 148.997C49.7362 148.93 49.684 148.876 49.6186 148.844C49.5532 148.812 49.4787 148.803 49.4077 148.82C49.2878 149.05 49.1825 149.289 49.0923 149.532C48.9942 149.936 48.8385 150.323 48.6301 150.682C48.4789 150.803 48.3061 150.578 48.2499 150.211C48.1938 149.844 48.4141 149.308 48.2499 149.247C48.0858 149.187 47.5673 149.247 47.6667 149.459C47.7661 149.671 48.1981 149.891 48.0987 150.362C48.0243 150.646 47.968 150.935 47.9302 151.226C47.8616 151.224 47.794 151.208 47.7316 151.179C47.6692 151.15 47.6132 151.109 47.5669 151.059C47.5206 151.008 47.4849 150.948 47.462 150.884C47.4391 150.819 47.4294 150.75 47.4334 150.682C47.4372 150.35 47.3474 150.023 47.1742 149.74C47.1742 149.74 46.0467 149.498 46.7422 150.09C46.936 150.232 47.0835 150.429 47.1664 150.655C47.2494 150.881 47.2641 151.126 47.2088 151.36C47.1926 151.752 47.142 152.143 47.0576 152.526C47.0057 152.721 46.9393 152.912 46.8589 153.096L47.7704 153.459Z" fill="#00A0AF"></path><path d="M50.017 153.827C49.9263 154.721 49.0926 153.956 48.8593 155.17C48.626 156.384 47.2306 157.879 47.2436 159.689C47.2407 160.031 47.1656 160.368 47.0233 160.678C46.0773 158.853 45.3342 156.929 44.8071 154.941C45.079 154.408 45.1901 153.808 45.1268 153.213C44.9281 151.615 44.7207 150.755 46.0599 151.019C46.4508 151.107 46.8305 151.238 47.1918 151.412C47.6746 151.63 48.1397 151.886 48.5828 152.176C49.4122 152.751 50.0646 153.36 50.017 153.827Z" fill="#00A0AF"></path><path opacity="0.3" d="M50.017 153.827C49.9263 154.721 49.0926 153.956 48.8593 155.17C48.626 156.384 47.2306 157.879 47.2436 159.689C47.2407 160.031 47.1656 160.368 47.0233 160.678C46.0773 158.853 45.3342 156.929 44.8071 154.941C45.079 154.408 45.1901 153.808 45.1268 153.213C44.9281 151.615 44.7207 150.755 46.0599 151.019C46.4508 151.107 46.8305 151.238 47.1918 151.412C47.6746 151.63 48.1397 151.886 48.5828 152.176C49.4122 152.751 50.0646 153.36 50.017 153.827Z" fill="white"></path><path d="M57.0239 150.461C57.2042 151.306 57.5688 152.1 58.0915 152.787C58.6143 153.474 59.2823 154.037 60.0479 154.436C60.0479 154.436 59.5684 152.228 60.0479 151.243C60.5274 150.258 57.0239 150.461 57.0239 150.461Z" fill="#00A0AF"></path><path opacity="0.2" d="M57.0239 150.461C57.2042 151.306 57.5688 152.1 58.0915 152.787C58.6143 153.474 59.2823 154.037 60.0479 154.436C60.0479 154.436 59.5684 152.228 60.0479 151.243C60.5274 150.258 57.0239 150.461 57.0239 150.461Z" fill="white"></path><path d="M59.5684 143.502C59.5684 143.502 60.8644 141.631 62.9984 142.107C62.9984 142.107 61.8796 144.267 61.9832 145.506C62.0869 146.746 59.5684 143.502 59.5684 143.502Z" fill="#00A0AF"></path><path opacity="0.2" d="M59.5684 143.502C59.5684 143.502 60.8644 141.631 62.9984 142.107C62.9984 142.107 61.8796 144.267 61.9832 145.506C62.0869 146.746 59.5684 143.502 59.5684 143.502Z" fill="white"></path><path d="M70.2345 148.072C68.5983 148.23 67.0649 148.942 65.8886 150.09C65.8886 150.09 63.6768 147.273 62.4326 145.606C60.3158 142.789 57.4387 141.813 55.2312 142.422C54.0133 142.713 52.9239 143.394 52.1294 144.361C52.1294 144.361 52.596 148.578 56.3457 150.634C60.0955 152.69 65.6424 151.554 65.6424 151.554C65.6424 151.554 66.2515 154.427 67.8499 155.157C67.8499 155.157 67.6468 152.66 68.1307 151.999C68.6145 151.338 70.2345 148.072 70.2345 148.072Z" fill="#00A0AF"></path><path opacity="0.2" d="M58.7777 146.172C58.4537 148.504 57.0281 149.93 55.6803 150.232C52.531 148.072 52.1206 144.362 52.1206 144.362C52.9152 143.394 54.0045 142.713 55.2224 142.422C56.2185 142.164 57.2675 142.196 58.2464 142.513C58.7609 143.659 58.945 144.926 58.7777 146.172Z" fill="white"></path><path d="M56.2811 144.288C56.2811 144.5 56.1601 144.673 56.0046 144.673C55.8491 144.673 55.7324 144.5 55.7324 144.288C55.7324 144.076 55.8534 143.904 56.0046 143.904C56.1558 143.904 56.2811 144.085 56.2811 144.288Z" fill="#263238"></path><path opacity="0.2" d="M58.9592 146.241C58.9592 146.241 59.8837 146.331 60.091 146.556C60.2984 146.781 60.1817 147.895 59.7497 148.051C59.3177 148.206 58.687 147.239 58.687 147.239C58.8124 146.916 58.9036 146.582 58.9592 146.241Z" fill="black"></path><path opacity="0.2" d="M68.1219 151.999C67.638 152.66 67.8411 155.157 67.8411 155.157C67.1024 154.544 65.4132 152.038 66.1131 150.587C66.8129 149.135 70.2344 148.073 70.2344 148.073C70.2344 148.073 68.6057 151.334 68.1219 151.999Z" fill="black"></path><path d="M175.413 155.753H143.031V162.669H175.413V155.753Z" fill="#00A0AF"></path><path opacity="0.9" d="M175.413 155.753H143.031V162.669H175.413V155.753Z" fill="white"></path><path opacity="0.2" d="M175.413 161.464L151.913 161.019H175.413V161.464Z" fill="black"></path><path opacity="0.2" d="M175.413 158.73L161.654 158.285H175.413V158.73Z" fill="black"></path><path opacity="0.2" d="M175.413 157.231L151.913 156.781H175.413V157.231Z" fill="black"></path><path opacity="0.2" d="M150.643 157.943C150.742 158.358 150.795 158.783 150.802 159.209L173.361 159.507L150.69 159.792C150.615 160.538 150.422 161.267 150.12 161.952C150.12 161.952 148.979 156.371 149.891 156.768C150.059 156.866 150.205 156.997 150.321 157.153C150.437 157.309 150.52 157.487 150.565 157.675L164.22 157.93L150.643 157.943Z" fill="black"></path><path d="M159.157 162.268H176.437V163.132H132.732L132.512 162.6C132.065 161.527 131.834 160.376 131.834 159.214C131.834 158.051 132.065 156.9 132.512 155.827L132.732 155.291H176.446V156.155H150.599C150.197 157.124 149.991 158.162 149.991 159.211C149.991 160.26 150.197 161.299 150.599 162.268H159.157Z" fill="#00A0AF"></path><path opacity="0.4" d="M159.157 162.268H176.437V163.132H132.732L132.512 162.6C132.065 161.527 131.834 160.376 131.834 159.214C131.834 158.051 132.065 156.9 132.512 155.827L132.732 155.291H176.446V156.155H150.599C150.197 157.124 149.991 158.162 149.991 159.211C149.991 160.26 150.197 161.299 150.599 162.268H159.157Z" fill="white"></path><path opacity="0.2" d="M150.599 162.268C150.197 161.299 149.99 160.26 149.99 159.211C149.99 158.162 150.197 157.124 150.599 156.155H176.446V155.291H150.021L149.8 155.827C149.353 156.9 149.123 158.051 149.123 159.214C149.123 160.376 149.353 161.527 149.8 162.6L150.021 163.132H176.446V162.268H150.599Z" fill="black"></path><path opacity="0.4" d="M146.102 161.447C146.968 161.447 147.67 160.445 147.67 159.209C147.67 157.973 146.968 156.971 146.102 156.971C145.236 156.971 144.534 157.973 144.534 159.209C144.534 160.445 145.236 161.447 146.102 161.447Z" fill="white"></path><path d="M136.469 170.51H164.531V163.594H136.469V170.51Z" fill="#00A0AF"></path><path opacity="0.9" d="M136.469 170.51H164.531V163.594H136.469V170.51Z" fill="white"></path><path opacity="0.2" d="M136.469 169.305L155.645 168.86H136.469V169.305Z" fill="black"></path><path opacity="0.2" d="M136.469 166.57L150.228 166.125H136.469V166.57Z" fill="black"></path><path opacity="0.2" d="M136.469 165.071L155.645 164.626H136.469V165.071Z" fill="black"></path><path opacity="0.2" d="M156.915 165.784C156.816 166.2 156.762 166.626 156.755 167.054L138.521 167.352L156.868 167.637C156.943 168.383 157.136 169.112 157.438 169.797C157.438 169.797 158.578 164.212 157.667 164.613C157.499 164.711 157.354 164.841 157.238 164.996C157.122 165.151 157.039 165.328 156.993 165.516L147.662 165.771L156.915 165.784Z" fill="black"></path><path d="M152.725 170.109H135.445V170.973H179.15L179.37 170.441C179.817 169.368 180.048 168.217 180.048 167.054C180.048 165.892 179.817 164.741 179.37 163.668L179.15 163.132H135.436V163.996H156.958C157.36 164.965 157.567 166.003 157.567 167.052C157.567 168.101 157.36 169.14 156.958 170.109H152.725Z" fill="#263238"></path><path opacity="0.4" d="M152.725 170.109H135.445V170.973H179.15L179.37 170.441C179.817 169.368 180.048 168.217 180.048 167.054C180.048 165.892 179.817 164.741 179.37 163.668L179.15 163.132H135.436V163.996H156.958C157.36 164.965 157.567 166.003 157.567 167.052C157.567 168.101 157.36 169.14 156.958 170.109H152.725Z" fill="white"></path><path opacity="0.2" d="M156.958 170.109C157.36 169.14 157.567 168.101 157.567 167.052C157.567 166.003 157.36 164.965 156.958 163.996H135.436V163.132H157.537L157.757 163.668C158.204 164.741 158.435 165.892 158.435 167.054C158.435 168.217 158.204 169.368 157.757 170.441L157.537 170.973H135.436V170.109H156.958Z" fill="black"></path><path opacity="0.2" d="M161.058 168.333H178.105V165.771H161.058V168.333Z" fill="black"></path><path d="M174.109 171.435H146.046V178.351H174.109V171.435Z" fill="#00A0AF"></path><path opacity="0.9" d="M174.109 171.435H146.046V178.351H174.109V171.435Z" fill="white"></path><path opacity="0.2" d="M174.104 172.64L154.932 173.085H174.104V172.64Z" fill="black"></path><path opacity="0.2" d="M174.104 175.37L160.35 175.82H174.104V175.37Z" fill="black"></path><path opacity="0.2" d="M174.104 176.874L154.932 177.319H174.104V176.874Z" fill="black"></path><path opacity="0.2" d="M153.658 176.161C153.757 175.745 153.811 175.319 153.818 174.891L172.057 174.593L153.706 174.308C153.63 173.562 153.438 172.833 153.135 172.148C153.135 172.148 151.995 177.729 152.906 177.332C153.074 177.235 153.221 177.105 153.337 176.95C153.453 176.795 153.536 176.617 153.58 176.429L162.912 176.174L153.658 176.161Z" fill="black"></path><path d="M157.848 171.837H175.128V170.973H131.423L131.203 171.504C130.756 172.577 130.525 173.728 130.525 174.891C130.525 176.053 130.756 177.205 131.203 178.278L131.423 178.813H175.141V177.949H153.615C153.213 176.981 153.006 175.942 153.006 174.893C153.006 173.844 153.213 172.805 153.615 171.837H157.848Z" fill="#00A0AF"></path><path opacity="0.4" d="M135.959 171.504L136.179 170.973H131.427L131.207 171.504C130.76 172.577 130.53 173.728 130.53 174.891C130.53 176.053 130.76 177.205 131.207 178.278L131.427 178.813H136.179L135.959 178.278C135.512 177.205 135.282 176.053 135.282 174.891C135.282 173.728 135.512 172.577 135.959 171.504Z" fill="white"></path><path opacity="0.2" d="M153.615 171.837C153.213 172.805 153.006 173.844 153.006 174.893C153.006 175.942 153.213 176.981 153.615 177.949H175.141V178.813H153.036L152.815 178.278C152.368 177.205 152.138 176.053 152.138 174.891C152.138 173.728 152.368 172.577 152.815 171.504L153.036 170.973H175.141V171.837H153.615Z" fill="black"></path><path d="M178.649 147.882H150.586V154.798H178.649V147.882Z" fill="#00A0AF"></path><path opacity="0.9" d="M178.649 147.882H150.586V154.798H178.649V147.882Z" fill="white"></path><path opacity="0.2" d="M178.649 149.087L159.473 149.537H178.649V149.087Z" fill="black"></path><path opacity="0.2" d="M178.649 151.822L164.89 152.271H178.649V151.822Z" fill="black"></path><path opacity="0.2" d="M178.649 153.325L159.473 153.77H178.649V153.325Z" fill="black"></path><path opacity="0.2" d="M158.198 152.613C158.297 152.196 158.351 151.77 158.358 151.342L176.597 151.044L158.246 150.768C158.17 150.022 157.978 149.293 157.675 148.608C157.675 148.608 156.535 154.189 157.446 153.792C157.615 153.694 157.762 153.564 157.879 153.408C157.995 153.252 158.079 153.074 158.125 152.885L167.452 152.634L158.198 152.613Z" fill="black"></path><path d="M162.389 148.284H179.669V147.42H135.963L135.743 147.956C135.296 149.029 135.066 150.18 135.066 151.342C135.066 152.505 135.296 153.656 135.743 154.729L135.963 155.265H179.682V154.401H158.155C157.753 153.431 157.546 152.392 157.546 151.342C157.546 150.293 157.753 149.253 158.155 148.284H162.389Z" fill="#263238"></path><path opacity="0.2" d="M158.155 148.284C157.753 149.253 157.546 150.293 157.546 151.342C157.546 152.392 157.753 153.431 158.155 154.401H179.682V155.265H157.576L157.356 154.729C156.909 153.656 156.679 152.505 156.679 151.342C156.679 150.18 156.909 149.029 157.356 147.956L157.576 147.42H179.682V148.284H158.155Z" fill="white"></path><path d="M71.224 134.62L69.1201 137.756L72.1225 139.134C72.1225 139.134 73.9024 137.151 72.9088 135.186L71.224 134.62Z" fill="#EEC1BB"></path><path d="M68.8394 140.43L71.3234 140.923L72.1182 139.134L69.1158 137.756L68.8394 140.43Z" fill="#EEC1BB"></path><path d="M75.3236 118.368C76.365 119.722 77.2627 121.182 78.002 122.722C78.8098 124.515 79.4924 126.157 79.3628 128.338C79.0172 131.725 75.1594 134.758 72.5328 136.512C72.3076 136.65 72.0414 136.705 71.7797 136.669C71.518 136.633 71.2771 136.506 71.0981 136.312C70.9191 136.118 70.8131 135.867 70.7982 135.604C70.7833 135.34 70.8605 135.079 71.0165 134.866C72.494 132.844 74.2609 130.887 75.1421 128.585C75.198 128.43 75.2187 128.265 75.2026 128.101C75.1497 127.58 75.0231 127.07 74.8268 126.584C74.0794 124.658 72.8309 122.761 71.6559 121.029C70.092 118.579 73.4876 116.134 75.3236 118.376V118.368Z" fill="#EBC0BB"></path><path d="M76.5463 118.005C77.5442 119.361 78.5335 121.409 79.4018 124.425L74.7924 127.353C74.7924 127.353 72.5287 123.107 71.5049 121.422L71.4574 121.34C69.5522 118.065 74.3042 114.955 76.5463 118.005Z" fill="#00A0AF"></path><path d="M64.61 103.477L63.5041 105.17C63.0816 104.902 62.7503 104.512 62.5537 104.051C63.2685 103.987 63.9654 103.792 64.61 103.477Z" fill="#ED847E"></path><path d="M64.9599 102.816C64.7784 103.218 64.4112 103.451 64.1477 103.326C63.8842 103.2 63.828 102.777 64.0138 102.375C64.1996 101.973 64.5581 101.753 64.826 101.87C65.0938 101.986 65.1456 102.384 64.9599 102.816Z" fill="#263238"></path><path d="M64.7527 100.993C64.7419 100.95 64.7419 100.906 64.7527 100.863C64.7755 100.814 64.816 100.774 64.8663 100.752C64.9166 100.731 64.9731 100.729 65.0249 100.747C65.3351 100.862 65.6128 101.05 65.8341 101.296C66.0553 101.542 66.2135 101.839 66.295 102.159C66.3052 102.214 66.2937 102.27 66.2631 102.316C66.2324 102.362 66.1849 102.394 66.1308 102.406C66.0774 102.412 66.0233 102.4 65.9787 102.369C65.9341 102.339 65.9022 102.294 65.8889 102.241C65.8183 101.987 65.6872 101.753 65.5066 101.561C65.326 101.368 65.1014 101.222 64.8521 101.135C64.8018 101.102 64.7662 101.051 64.7527 100.993Z" fill="#263238"></path><path d="M77.1986 106.968C76.1316 109.093 74.3042 111.076 72.33 112.018C71.3524 112.53 70.2312 112.699 69.1462 112.497C67.9128 112.26 66.71 111.884 65.5605 111.378C62.9988 110.182 62.3422 108.428 63.0809 105.481C63.9708 101.861 67.4009 96.9711 72.0406 97.7271C76.6802 98.4831 79.458 102.457 77.1986 106.968Z" fill="#EEC1BB"></path><path d="M77.5007 99.6018C76.8271 98.3696 75.8812 97.3074 74.7351 96.4959C73.589 95.6844 72.2728 95.1451 70.8868 94.919C66.1348 94.163 65.8151 98.9625 66.1132 100.103L66.7569 98.902C66.6611 99.7654 66.7869 100.639 67.1225 101.44C67.4581 102.241 67.9924 102.944 68.675 103.481C71.0467 105.408 77.5007 99.6018 77.5007 99.6018Z" fill="#263238"></path><path opacity="0.2" d="M72.33 112.018C71.3524 112.53 70.2312 112.699 69.1461 112.497C67.9128 112.26 66.71 111.884 65.5605 111.378C66.6274 111.069 67.746 110.981 68.8481 111.119C70.0566 111.186 71.2399 111.492 72.33 112.018Z" fill="black"></path><path d="M73.7639 96.336C70.1135 94.9061 66.4674 96.457 67.6857 98.7164C67.9681 98.9765 68.2699 99.2148 68.5886 99.4292C67.7246 100.626 67.3833 102.427 68.8218 105.045C69.8327 106.89 69.6599 111.555 69.6599 111.555L72.5889 112.285C72.5889 112.285 75.9369 112.847 79.1942 106.389C81.5659 101.667 78.1271 98.0381 73.7639 96.336Z" fill="#263238"></path><path d="M69.2581 105.261C69.2581 105.261 71.0293 103.598 71.8069 104.704C72.5845 105.81 70.8868 109.127 69.3143 108.445C67.7418 107.762 68.0701 106.052 69.2581 105.261Z" fill="#EEC1BB"></path><path d="M66.6621 111.724C66.6348 112.081 66.5368 112.429 66.3736 112.748C66.2104 113.067 65.9854 113.35 65.7117 113.581C65.6167 113.659 65.513 113.737 65.405 113.81C65.2356 113.915 65.0595 114.009 64.8779 114.091C65.2308 114.996 65.7014 115.85 66.2776 116.631C67.2206 116.615 68.1615 116.537 69.0943 116.398C69.7493 116.311 70.3936 116.156 71.0167 115.936C71.0167 115.936 70.3816 114.242 71.6776 112.108C72.0059 111.559 69.7898 110.834 69.0597 110.791C68.2541 110.848 67.454 110.966 66.6664 111.145C66.6664 111.145 66.7571 110.721 66.6621 111.724Z" fill="#EEC1BB"></path><path d="M71.051 117.867L69.755 116.804L65.2363 118.1L64.2945 114.609L62.3765 114.756C63.356 113.913 64.554 113.365 65.8321 113.174C67.1102 112.983 68.4162 113.157 69.5995 113.676C73.764 115.478 71.051 117.867 71.051 117.867Z" fill="#00A0AF"></path><path d="M75.8765 120.096C75.4125 121.956 75.0677 123.843 74.844 125.746C74.5179 128.435 74.3304 131.139 74.2824 133.846C74.2824 134.227 74.2824 134.438 74.2824 134.438L55.499 134.395C55.7798 131.976 56.2118 129.565 56.7043 127.284C57.0197 125.803 57.3609 124.381 57.7065 123.059C57.8534 122.506 57.996 121.971 58.1385 121.457C58.3805 120.571 58.6224 119.729 58.847 118.981C59.711 116.07 60.3979 114.229 60.3979 114.229C60.3979 114.229 63.4219 113.365 69.2453 114.661C70.9747 115.02 72.6504 115.6 74.2305 116.389C74.8783 116.736 75.3918 117.289 75.69 117.96C75.9881 118.631 76.0537 119.383 75.8765 120.096Z" fill="#00A0AF"></path><path opacity="0.7" d="M74.2693 134.43L55.4902 134.386C55.771 131.967 56.203 129.557 56.6912 127.28C56.9029 126.295 57.1232 125.34 57.3478 124.429C57.4602 123.958 57.5811 123.5 57.6934 123.051C57.7928 122.692 57.8878 122.338 57.9786 121.997C58.0304 121.811 58.0779 121.625 58.1298 121.448C58.3717 120.562 58.6136 119.72 58.8339 118.973C59.6979 116.061 60.3891 114.221 60.3891 114.221C60.3891 114.221 63.4131 113.357 69.2365 114.653C70.9659 115.011 72.6416 115.592 74.2218 116.381C74.878 116.727 75.3983 117.285 75.6985 117.964C75.9987 118.643 76.0614 119.403 75.8763 120.122C75.412 121.983 75.0671 123.872 74.8438 125.777C74.5154 128.464 74.3279 131.166 74.2822 133.872C74.2736 134.218 74.2693 134.43 74.2693 134.43Z" fill="white"></path><path d="M72.8135 146.655C71.7033 155.503 74.589 177.072 74.589 177.072L71.9149 176.619C71.9149 176.619 66.2601 155.999 66.0225 143.709L72.8135 146.655Z" fill="#EEC1BB"></path><path d="M69.0248 175.69C68.9693 175.635 68.9299 175.565 68.9108 175.489C68.8918 175.413 68.8939 175.333 68.9168 175.258C68.9237 175.207 68.9437 175.159 68.9747 175.118C69.0058 175.077 69.0468 175.045 69.0939 175.025C69.5259 174.852 70.5022 175.496 70.6146 175.569C70.6269 175.579 70.6365 175.591 70.6426 175.606C70.6487 175.62 70.6509 175.636 70.6491 175.651C70.6466 175.666 70.6394 175.68 70.6286 175.691C70.6177 175.702 70.6038 175.709 70.5886 175.712C70.2895 175.793 69.9824 175.842 69.6728 175.858C69.4434 175.885 69.2123 175.825 69.0248 175.69ZM69.1544 175.176C69.1325 175.187 69.1134 175.203 69.0985 175.222C69.0835 175.242 69.0731 175.264 69.068 175.288C69.0534 175.337 69.0517 175.389 69.063 175.439C69.0744 175.489 69.0984 175.535 69.1328 175.573C69.297 175.729 69.7506 175.738 70.364 175.604C69.9579 175.357 69.379 175.081 69.1544 175.172V175.176Z" fill="#00A0AF"></path><path d="M69.647 174.58C69.6598 174.5 69.695 174.425 69.7484 174.364C69.8019 174.302 69.8716 174.258 69.9494 174.234C69.9942 174.209 70.0448 174.196 70.0962 174.196C70.1477 174.196 70.1983 174.209 70.2431 174.234C70.6233 174.476 70.6751 175.656 70.6751 175.789C70.6745 175.805 70.6697 175.82 70.6614 175.833C70.653 175.846 70.6414 175.856 70.6276 175.863C70.6155 175.871 70.6012 175.875 70.5866 175.875C70.572 175.875 70.5577 175.871 70.5455 175.863C70.3048 175.667 70.0861 175.445 69.8932 175.202C69.7378 175.032 69.6501 174.81 69.647 174.58ZM70.1438 174.39C70.1218 174.378 70.0974 174.372 70.0725 174.372C70.0476 174.372 70.0231 174.378 70.0012 174.39C69.9531 174.406 69.9099 174.435 69.8759 174.472C69.8419 174.51 69.8181 174.556 69.8068 174.606C69.7766 174.835 70.0315 175.206 70.498 175.625C70.4591 175.154 70.3511 174.524 70.1438 174.394V174.39Z" fill="#00A0AF"></path><path d="M71.0511 175.198L74.7447 175.141C74.8125 175.143 74.8785 175.164 74.9344 175.202C74.9904 175.241 75.0341 175.295 75.06 175.357L76.2091 178.23C76.2401 178.293 76.2541 178.363 76.2498 178.432C76.2455 178.502 76.223 178.57 76.1846 178.628C76.1462 178.687 76.0932 178.734 76.0308 178.766C75.9684 178.798 75.8989 178.812 75.829 178.809C74.533 178.809 73.8936 178.744 72.265 178.753C70.8065 178.832 69.3443 178.811 67.8888 178.688C66.4546 178.494 66.2602 177.172 66.8477 177.137C68.2364 176.97 69.5337 176.358 70.5456 175.392C70.6123 175.327 70.6915 175.276 70.7784 175.243C70.8653 175.209 70.958 175.194 71.0511 175.198Z" fill="#263238"></path><path d="M61.1799 146.975C59.2273 155.675 60.0308 177.418 60.0308 177.418L57.4129 176.714C57.4129 176.714 53.7582 155.645 54.7043 143.389L61.1799 146.975Z" fill="#EEC1BB"></path><path d="M54.7601 175.69C54.7046 175.635 54.6652 175.565 54.6462 175.489C54.6272 175.413 54.6292 175.333 54.6521 175.258C54.6591 175.207 54.679 175.159 54.7101 175.118C54.7411 175.077 54.7822 175.045 54.8293 175.025C55.2613 174.852 56.2376 175.496 56.3499 175.569C56.3622 175.579 56.3719 175.591 56.378 175.606C56.384 175.62 56.3863 175.636 56.3845 175.651C56.382 175.666 56.3748 175.68 56.3639 175.691C56.3531 175.702 56.3391 175.709 56.324 175.712C56.0248 175.793 55.7178 175.842 55.4081 175.858C55.1787 175.885 54.9477 175.825 54.7601 175.69ZM54.8941 175.176C54.8712 175.186 54.8511 175.202 54.8353 175.221C54.8195 175.241 54.8086 175.264 54.8033 175.288C54.7887 175.337 54.787 175.389 54.7984 175.439C54.8097 175.489 54.8338 175.535 54.8681 175.573C55.0323 175.729 55.4859 175.738 56.0993 175.604C55.6933 175.357 55.1144 175.081 54.8941 175.172V175.176Z" fill="#00A0AF"></path><path d="M55.3823 174.58C55.3951 174.5 55.4303 174.425 55.4838 174.364C55.5373 174.302 55.6069 174.258 55.6847 174.234C55.7295 174.209 55.7801 174.196 55.8316 174.196C55.8831 174.196 55.9337 174.209 55.9785 174.234C56.3586 174.476 56.4105 175.656 56.4105 175.789C56.4098 175.805 56.4051 175.82 56.3967 175.833C56.3884 175.846 56.3767 175.856 56.363 175.863C56.3508 175.871 56.3365 175.875 56.3219 175.875C56.3073 175.875 56.293 175.871 56.2809 175.863C56.0402 175.667 55.8214 175.445 55.6286 175.202C55.4731 175.032 55.3855 174.81 55.3823 174.58ZM55.8791 174.39C55.8572 174.378 55.8327 174.372 55.8078 174.372C55.783 174.372 55.7585 174.378 55.7366 174.39C55.6884 174.406 55.6453 174.435 55.6113 174.472C55.5772 174.51 55.5535 174.556 55.5422 174.606C55.5119 174.835 55.7668 175.206 56.2334 175.625C56.1945 175.154 56.0865 174.524 55.8791 174.394V174.39Z" fill="#00A0AF"></path><path d="M56.7864 175.198L60.48 175.141C60.5479 175.143 60.6138 175.164 60.6698 175.202C60.7258 175.241 60.7694 175.295 60.7954 175.357L61.9445 178.23C61.9754 178.293 61.9894 178.363 61.9851 178.432C61.9808 178.502 61.9584 178.57 61.92 178.628C61.8815 178.687 61.8285 178.734 61.7662 178.766C61.7038 178.798 61.6342 178.812 61.5643 178.809C60.2683 178.809 59.629 178.744 58.0003 178.753C56.5419 178.832 55.0797 178.811 53.6242 178.688C52.1899 178.494 51.9955 177.172 52.5831 177.137C53.9708 176.968 55.2664 176.354 56.2767 175.388C56.3442 175.323 56.4243 175.273 56.5119 175.24C56.5996 175.207 56.693 175.193 56.7864 175.198Z" fill="#263238"></path><path d="M55.4904 133.194L74.2694 134.43L73.5393 153.947L65.1326 154.207L64.4587 149.135L63.1282 154.224L53.8142 153.278C53.8142 153.278 52.9848 145.389 55.4904 133.194Z" fill="#263238"></path><path d="M50.4966 105.957L49.0278 102.475L46.2241 104.229C46.2241 104.229 46.9067 106.821 49.0926 107.054L50.4966 105.957Z" fill="#EEC1BB"></path><path d="M46.9454 100.777L45.1699 102.583L46.2283 104.229L49.0277 102.475L46.9454 100.777Z" fill="#EEC1BB"></path><path d="M61.8367 118.307C60.1327 118.433 58.4201 118.384 56.7261 118.16C54.7865 117.849 53.0412 117.521 51.2916 116.216C48.6477 114.056 48.2373 109.196 48.2114 106.026C48.2167 105.761 48.3144 105.506 48.4877 105.305C48.6611 105.105 48.8991 104.971 49.1606 104.927C49.4221 104.884 49.6906 104.933 49.9196 105.066C50.1486 105.2 50.3237 105.409 50.4146 105.658C51.2786 108 51.9612 110.553 53.4041 112.57C53.5014 112.702 53.6287 112.809 53.7756 112.881C54.2385 113.126 54.7349 113.3 55.2487 113.4C57.2705 113.832 59.5428 113.832 61.6337 113.797C64.541 113.836 64.7225 118.014 61.8367 118.32V118.307Z" fill="#EBC0BB"></path><path d="M61.4647 119.521C59.7843 119.616 57.5292 119.318 54.5527 118.389L54.6305 112.929C54.6305 112.929 59.4214 113.361 61.3913 113.434H61.4907C65.2577 113.637 65.2318 119.314 61.4647 119.521Z" fill="#00A0AF"></path><path opacity="0.2" d="M55.4904 133.194L74.2694 134.43L73.5393 153.947L65.1326 154.207L64.4587 149.135L63.1282 154.224L53.8142 153.278C53.8142 153.278 52.9848 145.389 55.4904 133.194Z" fill="white"></path><path opacity="0.2" d="M64.4585 149.135L65.1756 146.469C65.1756 146.469 68.0225 145.575 68.9427 144.417C68.9427 144.417 68.7353 148.746 64.4585 149.135Z" fill="black"></path></svg>