<svg xmlns="http://www.w3.org/2000/svg" width="216" height="216" viewBox="0 0 216 216" fill="none"><path d="M216 165.197H0V165.305H216V165.197Z" fill="#EBEBEB"></path><path d="M194.357 172.148H180.049V172.256H194.357V172.148Z" fill="#EBEBEB"></path><path d="M143.087 173.323H139.333V173.431H143.087V173.323Z" fill="#EBEBEB"></path><path d="M179.617 168.139H171.327V168.247H179.617V168.139Z" fill="#EBEBEB"></path><path d="M41.3207 168.865H22.6626V168.973H41.3207V168.865Z" fill="#EBEBEB"></path><path d="M47.9045 168.865H45.1699V168.973H47.9045V168.865Z" fill="#EBEBEB"></path><path d="M97.2647 170.688H56.7949V170.796H97.2647V170.688Z" fill="#EBEBEB"></path><path d="M102.384 145.93H18.9692C18.3158 145.928 17.6895 145.668 17.2278 145.206C16.7661 144.743 16.5068 144.116 16.5068 143.463V26.2051C16.5125 25.5554 16.7743 24.9342 17.2354 24.4764C17.6964 24.0185 18.3195 23.7611 18.9692 23.76H102.384C103.038 23.76 103.666 24.0199 104.128 24.4825C104.591 24.9451 104.851 25.5725 104.851 26.2267V143.463C104.851 144.117 104.591 144.745 104.128 145.207C103.666 145.67 103.038 145.93 102.384 145.93ZM18.9692 23.8464C18.3444 23.8476 17.7456 24.0966 17.3042 24.5388C16.8627 24.981 16.6148 25.5803 16.6148 26.2051V143.463C16.6148 144.088 16.8627 144.687 17.3042 145.129C17.7456 145.571 18.3444 145.82 18.9692 145.822H102.384C103.009 145.82 103.609 145.572 104.051 145.129C104.493 144.687 104.742 144.088 104.743 143.463V26.2051C104.742 25.5799 104.493 24.9806 104.051 24.5385C103.609 24.0964 103.009 23.8476 102.384 23.8464H18.9692Z" fill="#EBEBEB"></path><path d="M195.83 145.93H112.411C111.757 145.928 111.13 145.668 110.668 145.206C110.205 144.744 109.945 144.117 109.944 143.463V26.2051C109.951 25.555 110.213 24.9338 110.675 24.4761C111.137 24.0184 111.76 23.7611 112.411 23.76H195.83C196.479 23.7623 197.101 24.0202 197.561 24.4779C198.021 24.9356 198.282 25.5562 198.288 26.2051V143.463C198.288 144.116 198.029 144.742 197.568 145.204C197.108 145.666 196.482 145.927 195.83 145.93ZM112.411 23.8464C111.785 23.8476 111.186 24.0964 110.744 24.5385C110.302 24.9806 110.053 25.5799 110.052 26.2051V143.463C110.053 144.088 110.302 144.687 110.744 145.129C111.186 145.572 111.785 145.82 112.411 145.822H195.83C196.455 145.82 197.054 145.572 197.496 145.129C197.938 144.687 198.187 144.088 198.188 143.463V26.2051C198.187 25.5799 197.938 24.9806 197.496 24.5385C197.054 24.0964 196.455 23.8476 195.83 23.8464H112.411Z" fill="#EBEBEB"></path><path d="M142.81 53.1035C146.783 49.1305 146.783 42.6889 142.81 38.7158C138.837 34.7428 132.395 34.7428 128.422 38.7159C124.449 42.6889 124.449 49.1305 128.422 53.1035C132.395 57.0765 138.837 57.0765 142.81 53.1035Z" fill="#E0E0E0"></path><path d="M140.368 53.1393C144.363 50.5156 145.474 45.1506 142.85 41.1564C140.226 37.1622 134.861 36.0511 130.867 38.6749C126.873 41.2986 125.762 46.6635 128.385 50.6577C131.009 54.652 136.374 55.763 140.368 53.1393Z" fill="#F0F0F0"></path><path d="M136.024 39.9773V46.0253L140.033 43.7573" fill="#F0F0F0"></path><path d="M136.024 46.4574C135.909 46.4574 135.799 46.4119 135.718 46.3309C135.637 46.2499 135.592 46.14 135.592 46.0254V39.9774C135.592 39.8628 135.637 39.753 135.718 39.6719C135.799 39.5909 135.909 39.5454 136.024 39.5454C136.138 39.5454 136.248 39.5909 136.329 39.6719C136.41 39.753 136.456 39.8628 136.456 39.9774V45.2824L139.821 43.3816C139.92 43.3252 140.038 43.3104 140.148 43.3404C140.258 43.3703 140.352 43.4426 140.409 43.5414C140.437 43.591 140.455 43.6457 140.462 43.7023C140.469 43.759 140.465 43.8165 140.45 43.8716C140.435 43.9266 140.409 43.9781 140.373 44.023C140.338 44.0679 140.294 44.1054 140.244 44.1333L136.235 46.4013C136.171 46.437 136.098 46.4563 136.024 46.4574Z" fill="#E0E0E0"></path><path d="M95.3253 53.3953H35.6445V106.816H95.3253V53.3953Z" fill="#E6E6E6"></path><path d="M93.1523 55.512H37.5063V104.812H93.1523V55.512Z" fill="#F0F0F0"></path><path d="M55.6329 55.512L45.6019 104.812H40.4697L50.4748 55.512H55.6329Z" fill="#FAFAFA"></path><path d="M59.8794 55.512L49.857 104.812H47.9648L57.9916 55.512H59.8794Z" fill="#FAFAFA"></path><path d="M82.3737 68.4937L74.9908 104.812H73.0986L82.3737 59.197V68.4937Z" fill="#FAFAFA"></path><path d="M76.6152 55.512H81.7042L71.7552 104.812H66.5972L76.6152 55.512Z" fill="#FAFAFA"></path><path d="M65.5083 53.3953H64.2036V106.816H65.5083V53.3953Z" fill="#E6E6E6"></path><path d="M184.896 37.8303H156.112V55.5121H184.896V37.8303Z" fill="#E6E6E6"></path><path d="M182.839 39.4417H158.168V53.8964H182.839V39.4417Z" fill="#FAFAFA"></path><path d="M180.269 42.1763H160.734V42.82H180.269V42.1763Z" fill="#E6E6E6"></path><path d="M180.269 44.3103H160.734V44.954H180.269V44.3103Z" fill="#E6E6E6"></path><path d="M180.269 48.3884H160.734V49.0321H180.269V48.3884Z" fill="#E6E6E6"></path><path d="M180.269 50.5225H160.734V51.1661H180.269V50.5225Z" fill="#E6E6E6"></path><path d="M108 184.706C154.26 184.706 191.761 182.517 191.761 179.816C191.761 177.115 154.26 174.926 108 174.926C61.7406 174.926 24.2397 177.115 24.2397 179.816C24.2397 182.517 61.7406 184.706 108 184.706Z" fill="#F5F5F5"></path><path d="M148.474 87.6399C148.474 87.6399 147.913 89.6617 148.474 90.3745C148.729 90.6941 150.202 90.8065 150.578 90.5516C151.295 90.085 151.096 88.0244 151.096 88.0244L148.474 87.6399Z" fill="#263238"></path><path d="M166.692 88.6552C166.692 88.6552 154.108 89.9728 147.01 88.6552C147.116 87.7573 147.324 86.8745 147.632 86.0243C147.687 85.8977 147.754 85.7763 147.831 85.6614C148.004 85.4374 148.229 85.2594 148.487 85.143L148.677 85.0523C149.274 84.8105 149.898 84.6408 150.535 84.5468C150.535 84.5468 151.645 82.2054 151.71 82.1363C152.371 81.3803 162.557 81.6352 163.694 82.8577C163.936 83.1169 164.99 84.7585 164.99 84.7585C164.99 84.7585 166.588 84.6721 166.718 85.0307C167.102 86.02 166.692 88.6552 166.692 88.6552Z" fill="#00A0AF"></path><path d="M150.88 84.5684C153.426 84.4985 155.973 84.5721 158.509 84.7887C158.509 84.7887 158.548 82.9959 158.613 82.7626C158.678 82.5293 155.192 82.2183 154.578 82.2312C153.615 82.207 152.651 82.2605 151.697 82.3911C151.324 83.0749 151.049 83.8079 150.88 84.5684Z" fill="white"></path><path d="M160.099 89.1477C160.099 90.111 159.52 90.8757 158.803 90.8757C158.086 90.8757 157.507 90.0938 157.507 89.1477C157.507 88.2016 158.086 87.4197 158.803 87.4197C159.52 87.4197 160.099 88.1843 160.099 89.1477Z" fill="#263238"></path><path opacity="0.2" d="M159.866 89.0785C159.866 89.6617 159.516 90.1326 159.089 90.1326C158.661 90.1326 158.307 89.6617 158.307 89.0785C158.307 88.4953 158.657 88.0244 159.089 88.0244C159.521 88.0244 159.866 88.4953 159.866 89.0785Z" fill="white"></path><path d="M157.533 88.8928C157.365 89.2168 156.362 89.2341 156.362 89.2341C156.362 89.2341 156.414 90.2191 157.028 90.6511C157.641 91.0831 158.812 90.893 158.812 90.893L157.533 88.8928Z" fill="#263238"></path><path d="M166.061 88.8711C166.061 89.8344 165.486 90.5991 164.765 90.5991C164.043 90.5991 163.469 89.8215 163.469 88.8711C163.469 87.9207 164.043 87.1431 164.765 87.1431C165.486 87.1431 166.061 87.9077 166.061 88.8711Z" fill="#263238"></path><path opacity="0.2" d="M165.832 88.8021C165.832 89.3853 165.482 89.8562 165.05 89.8562C164.618 89.8562 164.272 89.3853 164.272 88.8021C164.272 88.2189 164.622 87.748 165.05 87.748C165.478 87.748 165.832 88.2189 165.832 88.8021Z" fill="white"></path><path d="M163.499 88.6121C163.331 88.9404 162.324 88.9577 162.324 88.9577C162.324 88.9577 162.376 89.9426 162.994 90.3746C163.612 90.8066 164.774 90.6122 164.774 90.6122L163.499 88.6121Z" fill="#263238"></path><path d="M147.135 87.856L146.764 88.1886C146.764 88.1886 146.898 89.7136 147.135 89.787C147.373 89.8604 154.479 90.3832 155.162 90.2924C155.775 90.2288 156.374 90.0684 156.937 89.8172C157.145 89.6617 156.937 88.4305 156.937 88.4305C155.653 88.6591 154.353 88.7847 153.049 88.8064C151.442 88.7718 147.775 88.7459 147.515 88.4305C147.366 88.255 147.238 88.0621 147.135 87.856Z" fill="#00A0AF"></path><path opacity="0.2" d="M158.492 84.9011C155.87 85.0221 154.742 86.1453 154.742 86.1453C154.742 86.1453 148.664 86.1453 148.578 85.7781C148.547 85.5316 148.581 85.2815 148.677 85.0523C149.274 84.8105 149.898 84.6408 150.535 84.5469C149.671 84.832 149.571 85.143 149.571 85.143C149.885 84.9232 150.244 84.7757 150.621 84.711C152.855 84.5426 158.492 84.9011 158.492 84.9011Z" fill="white"></path><path d="M159.088 84.6721C159.088 84.6721 159.088 82.9916 159.222 82.875C159.866 82.7476 160.525 82.7098 161.179 82.7627C161.374 82.8232 161.741 84.6721 161.741 84.6721H159.088Z" fill="white"></path><path d="M162.147 84.6721L161.654 82.7627C161.654 82.7627 163.568 82.7627 163.719 82.9873C163.87 83.212 164.773 84.7888 164.773 84.7888L162.147 84.6721Z" fill="white"></path><path opacity="0.7" d="M147.135 87.856L146.764 88.1886C146.764 88.1886 146.898 89.7136 147.135 89.787C147.373 89.8604 154.479 90.3832 155.162 90.2924C155.775 90.2288 156.374 90.0684 156.937 89.8172C157.145 89.6617 156.937 88.4305 156.937 88.4305C155.653 88.6591 154.353 88.7847 153.049 88.8064C151.442 88.7718 147.775 88.7459 147.515 88.4305C147.366 88.255 147.238 88.0621 147.135 87.856Z" fill="white"></path><path d="M147.995 86.7025C147.973 86.8105 147.909 86.8926 147.848 86.8796C147.788 86.8667 147.757 86.7673 147.779 86.6593C147.801 86.5513 147.865 86.4736 147.926 86.4865C147.986 86.4995 148.017 86.5945 147.995 86.7025Z" fill="white"></path><path opacity="0.4" d="M148.561 86.4907L148.28 88.6162L153.991 88.8019L154.578 86.6808L148.561 86.4907Z" fill="white"></path><path d="M154.302 88.7243L156.298 88.5342L156.717 85.9768L155.079 86.1323L154.302 88.7243Z" fill="#00A0AF"></path><path opacity="0.7" d="M154.302 88.7242L156.298 88.5341C156.544 87.5405 156.972 86.3136 156.73 85.9767C156.463 85.8765 156.177 85.8384 155.893 85.8653C155.609 85.8923 155.335 85.9836 155.092 86.1322C154.824 86.534 154.561 87.696 154.302 88.7242Z" fill="white"></path><path d="M155.797 87.9942C155.798 88.0654 155.777 88.1354 155.738 88.195C155.699 88.2546 155.643 88.3012 155.577 88.3289C155.512 88.3566 155.439 88.364 155.369 88.3503C155.299 88.3366 155.235 88.3024 155.185 88.252C155.134 88.2016 155.1 88.1373 155.086 88.0674C155.073 87.9974 155.08 87.925 155.108 87.8593C155.135 87.7936 155.182 87.7376 155.242 87.6985C155.301 87.6595 155.371 87.6391 155.442 87.6399C155.536 87.6399 155.627 87.6772 155.693 87.7437C155.759 87.8101 155.797 87.9002 155.797 87.9942Z" fill="white"></path><path d="M155.909 87.0482C155.909 87.1013 155.888 87.1523 155.851 87.1903C155.814 87.2282 155.763 87.2501 155.71 87.2512C155.67 87.2521 155.63 87.2409 155.596 87.2191C155.562 87.1974 155.536 87.166 155.52 87.129C155.504 87.0919 155.499 87.051 155.506 87.0113C155.514 86.9716 155.533 86.9351 155.561 86.9062C155.589 86.8774 155.625 86.8576 155.665 86.8494C155.704 86.8413 155.745 86.845 155.783 86.8602C155.82 86.8755 155.852 86.9015 155.874 86.935C155.897 86.9684 155.909 87.0079 155.909 87.0482Z" fill="white"></path><path opacity="0.7" d="M147.208 87.9941L147.511 88.4261L148.077 88.5903C148.241 87.5491 148.574 86.1408 148.362 85.9075C148.15 85.6742 148.051 85.5835 147.831 85.657L147.632 86.0198C147.395 86.6537 147.252 87.3188 147.208 87.9941Z" fill="white"></path><path d="M147.969 87.6961C147.969 87.8905 147.856 88.046 147.744 88.0374C147.632 88.0287 147.558 87.8602 147.571 87.6658C147.584 87.4714 147.688 87.3159 147.796 87.3246C147.904 87.3332 147.986 87.5017 147.969 87.6961Z" fill="white"></path><path d="M166.156 87.9941L166.29 89.0785H167.206L167.292 88.0244L166.156 87.9941Z" fill="#00A0AF"></path><path opacity="0.7" d="M166.156 87.9941L166.29 89.0785H167.206L167.292 88.0244L166.156 87.9941Z" fill="white"></path><path d="M122.485 166.657L122.731 171.975H124.342V167.914L122.485 166.657Z" fill="#263238"></path><path d="M178.628 166.657L178.874 171.975H180.486V167.914L178.628 166.657Z" fill="#263238"></path><path d="M182.27 90.5862H121.31V168.152H182.27V90.5862Z" fill="#263238"></path><path opacity="0.6" d="M182.27 90.5862H121.31V168.152H182.27V90.5862Z" fill="white"></path><path d="M186.546 166.657L186.793 171.975H188.4V167.914L186.546 166.657Z" fill="#263238"></path><path d="M151.161 93.04H123.414V165.642H151.161V93.04Z" fill="#263238"></path><path opacity="0.5" d="M151.161 93.04H123.414V165.642H151.161V93.04Z" fill="white"></path><path d="M180.486 93.04H152.738V165.642H180.486V93.04Z" fill="#263238"></path><path opacity="0.5" d="M180.486 93.04H152.738V165.642H180.486V93.04Z" fill="white"></path><path d="M147.312 127.068C147.384 127.074 147.456 127.065 147.524 127.042C147.592 127.02 147.655 126.984 147.709 126.937C147.763 126.89 147.807 126.833 147.839 126.769C147.871 126.704 147.89 126.635 147.895 126.563V123.081C147.884 122.937 147.817 122.803 147.708 122.709C147.599 122.614 147.456 122.566 147.312 122.576C147.168 122.566 147.026 122.614 146.917 122.709C146.808 122.803 146.74 122.937 146.729 123.081V126.576C146.742 126.718 146.811 126.849 146.92 126.942C147.029 127.034 147.17 127.079 147.312 127.068Z" fill="#E0E0E0"></path><path d="M156.695 127.068C156.767 127.074 156.838 127.065 156.906 127.042C156.975 127.02 157.037 126.984 157.092 126.937C157.146 126.89 157.19 126.833 157.222 126.769C157.254 126.704 157.273 126.635 157.278 126.563V123.081C157.267 122.937 157.2 122.803 157.091 122.709C156.981 122.614 156.839 122.566 156.695 122.576C156.551 122.566 156.409 122.614 156.3 122.709C156.19 122.803 156.123 122.937 156.112 123.081V126.576C156.125 126.718 156.194 126.849 156.303 126.942C156.412 127.034 156.553 127.079 156.695 127.068Z" fill="#E0E0E0"></path><path d="M190.819 90.5862H182.27V168.152H190.819V90.5862Z" fill="#263238"></path><path opacity="0.4" d="M190.819 90.5862H182.27V168.152H190.819V90.5862Z" fill="white"></path><path d="M182.477 89.2773V90.3789H168.645V89.2773L172.152 87.8862H178.969L182.477 89.2773Z" fill="#263238"></path><path opacity="0.2" d="M182.477 89.2773V89.2859H168.645V89.2773L172.152 87.8862H178.969L182.477 89.2773Z" fill="white"></path><path d="M175.28 73.0945C176.312 72.9908 175.963 72.1268 176.39 71.5566C176.818 70.9863 177.898 70.9475 178.118 72.1268C178.339 73.3062 178.118 76.3345 175.526 76.4468C172.934 76.5592 172.688 72.6452 172.688 72.6452C172.688 72.6452 173.522 73.2759 175.28 73.0945Z" fill="#00A0AF"></path><path opacity="0.5" d="M175.28 73.0945C176.312 72.9908 175.963 72.1268 176.39 71.5566C176.818 70.9863 177.898 70.9475 178.118 72.1268C178.339 73.3062 178.118 76.3345 175.526 76.4468C172.934 76.5592 172.688 72.6452 172.688 72.6452C172.688 72.6452 173.522 73.2759 175.28 73.0945Z" fill="white"></path><path d="M178.066 71.9412C178.066 71.9412 178.792 72.0924 178.831 72.3084C178.87 72.5244 178.066 72.6972 178.066 72.6972C178.066 72.6972 177.5 72.438 177.5 72.317C177.5 72.196 178.066 71.9412 178.066 71.9412Z" fill="#00A0AF"></path><path d="M177.224 72.0276C177.224 72.0711 177.206 72.1129 177.176 72.1437C177.145 72.1744 177.103 72.1917 177.06 72.1917C177.036 72.1956 177.011 72.1942 176.987 72.1877C176.964 72.1811 176.942 72.1695 176.924 72.1537C176.905 72.1379 176.89 72.1182 176.88 72.0961C176.87 72.0739 176.864 72.0498 176.864 72.0254C176.864 72.001 176.87 71.9769 176.88 71.9548C176.89 71.9326 176.905 71.9129 176.924 71.8971C176.942 71.8813 176.964 71.8697 176.987 71.8631C177.011 71.8566 177.036 71.8552 177.06 71.8591C177.082 71.8591 177.103 71.8635 177.123 71.872C177.144 71.8805 177.162 71.893 177.177 71.9087C177.193 71.9244 177.205 71.943 177.213 71.9634C177.221 71.9838 177.224 72.0057 177.224 72.0276Z" fill="#00A0AF"></path><path d="M180.235 88.6336H170.826C170.552 88.6324 170.29 88.5233 170.097 88.3299C169.904 88.1365 169.795 87.8746 169.793 87.6011C169.795 87.3276 169.904 87.0656 170.097 86.8723C170.29 86.6789 170.552 86.5697 170.826 86.5686H180.235C180.508 86.5697 180.77 86.6789 180.964 86.8723C181.157 87.0656 181.266 87.3276 181.267 87.6011C181.266 87.8746 181.157 88.1365 180.964 88.3299C180.77 88.5233 180.508 88.6324 180.235 88.6336Z" fill="#00A0AF"></path><path d="M179.509 86.573H171.552C171.278 86.5719 171.016 86.4627 170.823 86.2694C170.629 86.076 170.52 85.814 170.519 85.5405C170.519 85.2667 170.628 85.0041 170.821 84.8105C171.015 84.6168 171.278 84.5081 171.552 84.5081H179.509C179.782 84.5092 180.044 84.6183 180.238 84.8117C180.431 85.0051 180.54 85.2671 180.541 85.5405C180.54 85.814 180.431 86.076 180.238 86.2694C180.044 86.4627 179.782 86.5719 179.509 86.573Z" fill="#263238"></path><path d="M178.779 84.5078H172.299C172.025 84.5078 171.763 84.3991 171.569 84.2054C171.375 84.0118 171.267 83.7492 171.267 83.4754C171.268 83.2019 171.377 82.9399 171.57 82.7465C171.764 82.5532 172.026 82.444 172.299 82.4429H178.779C179.053 82.4429 179.316 82.5515 179.511 82.745C179.705 82.9385 179.815 83.2011 179.816 83.4754C179.815 83.7496 179.705 84.0122 179.511 84.2057C179.316 84.3992 179.053 84.5078 178.779 84.5078Z" fill="#00A0AF"></path><path d="M178.053 82.4473H172.999C172.725 82.4461 172.463 82.337 172.27 82.1436C172.077 81.9502 171.967 81.6883 171.966 81.4148C171.967 81.1413 172.077 80.8794 172.27 80.686C172.463 80.4926 172.725 80.3835 172.999 80.3823H178.053C178.327 80.3823 178.59 80.4911 178.783 80.6847C178.977 80.8784 179.086 81.141 179.086 81.4148C179.085 81.6883 178.975 81.9502 178.782 82.1436C178.589 82.337 178.327 82.4461 178.053 82.4473Z" fill="#263238"></path><path d="M177.328 80.3823H173.725C173.451 80.3812 173.189 80.2721 172.996 80.0787C172.803 79.8853 172.694 79.6233 172.692 79.3499C172.694 79.0764 172.803 78.8144 172.996 78.621C173.189 78.4277 173.451 78.3185 173.725 78.3174H177.328C177.601 78.3185 177.863 78.4277 178.057 78.621C178.25 78.8144 178.359 79.0764 178.36 79.3499C178.36 79.6237 178.251 79.8863 178.058 80.0799C177.864 80.2736 177.602 80.3823 177.328 80.3823Z" fill="#00A0AF"></path><path d="M176.602 78.3218H174.442C174.168 78.3207 173.906 78.2115 173.713 78.0181C173.519 77.8247 173.41 77.5628 173.409 77.2893C173.409 77.0155 173.518 76.7529 173.712 76.5592C173.905 76.3656 174.168 76.2568 174.442 76.2568H176.602C176.875 76.2568 177.138 76.3656 177.332 76.5592C177.525 76.7529 177.634 77.0155 177.634 77.2893C177.633 77.5628 177.524 77.8247 177.33 78.0181C177.137 78.2115 176.875 78.3207 176.602 78.3218Z" fill="#263238"></path><path opacity="0.2" d="M179.509 86.573H171.552C171.278 86.5719 171.016 86.4627 170.823 86.2694C170.629 86.076 170.52 85.814 170.519 85.5405C170.519 85.2667 170.628 85.0041 170.821 84.8105C171.015 84.6168 171.278 84.5081 171.552 84.5081H179.509C179.782 84.5092 180.044 84.6183 180.238 84.8117C180.431 85.0051 180.54 85.2671 180.541 85.5405C180.54 85.814 180.431 86.076 180.238 86.2694C180.044 86.4627 179.782 86.5719 179.509 86.573Z" fill="white"></path><path opacity="0.2" d="M178.779 84.5078H172.299C172.025 84.5078 171.763 84.3991 171.569 84.2054C171.375 84.0118 171.267 83.7492 171.267 83.4754C171.268 83.2019 171.377 82.9399 171.57 82.7465C171.764 82.5532 172.026 82.444 172.299 82.4429H178.779C179.053 82.4429 179.316 82.5515 179.511 82.745C179.705 82.9385 179.815 83.2011 179.816 83.4754C179.815 83.7496 179.705 84.0122 179.511 84.2057C179.316 84.3992 179.053 84.5078 178.779 84.5078Z" fill="white"></path><path opacity="0.4" d="M178.053 82.4473H172.999C172.725 82.4461 172.463 82.337 172.27 82.1436C172.077 81.9502 171.967 81.6883 171.966 81.4148C171.967 81.1413 172.077 80.8794 172.27 80.686C172.463 80.4926 172.725 80.3835 172.999 80.3823H178.053C178.327 80.3823 178.59 80.4911 178.783 80.6847C178.977 80.8784 179.086 81.141 179.086 81.4148C179.085 81.6883 178.975 81.9502 178.782 82.1436C178.589 82.337 178.327 82.4461 178.053 82.4473Z" fill="white"></path><path opacity="0.4" d="M177.328 80.3823H173.725C173.451 80.3812 173.189 80.2721 172.996 80.0787C172.803 79.8853 172.694 79.6233 172.692 79.3499C172.694 79.0764 172.803 78.8144 172.996 78.621C173.189 78.4277 173.451 78.3185 173.725 78.3174H177.328C177.601 78.3185 177.863 78.4277 178.057 78.621C178.25 78.8144 178.359 79.0764 178.36 79.3499C178.36 79.6237 178.251 79.8863 178.058 80.0799C177.864 80.2736 177.602 80.3823 177.328 80.3823Z" fill="white"></path><path opacity="0.6" d="M176.602 78.3218H174.442C174.168 78.3207 173.906 78.2115 173.713 78.0181C173.519 77.8247 173.41 77.5628 173.409 77.2893C173.409 77.0155 173.518 76.7529 173.712 76.5592C173.905 76.3656 174.168 76.2568 174.442 76.2568H176.602C176.875 76.2568 177.138 76.3656 177.332 76.5592C177.525 76.7529 177.634 77.0155 177.634 77.2893C177.633 77.5628 177.524 77.8247 177.33 78.0181C177.137 78.2115 176.875 78.3207 176.602 78.3218Z" fill="white"></path><path d="M147.756 86.7399L149.152 83.9652C149.376 83.5198 149.197 82.977 148.751 82.7529L144.205 80.4655C143.76 80.2414 143.217 80.4208 142.993 80.8662L141.597 83.6409C141.373 84.0863 141.552 84.6291 141.997 84.8532L146.543 87.1406C146.989 87.3647 147.532 87.1853 147.756 86.7399Z" fill="#00A0AF"></path><path opacity="0.2" d="M147.756 86.7399L149.152 83.9652C149.376 83.5198 149.197 82.977 148.751 82.7529L144.205 80.4655C143.76 80.2414 143.217 80.4208 142.993 80.8662L141.597 83.6409C141.373 84.0863 141.552 84.6291 141.997 84.8532L146.543 87.1406C146.989 87.3647 147.532 87.1853 147.756 86.7399Z" fill="white"></path><path opacity="0.2" d="M148.768 84.731L149.153 83.9669C149.377 83.5215 149.197 82.9787 148.752 82.7546L144.206 80.4672C143.761 80.2431 143.218 80.4225 142.994 80.8679L142.609 81.632C142.385 82.0775 142.565 82.6203 143.01 82.8444L147.556 85.1317C148.001 85.3559 148.544 85.1765 148.768 84.731Z" fill="white"></path><path d="M148.513 83.0045C148.552 82.931 148.785 82.4688 148.82 82.3954C148.936 82.1707 148.591 81.769 148.059 81.5011C147.528 81.2333 147.001 81.1987 146.889 81.419C146.85 81.4925 146.616 81.959 146.582 82.0325C146.47 82.2528 146.811 82.6546 147.342 82.9224C147.874 83.1902 148.401 83.2291 148.513 83.0045Z" fill="#00A0AF"></path><path opacity="0.1" d="M148.513 83.0045C148.552 82.931 148.785 82.4688 148.82 82.3954C148.936 82.1707 148.591 81.769 148.059 81.5011C147.528 81.2333 147.001 81.1987 146.889 81.419C146.85 81.4925 146.616 81.959 146.582 82.0325C146.47 82.2528 146.811 82.6546 147.342 82.9224C147.874 83.1902 148.401 83.2291 148.513 83.0045Z" fill="white"></path><path opacity="0.2" d="M147.649 82.3134C147.118 82.0455 146.785 81.6438 146.889 81.4191C146.993 81.1945 147.524 81.2334 148.06 81.5012C148.595 81.769 148.924 82.1708 148.82 82.3954C148.716 82.6201 148.176 82.5812 147.649 82.3134Z" fill="white"></path><path d="M146.098 81.7864L146.405 81.1773C146.517 80.9526 146.176 80.5552 145.64 80.2873C145.105 80.0195 144.582 79.9806 144.47 80.2053C144.435 80.2787 144.202 80.7409 144.163 80.8144C144.051 81.039 144.392 81.4365 144.928 81.7086C145.463 81.9808 145.986 82.011 146.098 81.7864Z" fill="#00A0AF"></path><path opacity="0.1" d="M146.098 81.7864L146.405 81.1773C146.517 80.9526 146.176 80.5552 145.64 80.2873C145.105 80.0195 144.582 79.9806 144.47 80.2053C144.435 80.2787 144.202 80.7409 144.163 80.8144C144.051 81.039 144.392 81.4365 144.928 81.7086C145.463 81.9808 145.986 82.011 146.098 81.7864Z" fill="white"></path><path opacity="0.2" d="M145.234 81.0994C144.699 80.8273 144.37 80.4298 144.47 80.2052C144.569 79.9806 145.109 80.0151 145.641 80.2873C146.172 80.5594 146.505 80.9526 146.405 81.1772C146.306 81.4018 145.766 81.3673 145.234 81.0994Z" fill="white"></path><path d="M147.804 84.413L148.111 83.8039C148.228 83.5793 147.882 83.1775 147.351 82.9097C146.82 82.6418 146.292 82.6029 146.18 82.8276C146.141 82.901 145.908 83.3676 145.873 83.441C145.761 83.6613 146.102 84.0631 146.634 84.3309C147.165 84.5988 147.692 84.6376 147.804 84.413Z" fill="#00A0AF"></path><path opacity="0.1" d="M147.804 84.413L148.111 83.8039C148.228 83.5793 147.882 83.1775 147.351 82.9097C146.82 82.6418 146.292 82.6029 146.18 82.8276C146.141 82.901 145.908 83.3676 145.873 83.441C145.761 83.6613 146.102 84.0631 146.634 84.3309C147.165 84.5988 147.692 84.6376 147.804 84.413Z" fill="white"></path><path opacity="0.2" d="M146.941 83.7218C146.409 83.454 146.077 83.0522 146.181 82.8276C146.284 82.6029 146.816 82.6418 147.351 82.9097C147.887 83.1775 148.215 83.5793 148.112 83.8039C148.008 84.0285 147.477 83.9897 146.941 83.7218Z" fill="white"></path><path d="M145.39 83.1946C145.424 83.1211 145.658 82.6589 145.697 82.5855C145.809 82.3608 145.468 81.9634 144.932 81.6955C144.396 81.4277 143.874 81.3888 143.761 81.6135C143.727 81.6869 143.493 82.1491 143.454 82.2226C143.342 82.4472 143.683 82.8447 144.219 83.1168C144.755 83.389 145.278 83.4192 145.39 83.1946Z" fill="#00A0AF"></path><path opacity="0.1" d="M145.39 83.1946C145.424 83.1211 145.658 82.6589 145.697 82.5855C145.809 82.3608 145.468 81.9634 144.932 81.6955C144.396 81.4277 143.874 81.3888 143.761 81.6135C143.727 81.6869 143.493 82.1491 143.454 82.2226C143.342 82.4472 143.683 82.8447 144.219 83.1168C144.755 83.389 145.278 83.4192 145.39 83.1946Z" fill="white"></path><path opacity="0.2" d="M144.526 82.5121C143.99 82.2443 143.662 81.8468 143.761 81.6222C143.861 81.3975 144.401 81.4321 144.932 81.7043C145.463 81.9764 145.796 82.3695 145.697 82.5942C145.597 82.8188 145.057 82.7756 144.526 82.5121Z" fill="white"></path><path d="M142.327 83.6611H137.877C137.202 83.6611 136.655 84.2085 136.655 84.8837V89.3333C136.655 90.0085 137.202 90.5558 137.877 90.5558H142.327C143.002 90.5558 143.55 90.0085 143.55 89.3333V84.8837C143.55 84.2085 143.002 83.6611 142.327 83.6611Z" fill="#263238"></path><path opacity="0.3" d="M142.327 83.6611H137.877C137.202 83.6611 136.655 84.2085 136.655 84.8837V89.3333C136.655 90.0085 137.202 90.5558 137.877 90.5558H142.327C143.002 90.5558 143.55 90.0085 143.55 89.3333V84.8837C143.55 84.2085 143.002 83.6611 142.327 83.6611Z" fill="white"></path><path opacity="0.2" d="M140.34 83.6611H137.877C137.202 83.6611 136.655 84.2085 136.655 84.8837V89.3333C136.655 90.0085 137.202 90.5558 137.877 90.5558H140.34C141.015 90.5558 141.562 90.0085 141.562 89.3333V84.8837C141.562 84.2085 141.015 83.6611 140.34 83.6611Z" fill="white"></path><path d="M137.683 84.6721H136.862C136.625 84.7364 136.415 84.8769 136.266 85.0721C136.117 85.2673 136.036 85.5063 136.036 85.7521C136.036 85.9979 136.117 86.2369 136.266 86.4321C136.415 86.6273 136.625 86.7679 136.862 86.8321H137.683C137.923 86.7709 138.136 86.6315 138.288 86.436C138.44 86.2404 138.522 85.9998 138.522 85.7521C138.522 85.5045 138.44 85.2638 138.288 85.0683C138.136 84.8727 137.923 84.7333 137.683 84.6721Z" fill="#263238"></path><path opacity="0.2" d="M137.683 84.6721H136.862C136.625 84.7364 136.415 84.8769 136.266 85.0721C136.117 85.2673 136.036 85.5063 136.036 85.7521C136.036 85.9979 136.117 86.2369 136.266 86.4321C136.415 86.6273 136.625 86.7679 136.862 86.8321H137.683C137.923 86.7709 138.136 86.6315 138.288 86.436C138.44 86.2404 138.522 85.9998 138.522 85.7521C138.522 85.5045 138.44 85.2638 138.288 85.0683C138.136 84.8727 137.923 84.7333 137.683 84.6721Z" fill="white"></path><path opacity="0.2" d="M137.7 85.7564C137.659 85.9124 137.575 86.0537 137.458 86.1644C137.34 86.2752 137.194 86.3508 137.036 86.3829C136.878 86.4149 136.714 86.4021 136.563 86.3458C136.412 86.2896 136.28 86.1921 136.181 86.0645C136.082 85.9369 136.021 85.7842 136.005 85.6237C135.989 85.4633 136.017 85.3014 136.088 85.1565C136.159 85.0116 136.269 84.8895 136.406 84.8039C136.543 84.7182 136.701 84.6726 136.862 84.6721C137.115 84.7087 137.344 84.8423 137.5 85.0446C137.657 85.247 137.728 85.5023 137.7 85.7564Z" fill="white"></path><path d="M137.683 87.3765H136.862C136.625 87.4407 136.415 87.5813 136.266 87.7765C136.117 87.9717 136.036 88.2107 136.036 88.4565C136.036 88.7023 136.117 88.9412 136.266 89.1364C136.415 89.3317 136.625 89.4722 136.862 89.5365H137.683C137.923 89.4753 138.136 89.3359 138.288 89.1403C138.44 88.9447 138.522 88.7041 138.522 88.4565C138.522 88.2088 138.44 87.9682 138.288 87.7726C138.136 87.577 137.923 87.4377 137.683 87.3765Z" fill="#263238"></path><path opacity="0.2" d="M137.683 87.3765H136.862C136.625 87.4407 136.415 87.5813 136.266 87.7765C136.117 87.9717 136.036 88.2107 136.036 88.4565C136.036 88.7023 136.117 88.9412 136.266 89.1364C136.415 89.3317 136.625 89.4722 136.862 89.5365H137.683C137.923 89.4753 138.136 89.3359 138.288 89.1403C138.44 88.9447 138.522 88.7041 138.522 88.4565C138.522 88.2088 138.44 87.9682 138.288 87.7726C138.136 87.577 137.923 87.4377 137.683 87.3765Z" fill="white"></path><path opacity="0.2" d="M137.7 88.4608C137.659 88.6168 137.575 88.7581 137.458 88.8688C137.34 88.9795 137.194 89.0552 137.036 89.0872C136.878 89.1193 136.714 89.1065 136.563 89.0502C136.412 88.9939 136.28 88.8964 136.181 88.7688C136.082 88.6412 136.021 88.4885 136.005 88.3281C135.989 88.1676 136.017 88.0058 136.088 87.8609C136.159 87.716 136.269 87.5938 136.406 87.5082C136.543 87.4226 136.701 87.377 136.862 87.3765C137.115 87.413 137.344 87.5466 137.5 87.749C137.657 87.9513 137.728 88.2066 137.7 88.4608Z" fill="white"></path><path d="M140.158 84.6721H139.333C139.096 84.7364 138.887 84.8769 138.737 85.0721C138.588 85.2673 138.507 85.5063 138.507 85.7521C138.507 85.9979 138.588 86.2369 138.737 86.4321C138.887 86.6273 139.096 86.7679 139.333 86.8321H140.158C140.396 86.7679 140.605 86.6273 140.755 86.4321C140.904 86.2369 140.985 85.9979 140.985 85.7521C140.985 85.5063 140.904 85.2673 140.755 85.0721C140.605 84.8769 140.396 84.7364 140.158 84.6721Z" fill="#263238"></path><path opacity="0.2" d="M140.158 84.6721H139.333C139.096 84.7364 138.887 84.8769 138.737 85.0721C138.588 85.2673 138.507 85.5063 138.507 85.7521C138.507 85.9979 138.588 86.2369 138.737 86.4321C138.887 86.6273 139.096 86.7679 139.333 86.8321H140.158C140.396 86.7679 140.605 86.6273 140.755 86.4321C140.904 86.2369 140.985 85.9979 140.985 85.7521C140.985 85.5063 140.904 85.2673 140.755 85.0721C140.605 84.8769 140.396 84.7364 140.158 84.6721Z" fill="white"></path><path opacity="0.2" d="M140.171 85.7564C140.13 85.9124 140.046 86.0537 139.929 86.1644C139.811 86.2752 139.665 86.3508 139.507 86.3829C139.349 86.4149 139.185 86.4021 139.034 86.3458C138.883 86.2896 138.751 86.1921 138.652 86.0645C138.553 85.9369 138.492 85.7842 138.476 85.6237C138.46 85.4633 138.489 85.3014 138.56 85.1565C138.63 85.0116 138.74 84.8895 138.877 84.8039C139.014 84.7182 139.172 84.6726 139.333 84.6721C139.586 84.7087 139.815 84.8423 139.972 85.0446C140.128 85.247 140.2 85.5023 140.171 85.7564Z" fill="white"></path><path d="M140.158 87.3765H139.333C139.096 87.4407 138.887 87.5813 138.737 87.7765C138.588 87.9717 138.507 88.2107 138.507 88.4565C138.507 88.7023 138.588 88.9412 138.737 89.1364C138.887 89.3317 139.096 89.4722 139.333 89.5365H140.158C140.396 89.4722 140.605 89.3317 140.755 89.1364C140.904 88.9412 140.985 88.7023 140.985 88.4565C140.985 88.2107 140.904 87.9717 140.755 87.7765C140.605 87.5813 140.396 87.4407 140.158 87.3765Z" fill="#263238"></path><path opacity="0.2" d="M140.158 87.3765H139.333C139.096 87.4407 138.887 87.5813 138.737 87.7765C138.588 87.9717 138.507 88.2107 138.507 88.4565C138.507 88.7023 138.588 88.9412 138.737 89.1364C138.887 89.3317 139.096 89.4722 139.333 89.5365H140.158C140.396 89.4722 140.605 89.3317 140.755 89.1364C140.904 88.9412 140.985 88.7023 140.985 88.4565C140.985 88.2107 140.904 87.9717 140.755 87.7765C140.605 87.5813 140.396 87.4407 140.158 87.3765Z" fill="white"></path><path opacity="0.2" d="M140.171 88.4608C140.13 88.6168 140.046 88.7581 139.929 88.8688C139.811 88.9795 139.665 89.0552 139.507 89.0872C139.349 89.1193 139.185 89.1065 139.034 89.0502C138.883 88.9939 138.751 88.8964 138.652 88.7688C138.553 88.6412 138.492 88.4885 138.476 88.3281C138.46 88.1676 138.489 88.0058 138.56 87.8609C138.63 87.716 138.74 87.5938 138.877 87.5082C139.014 87.4226 139.172 87.377 139.333 87.3765C139.586 87.413 139.815 87.5466 139.972 87.749C140.128 87.9513 140.2 88.2066 140.171 88.4608Z" fill="white"></path><path d="M149.584 89.6489V86.5428C149.584 86.0441 149.18 85.6399 148.682 85.6399H143.593C143.094 85.6399 142.69 86.0441 142.69 86.5428V89.6489C142.69 90.1475 143.094 90.5517 143.593 90.5517H148.682C149.18 90.5517 149.584 90.1475 149.584 89.6489Z" fill="#00A0AF"></path><path opacity="0.6" d="M149.584 89.6489V86.5428C149.584 86.0441 149.18 85.6399 148.682 85.6399H143.593C143.094 85.6399 142.69 86.0441 142.69 86.5428V89.6489C142.69 90.1475 143.094 90.5517 143.593 90.5517H148.682C149.18 90.5517 149.584 90.1475 149.584 89.6489Z" fill="white"></path><path opacity="0.2" d="M149.584 87.3981V86.5428C149.584 86.0441 149.18 85.6399 148.682 85.6399H143.593C143.094 85.6399 142.69 86.0441 142.69 86.5428V87.3981C142.69 87.8968 143.094 88.301 143.593 88.301H148.682C149.18 88.301 149.584 87.8968 149.584 87.3981Z" fill="white"></path><path d="M148.573 85.9681V85.2855C148.573 85.035 148.085 84.8535 147.489 84.8535C146.893 84.8535 146.405 85.0566 146.405 85.2855V85.9681C146.405 86.2186 146.893 86.4001 147.489 86.4001C148.085 86.4001 148.573 86.2143 148.573 85.9681Z" fill="#00A0AF"></path><path opacity="0.5" d="M148.573 85.9681V85.2855C148.573 85.035 148.085 84.8535 147.489 84.8535C146.893 84.8535 146.405 85.0566 146.405 85.2855V85.9681C146.405 86.2186 146.893 86.4001 147.489 86.4001C148.085 86.4001 148.573 86.2143 148.573 85.9681Z" fill="white"></path><path opacity="0.2" d="M147.489 85.7348C148.088 85.7348 148.573 85.5318 148.573 85.2812C148.573 85.0307 148.088 84.8276 147.489 84.8276C146.89 84.8276 146.405 85.0307 146.405 85.2812C146.405 85.5318 146.89 85.7348 147.489 85.7348Z" fill="white"></path><path d="M145.865 85.9681V85.2855C145.865 85.035 145.381 84.8535 144.785 84.8535C144.189 84.8535 143.701 85.0566 143.701 85.2855V85.9681C143.701 86.2186 144.185 86.4001 144.785 86.4001C145.385 86.4001 145.865 86.2143 145.865 85.9681Z" fill="#00A0AF"></path><path opacity="0.5" d="M145.865 85.9681V85.2855C145.865 85.035 145.381 84.8535 144.785 84.8535C144.189 84.8535 143.701 85.0566 143.701 85.2855V85.9681C143.701 86.2186 144.185 86.4001 144.785 86.4001C145.385 86.4001 145.865 86.2143 145.865 85.9681Z" fill="white"></path><path opacity="0.2" d="M144.785 85.7347C144.185 85.7347 143.701 85.5317 143.701 85.2811C143.701 85.0306 144.185 84.8491 144.785 84.8491C145.385 84.8491 145.865 85.0522 145.865 85.2811C145.865 85.5101 145.381 85.7347 144.785 85.7347Z" fill="white"></path><path d="M148.573 87.5407V86.8581C148.573 86.6076 148.085 86.4045 147.489 86.4045C146.893 86.4045 146.405 86.6076 146.405 86.8581V87.5407C146.405 87.7913 146.893 87.9943 147.489 87.9943C148.085 87.9943 148.573 87.7913 148.573 87.5407Z" fill="#00A0AF"></path><path opacity="0.5" d="M148.573 87.5407V86.8581C148.573 86.6076 148.085 86.4045 147.489 86.4045C146.893 86.4045 146.405 86.6076 146.405 86.8581V87.5407C146.405 87.7913 146.893 87.9943 147.489 87.9943C148.085 87.9943 148.573 87.7913 148.573 87.5407Z" fill="white"></path><path opacity="0.2" d="M147.489 87.3117C148.088 87.3117 148.573 87.1087 148.573 86.8581C148.573 86.6076 148.088 86.4045 147.489 86.4045C146.89 86.4045 146.405 86.6076 146.405 86.8581C146.405 87.1087 146.89 87.3117 147.489 87.3117Z" fill="white"></path><path d="M145.865 87.5407V86.8581C145.865 86.6076 145.381 86.4045 144.785 86.4045C144.189 86.4045 143.701 86.6076 143.701 86.8581V87.5407C143.701 87.7913 144.185 87.9943 144.785 87.9943C145.385 87.9943 145.865 87.7913 145.865 87.5407Z" fill="#00A0AF"></path><path opacity="0.5" d="M145.865 87.5407V86.8581C145.865 86.6076 145.381 86.4045 144.785 86.4045C144.189 86.4045 143.701 86.6076 143.701 86.8581V87.5407C143.701 87.7913 144.185 87.9943 144.785 87.9943C145.385 87.9943 145.865 87.7913 145.865 87.5407Z" fill="white"></path><path opacity="0.2" d="M144.785 87.3117C144.185 87.3117 143.701 87.1087 143.701 86.8581C143.701 86.6076 144.185 86.4045 144.785 86.4045C145.385 86.4045 145.865 86.6076 145.865 86.8581C145.865 87.1087 145.381 87.3117 144.785 87.3117Z" fill="white"></path><path d="M174.973 124.926H90.167V127.846H174.973V124.926Z" fill="#00A0AF"></path><path opacity="0.6" d="M174.973 127.846H90.167V124.926H174.973V127.846Z" fill="white"></path><path opacity="0.2" d="M174.973 124.926H90.167V126.386H174.973V124.926Z" fill="black"></path><path d="M176.55 125.306H88.5861C88.3576 125.315 88.1347 125.234 87.9663 125.079C87.7978 124.924 87.6976 124.709 87.6875 124.481C87.6987 124.253 87.7994 124.039 87.9677 123.885C88.1361 123.732 88.3583 123.651 88.5861 123.66H176.55C176.778 123.651 177 123.732 177.168 123.885C177.337 124.039 177.437 124.253 177.448 124.481C177.438 124.709 177.338 124.924 177.17 125.079C177.001 125.234 176.778 125.315 176.55 125.306Z" fill="#00A0AF"></path><path opacity="0.6" d="M176.55 125.306H88.5861C88.3576 125.315 88.1347 125.234 87.9663 125.079C87.7978 124.924 87.6976 124.709 87.6875 124.481C87.6987 124.253 87.7994 124.039 87.9677 123.885C88.1361 123.732 88.3583 123.651 88.5861 123.66H176.55C176.778 123.651 177 123.732 177.168 123.885C177.337 124.039 177.437 124.253 177.448 124.481C177.438 124.709 177.338 124.924 177.17 125.079C177.001 125.234 176.778 125.315 176.55 125.306Z" fill="white"></path><path d="M94.0467 127.85H90.1328V179.816H94.0467V127.85Z" fill="#00A0AF"></path><path opacity="0.5" d="M94.0467 127.812H90.1328V179.816H94.0467V127.812Z" fill="white"></path><path opacity="0.2" d="M94.0467 127.812H90.1328V134.87H94.0467V127.812Z" fill="black"></path><path d="M174.973 127.85H171.059V179.816H174.973V127.85Z" fill="#00A0AF"></path><path opacity="0.5" d="M174.973 127.812H171.059V179.816H174.973V127.812Z" fill="white"></path><path opacity="0.2" d="M174.973 127.812H171.059V134.87H174.973V127.812Z" fill="black"></path><path d="M124.589 127.85H120.675V179.816H124.589V127.85Z" fill="#00A0AF"></path><path opacity="0.5" d="M124.589 127.812H120.675V179.816H124.589V127.812Z" fill="white"></path><path opacity="0.2" d="M124.589 127.812H120.675V138.033H124.589V127.812Z" fill="black"></path><path d="M96.5869 135.76L98.397 136.192L99.3085 133.695L100.138 131.419L98.0773 130.546L97.2868 133.302L96.5869 135.76Z" fill="#E4897B"></path><path d="M98.8374 136.08C98.8806 135.881 96.3923 135.449 96.3923 135.449C96.3923 135.449 94.5131 136.624 92.9666 136.616C91.42 136.607 92.0291 137.687 93.6664 138.08L97.7186 139.048C98.8806 139.316 98.3925 138.154 98.8374 136.08Z" fill="#263238"></path><path d="M94.7466 135.648C94.7189 135.607 94.7041 135.559 94.7041 135.51C94.7041 135.46 94.7189 135.412 94.7466 135.371C94.7648 135.339 94.7895 135.31 94.8192 135.287C94.8489 135.264 94.883 135.247 94.9194 135.237C95.1098 135.209 95.3042 135.235 95.481 135.311C95.3082 135.155 95.1656 134.983 95.1872 134.853C95.2088 134.723 95.2736 134.71 95.3989 134.685C95.454 134.673 95.511 134.673 95.5661 134.685C95.6212 134.697 95.6731 134.72 95.7186 134.754C96.0167 134.97 96.0858 135.592 96.0901 135.618C96.0925 135.628 96.0925 135.638 96.0901 135.648H96.0685C95.8069 135.704 95.5409 135.735 95.2736 135.743C95.184 135.765 95.0907 135.768 94.9999 135.752C94.909 135.736 94.8227 135.7 94.7466 135.648ZM94.9582 135.367C94.9391 135.372 94.9211 135.38 94.9054 135.392C94.8898 135.404 94.8769 135.419 94.8675 135.436C94.82 135.527 94.8675 135.557 94.8675 135.57C94.9583 135.691 95.4421 135.665 95.8395 135.596C95.5731 135.438 95.2677 135.359 94.9582 135.367ZM95.4291 134.818C95.3946 134.818 95.3298 134.844 95.3211 134.879C95.3211 134.991 95.6063 135.263 95.9389 135.488C95.9099 135.253 95.807 135.034 95.6451 134.862C95.6003 134.828 95.5457 134.81 95.4896 134.81L95.4291 134.818Z" fill="#263238"></path><path d="M117.28 139.843L118.96 139.039L118.096 136.521L117.306 134.235L115.154 134.853L116.277 137.493L117.28 139.843Z" fill="#E4897B"></path><path d="M119.232 138.672C119.141 138.491 116.934 139.726 116.934 139.726C116.934 139.726 116.217 141.817 115.011 142.789C113.806 143.761 114.955 144.21 116.472 143.484L120.23 141.683C121.301 141.16 120.187 140.564 119.232 138.672Z" fill="#263238"></path><path d="M115.776 140.914C115.73 140.899 115.689 140.87 115.659 140.832C115.629 140.793 115.611 140.747 115.608 140.698C115.6 140.661 115.6 140.622 115.608 140.585C115.616 140.548 115.632 140.512 115.655 140.482C115.784 140.34 115.95 140.237 116.135 140.184C115.906 140.184 115.703 140.132 115.621 140.015C115.538 139.899 115.62 139.851 115.681 139.752C115.715 139.708 115.759 139.671 115.809 139.646C115.859 139.621 115.914 139.607 115.97 139.605C116.338 139.583 116.783 140.037 116.804 140.037V140.063V140.106V140.128C116.637 140.337 116.451 140.529 116.247 140.702C116.187 140.768 116.114 140.82 116.033 140.856C115.952 140.893 115.865 140.912 115.776 140.914ZM115.776 140.56C115.764 140.575 115.755 140.594 115.751 140.613C115.746 140.632 115.746 140.653 115.75 140.672C115.75 140.771 115.806 140.78 115.824 140.784C115.97 140.819 116.329 140.495 116.597 140.193C116.294 140.236 116.01 140.363 115.776 140.56ZM115.776 139.838C115.776 139.864 115.716 139.92 115.733 139.951C115.789 140.05 116.199 140.072 116.597 140.037C116.425 139.873 116.206 139.767 115.97 139.735C115.916 139.738 115.863 139.757 115.819 139.791L115.776 139.838Z" fill="#263238"></path><path d="M108.376 91.627L106.441 89.899C106.441 89.899 106.674 89.3633 106.009 89.0868C105.344 88.8104 101.339 89.0436 101.339 89.0436C101.339 89.0436 101.771 90.7284 102.142 91.1432C102.514 91.5579 105.598 91.2252 105.598 91.2252L107.18 92.8193L108.376 91.627Z" fill="#EBB376"></path><path d="M106.021 92.4478L106.281 92.7502C107.3 93.9123 111.115 98.1805 114.644 100.729C115.507 101.381 116.446 101.927 117.439 102.354L118.109 101.166L119.897 98.025C115.556 96.9277 109.434 92.0418 107.991 90.8581C107.788 90.6939 107.68 90.5989 107.68 90.5989L106.021 92.4478Z" fill="#00A0AF"></path><path opacity="0.2" d="M114.645 100.747C115.507 101.399 116.446 101.944 117.44 102.371L118.109 101.183C116.99 100.829 115.816 100.681 114.645 100.747Z" fill="black"></path><path opacity="0.6" d="M106.021 92.4478L106.281 92.7502L108.009 90.8581C107.806 90.6939 107.698 90.5989 107.698 90.5989L106.021 92.4478Z" fill="white"></path><path d="M141.748 95.5627L144.064 94.3747C144.064 94.3747 143.969 93.8001 144.699 93.7008C145.429 93.6014 149.23 94.8369 149.23 94.8369C149.23 94.8369 148.401 96.3619 147.934 96.6686C147.468 96.9753 144.556 95.8694 144.556 95.8694L142.625 97.0142L141.748 95.5627Z" fill="#EBB376"></path><path d="M143.817 96.9667L143.489 97.1914C142.215 98.0554 137.441 101.231 133.385 102.807C132.386 103.22 131.342 103.51 130.274 103.671L129.92 102.354L128.987 98.8632C133.462 98.8978 140.616 95.7096 142.314 94.9277L142.681 94.7549L143.817 96.9667Z" fill="#00A0AF"></path><path opacity="0.6" d="M143.817 96.9666L143.489 97.1912L142.314 94.9318L142.681 94.759L143.817 96.9666Z" fill="white"></path><path d="M114.277 115.158L130.218 116.117C130.244 115.901 130.274 115.685 130.296 115.469C130.602 112.691 130.746 109.897 130.728 107.101C130.728 105.429 130.659 103.909 130.594 102.665C130.482 100.574 130.339 99.2518 130.339 99.2518C130.339 99.2518 128.136 97.9774 123.285 97.8478C121.853 97.7855 120.42 97.9104 119.021 98.2194C118.434 98.362 117.913 98.6994 117.542 99.1765C117.172 99.6535 116.974 100.242 116.982 100.846C117.012 104.57 115.612 110.32 114.822 113.27C114.48 114.432 114.277 115.158 114.277 115.158Z" fill="#00A0AF"></path><path opacity="0.2" d="M130.71 107.101C130.71 105.429 130.684 104.868 130.62 103.645C130.313 103.524 129.933 102.479 129.57 102.449C129.57 102.427 129.021 105.602 130.71 107.101Z" fill="black"></path><path opacity="0.6" d="M126.65 98.5995C126.65 98.5995 125.894 97.8046 123.596 98.1156C122.512 98.2286 121.442 98.4427 120.399 98.755C120.399 98.755 119.988 100.591 122.062 101.045C124.136 101.498 127.168 99.1136 126.65 98.5995Z" fill="white"></path><path opacity="0.6" d="M114.277 115.158L130.218 116.117C130.244 115.901 130.274 115.685 130.296 115.469L114.804 113.27C114.48 114.432 114.277 115.158 114.277 115.158Z" fill="white"></path><path opacity="0.4" d="M119.716 104.544C119.716 103.092 119.893 101.14 120.628 101.196C121.362 101.252 121.341 103.006 121.194 104.427C121.731 104.487 122.261 104.603 122.775 104.773C122.801 103.339 122.973 101.511 123.682 101.563C124.546 101.628 124.365 103.995 124.17 105.451C127.268 107.581 125.963 111.987 121.215 111.236C116.01 110.406 116.882 105.481 119.716 104.544Z" fill="white"></path><path opacity="0.2" d="M120.822 104.341C120.822 104.341 120.986 102.246 120.615 102.181C120.243 102.116 120.183 104.388 120.183 104.388L120.822 104.341Z" fill="black"></path><path opacity="0.2" d="M123.159 104.786C123.159 104.786 123.22 102.483 123.591 102.427C123.963 102.371 123.721 105.162 123.721 105.162L123.159 104.786Z" fill="black"></path><path opacity="0.2" d="M119.664 106.617C119.67 106.679 119.695 106.738 119.734 106.786C119.774 106.834 119.827 106.87 119.886 106.888C119.946 106.906 120.009 106.906 120.069 106.888C120.129 106.87 120.182 106.835 120.221 106.787C120.261 106.739 120.285 106.68 120.292 106.618C120.298 106.556 120.286 106.494 120.257 106.439C120.228 106.384 120.183 106.338 120.128 106.309C120.074 106.279 120.011 106.266 119.949 106.272C119.908 106.276 119.867 106.288 119.831 106.307C119.794 106.326 119.761 106.353 119.735 106.385C119.708 106.417 119.688 106.454 119.676 106.494C119.664 106.534 119.66 106.576 119.664 106.617Z" fill="black"></path><path opacity="0.2" d="M122.805 107.17C122.813 107.247 122.85 107.317 122.909 107.365C122.968 107.414 123.044 107.437 123.12 107.43C123.16 107.429 123.199 107.42 123.235 107.403C123.272 107.386 123.304 107.362 123.33 107.332C123.357 107.302 123.377 107.267 123.389 107.23C123.401 107.192 123.405 107.152 123.402 107.112C123.398 107.072 123.386 107.034 123.366 106.999C123.347 106.965 123.321 106.934 123.289 106.91C123.257 106.886 123.221 106.869 123.182 106.859C123.144 106.85 123.103 106.848 123.064 106.855C123.026 106.858 122.989 106.869 122.956 106.887C122.922 106.904 122.892 106.929 122.868 106.958C122.844 106.988 122.826 107.021 122.815 107.058C122.804 107.094 122.801 107.133 122.805 107.17Z" fill="black"></path><path opacity="0.2" d="M121.746 107.559L121.275 107.421L121.414 107.957L121.746 107.559Z" fill="black"></path><path d="M121.517 96.7679C121.594 97.0486 121.614 97.3418 121.576 97.6303C121.538 97.9188 121.443 98.1969 121.297 98.4484C121.244 98.5377 121.186 98.6242 121.124 98.7076C121.026 98.8355 120.918 98.9554 120.8 99.0661C120.83 99.4187 120.968 99.7536 121.194 100.026C121.42 100.297 121.725 100.493 122.066 100.587C124.598 101.153 126.118 98.9668 126.118 98.9668C125.783 98.4984 125.551 97.9645 125.437 97.4002C125.324 96.8358 125.33 96.2538 125.457 95.6922C125.58 95.116 125.794 94.5632 126.092 94.0549L122.459 94.9794L120.809 95.4114C121.139 95.8078 121.381 96.2704 121.517 96.7679Z" fill="#EBB376"></path><path opacity="0.2" d="M121.517 96.768C121.594 97.0487 121.614 97.3419 121.576 97.6304C121.538 97.9189 121.443 98.197 121.297 98.4485C121.244 98.5378 121.186 98.6243 121.124 98.7077C123.137 98.5651 124.671 96.8198 125.444 95.6837C125.567 95.1075 125.781 94.5547 126.079 94.0464L122.446 94.9709L120.796 95.4029C121.132 95.8007 121.378 96.2663 121.517 96.768Z" fill="black"></path><path d="M121.915 84.24C121.915 84.24 117.392 86.2402 120.563 90.6595C124.148 95.6275 121.915 84.24 121.915 84.24Z" fill="#263238"></path><path d="M129.427 91.7221C128.434 94.5042 125.971 97.1999 123.478 96.9666C118.942 96.5346 117.482 95.2386 117.906 91.8992C118.269 88.8752 120.567 84.6157 124.386 84.7712C128.205 84.9267 130.814 87.8644 129.427 91.7221Z" fill="#EBB376"></path><path d="M120.96 85.9895C122.178 86.8271 123.601 87.3183 125.077 87.4108C125.077 87.4108 126.723 88.1754 125.803 90.0028C124.883 91.8301 126.848 93.5365 126.213 96.1329C126.213 96.1329 128.991 96.5649 130.987 91.0353C132.438 87.009 129.315 84.417 125.63 83.4623C122.541 82.6804 119.755 84.2831 120.96 85.9895Z" fill="#263238"></path><path d="M122.718 90.7199C122.602 91.0742 122.317 91.3075 122.083 91.2254C121.85 91.1433 121.759 90.7934 121.872 90.4435C121.984 90.0935 122.269 89.8603 122.507 89.9337C122.744 90.0071 122.831 90.37 122.718 90.7199Z" fill="#263238"></path><path d="M119.91 89.6659C119.802 90.0072 119.526 90.2275 119.306 90.1541C119.085 90.0806 118.99 89.7437 119.103 89.4024C119.215 89.0611 119.483 88.8451 119.707 88.9142C119.932 88.9834 120.018 89.3246 119.91 89.6659Z" fill="#263238"></path><path d="M122.256 88.603C122.238 88.573 122.228 88.5388 122.226 88.5036C122.233 88.4593 122.256 88.4192 122.291 88.3918C122.327 88.3644 122.372 88.3518 122.416 88.3568C122.687 88.3822 122.947 88.4745 123.173 88.6253C123.399 88.7761 123.585 88.9807 123.712 89.2208C123.722 89.2405 123.728 89.2621 123.73 89.2843C123.732 89.3065 123.729 89.3287 123.721 89.3498C123.714 89.3708 123.703 89.3901 123.688 89.4065C123.673 89.423 123.655 89.4362 123.634 89.4454C123.594 89.4617 123.549 89.4627 123.508 89.4484C123.466 89.4342 123.432 89.4055 123.41 89.3676C123.304 89.1813 123.153 89.0241 122.971 88.9103C122.79 88.7964 122.583 88.7294 122.369 88.7153C122.343 88.7051 122.32 88.6899 122.301 88.6706C122.282 88.6513 122.267 88.6283 122.256 88.603Z" fill="#263238"></path><path d="M119.452 87.8558C119.422 87.8383 119.397 87.8129 119.379 87.7824C119.365 87.7399 119.367 87.6935 119.385 87.6526C119.404 87.6117 119.437 87.5794 119.478 87.5621C119.725 87.4579 119.994 87.4149 120.261 87.4367C120.528 87.4585 120.785 87.5445 121.012 87.6873C121.03 87.7002 121.046 87.7166 121.058 87.7356C121.07 87.7546 121.078 87.7758 121.081 87.798C121.085 87.8201 121.084 87.8427 121.079 87.8645C121.074 87.8863 121.064 87.9069 121.051 87.9249C121.025 87.9607 120.986 87.9849 120.942 87.9922C120.899 87.9995 120.854 87.9893 120.818 87.9638C120.635 87.8528 120.427 87.7877 120.214 87.7742C120 87.7606 119.786 87.799 119.591 87.8861C119.542 87.8937 119.493 87.8829 119.452 87.8558Z" fill="#263238"></path><path d="M120.334 90.2576L120.217 91.8949C119.81 91.8678 119.421 91.7171 119.103 91.4629C119.583 91.1395 120 90.731 120.334 90.2576Z" fill="#D58745"></path><path d="M125.747 92.5473C125.747 92.5473 127.017 91.0353 127.747 91.8518C128.477 92.6683 127.436 95.5108 126.105 95.1091C124.775 94.7073 124.848 93.3119 125.747 92.5473Z" fill="#EBB376"></path><path d="M119.79 92.923C119.914 93.3594 120.008 93.804 120.07 94.2536H120.308C121.397 94.2536 121.906 93.9209 122.14 93.5278C122.312 93.2175 122.368 92.8564 122.299 92.5083C121.618 92.8002 120.881 92.9388 120.139 92.9144C119.932 92.9273 119.79 92.923 119.79 92.923Z" fill="#263238"></path><path d="M120.161 92.9231L120.252 93.3119C121.276 93.3119 121.98 93.1996 122.325 92.8799C122.334 92.7526 122.325 92.6247 122.3 92.4998C121.626 92.7945 120.896 92.9389 120.161 92.9231Z" fill="white"></path><path d="M120.308 94.2624C121.396 94.2624 121.906 93.9298 122.139 93.5367C121.726 93.5349 121.317 93.6081 120.93 93.7527C120.674 93.8523 120.456 94.0308 120.308 94.2624Z" fill="#DE5753"></path><path d="M121.846 84.6978C120.196 84.633 120.187 86.6634 122.04 87.4583L121.656 86.7498C121.656 86.7498 122.952 88.0976 124.434 87.8989C124.207 87.7534 124.021 87.5542 123.89 87.319C123.76 87.0838 123.69 86.82 123.686 86.5511C123.654 86.0723 123.45 85.6211 123.112 85.2806C122.774 84.9401 122.325 84.7332 121.846 84.6978Z" fill="#263238"></path><path d="M96.7681 134.049L98.9583 135.415C98.9583 135.415 101.779 130.118 103.957 126.364C104 126.286 104.043 126.204 104.09 126.127C105.667 123.405 110.277 123.703 110.277 123.703L116.64 138.581L118.8 137.86L117.241 124.9C117.241 124.9 126.122 124.852 128.905 123.604C131.687 122.355 130.235 116.147 130.235 116.147C124.429 115.011 114.722 113.668 114.722 113.668C109.97 113.763 103.754 115.949 101.81 119.094C99.1613 123.319 96.7681 134.049 96.7681 134.049Z" fill="#263238"></path><path opacity="0.2" d="M103.935 126.364C103.978 126.287 104.021 126.204 104.069 126.127C105.646 123.405 110.255 123.703 110.255 123.703C110.255 123.703 109.167 120.537 109.983 118.403C110.8 116.268 119.055 115.309 119.055 115.309C119.055 115.309 111.456 115.175 107.672 117.072C105.011 118.42 104.186 123.496 103.935 126.364Z" fill="black"></path><path d="M37.1519 140.154C37.2426 140.789 35.5233 141.204 34.1279 141.45C34.2402 142.603 34.9919 143.765 36.0676 144.854C37.4025 144.102 39.3033 143.126 39.6532 143.355C40.0031 143.584 38.0894 144.88 36.8711 145.619C37.7411 146.379 38.6636 147.078 39.6316 147.71C40.2278 147.152 40.9276 146.664 41.3596 146.928C41.7916 147.191 41.675 148.064 41.4633 148.837C42.9148 149.701 43.9991 150.198 43.9991 150.198C44.4209 148.851 44.7443 147.475 44.9668 146.081C44.8934 145.934 44.8199 145.787 44.7551 145.649C44.5218 145.109 44.7551 144.876 45.1353 144.785C45.2388 143.798 45.2388 142.804 45.1353 141.817C43.498 141.476 41.5022 140.836 42.2495 139.851C42.6815 139.26 43.5455 139.19 44.3836 139.342C44.2656 139.145 44.1296 138.96 43.9775 138.789C40.9881 135.497 38.9058 138.789 38.9058 138.789C37.1778 137.342 34.7327 137.735 34.2057 139.994C35.1561 139.739 37.018 139.368 37.1519 140.154Z" fill="#00A0AF"></path><path opacity="0.3" d="M37.1519 140.154C37.2426 140.789 35.5233 141.204 34.1279 141.45C34.2402 142.603 34.9919 143.765 36.0676 144.854C37.4025 144.102 39.3033 143.126 39.6532 143.355C40.0031 143.584 38.0894 144.88 36.8711 145.619C37.7411 146.379 38.6636 147.078 39.6316 147.71C40.2278 147.152 40.9276 146.664 41.3596 146.928C41.7916 147.191 41.675 148.064 41.4633 148.837C42.9148 149.701 43.9991 150.198 43.9991 150.198C44.4209 148.851 44.7443 147.475 44.9668 146.081C44.8934 145.934 44.8199 145.787 44.7551 145.649C44.5218 145.109 44.7551 144.876 45.1353 144.785C45.2388 143.798 45.2388 142.804 45.1353 141.817C43.498 141.476 41.5022 140.836 42.2495 139.851C42.6815 139.26 43.5455 139.19 44.3836 139.342C44.2656 139.145 44.1296 138.96 43.9775 138.789C40.9881 135.497 38.9058 138.789 38.9058 138.789C37.1778 137.342 34.7327 137.735 34.2057 139.994C35.1561 139.739 37.018 139.368 37.1519 140.154Z" fill="white"></path><path d="M40.8587 164.337L40.4267 164.303C40.4267 164.082 42.1979 142.046 37.2515 139.968C37.0161 139.857 36.7581 139.802 36.4979 139.808C36.2377 139.814 35.9825 139.881 35.7524 140.003C33.964 140.936 33.1086 144.794 33.1 144.832L32.668 144.737C32.7068 144.573 33.5795 140.646 35.5451 139.623C35.8313 139.471 36.1485 139.388 36.4722 139.379C36.7958 139.37 37.1172 139.435 37.4113 139.571C42.6515 141.765 40.9364 163.417 40.8587 164.337Z" fill="#00A0AF"></path><path d="M41.4721 163.862C41.3857 162.868 39.3683 139.553 43.144 137.078C44.0468 136.486 44.872 136.357 45.5372 136.707C47.3214 137.605 47.559 141.42 47.5676 141.579L47.1356 141.605C47.1356 141.567 46.9067 137.877 45.3428 137.091C44.8072 136.819 44.1462 136.935 43.3772 137.441C39.8176 139.774 41.8825 163.581 41.9041 163.823L41.4721 163.862Z" fill="#00A0AF"></path><path d="M42.0508 165.745C42.0205 164.985 41.3984 147.139 44.8372 145.575C45.1571 145.426 45.5058 145.349 45.8588 145.349C46.2119 145.349 46.5606 145.426 46.8805 145.575C49.2392 146.612 50.6951 151.006 50.7685 151.191L50.3581 151.325C50.3581 151.282 48.9023 146.928 46.7207 145.969C46.4562 145.843 46.1669 145.777 45.874 145.777C45.581 145.777 45.2917 145.843 45.0272 145.969C42.392 147.169 42.3056 160.657 42.4957 165.728L42.0508 165.745Z" fill="#00A0AF"></path><path d="M41.1742 164.929L40.7422 164.882C41.347 159.568 42.5048 145.416 40.6126 143.714C40.5213 143.602 40.3995 143.52 40.2621 143.477C40.1247 143.434 39.9778 143.432 39.8393 143.472C38.5736 143.96 37.8003 148.565 37.6102 150.297L37.1782 150.25C37.2517 149.584 37.9429 143.74 39.6838 143.07C39.8961 143 40.124 142.993 40.3402 143.05C40.5564 143.106 40.7515 143.224 40.9021 143.39C43.3515 145.584 41.2649 164.16 41.1742 164.929Z" fill="#00A0AF"></path><path d="M33.9683 154.859H49.4857L48.1897 172.243H35.2643L33.9683 154.859Z" fill="#263238"></path><path d="M36.0806 148.479C35.9164 148.911 34.7112 148.569 33.7651 148.232C33.4411 148.984 33.5145 149.96 33.7953 151.001C34.8753 151.001 36.3873 151.032 36.5212 151.304C36.6552 151.576 35.0352 151.706 34.0286 151.736C34.3037 152.504 34.6329 153.252 35.0136 153.974C35.5752 153.835 36.1713 153.771 36.3398 154.077C36.5083 154.384 36.1411 154.889 35.748 155.291C36.3528 156.306 36.8452 156.998 36.8452 156.998C37.5669 156.311 38.2382 155.573 38.854 154.79C38.854 154.678 38.854 154.561 38.854 154.444C38.8929 154.012 39.1132 153.965 39.3768 154.051C39.7823 153.482 40.1283 152.873 40.4092 152.233C39.515 151.455 38.5041 150.379 39.3033 150.029C39.7828 149.818 40.3142 150.06 40.7937 150.461C40.789 150.3 40.7688 150.139 40.7332 149.982C40.0204 146.928 37.6056 148.254 37.6056 148.254C37.031 146.763 35.3937 146.172 34.2921 147.39C34.992 147.545 36.288 147.956 36.0806 148.479Z" fill="#00A0AF"></path><path opacity="0.3" d="M36.0806 148.479C35.9164 148.911 34.7112 148.569 33.7651 148.232C33.4411 148.984 33.5145 149.96 33.7953 151.001C34.8753 151.001 36.3873 151.032 36.5212 151.304C36.6552 151.576 35.0352 151.706 34.0286 151.736C34.3037 152.504 34.6329 153.252 35.0136 153.974C35.5752 153.835 36.1713 153.771 36.3398 154.077C36.5083 154.384 36.1411 154.889 35.748 155.291C36.3528 156.306 36.8452 156.998 36.8452 156.998C37.5669 156.311 38.2382 155.573 38.854 154.79C38.854 154.678 38.854 154.561 38.854 154.444C38.8929 154.012 39.1132 153.965 39.3768 154.051C39.7823 153.482 40.1283 152.873 40.4092 152.233C39.515 151.455 38.5041 150.379 39.3033 150.029C39.7828 149.818 40.3142 150.06 40.7937 150.461C40.789 150.3 40.7688 150.139 40.7332 149.982C40.0204 146.928 37.6056 148.254 37.6056 148.254C37.031 146.763 35.3937 146.172 34.2921 147.39C34.992 147.545 36.288 147.956 36.0806 148.479Z" fill="white"></path><path d="M47.6021 150.544C47.1195 150.586 46.6438 150.686 46.1851 150.842C46.06 150.514 45.99 150.168 45.9778 149.818C45.8784 146.686 48.1378 148.003 49.3042 147.088C49.5714 146.85 49.8858 146.672 50.2268 146.565C50.5679 146.457 50.9277 146.424 51.2827 146.465C51.1823 146.638 51.0928 146.817 51.0149 147.001C50.9882 147.07 50.9772 147.144 50.9826 147.217C50.9879 147.291 51.0096 147.362 51.046 147.426C51.0824 147.49 51.1326 147.545 51.193 147.588C51.2534 147.63 51.3224 147.658 51.3951 147.671C51.6868 147.727 51.989 147.691 52.2591 147.567C52.3404 147.521 52.417 147.468 52.488 147.407C52.6776 147.737 52.8228 148.09 52.92 148.457C53.0398 148.894 53.1079 149.343 53.1231 149.796C52.946 149.834 52.7715 149.884 52.6003 149.943C52.5319 149.972 52.471 150.016 52.4223 150.072C52.3737 150.128 52.3386 150.195 52.3198 150.267C52.301 150.338 52.299 150.414 52.3139 150.486C52.3289 150.559 52.3604 150.627 52.4059 150.686C52.5916 150.875 52.8096 151.028 53.0496 151.14C52.9692 151.641 52.8375 152.134 52.6565 152.608L52.4967 152.63C52.3829 152.653 52.2704 152.682 52.1597 152.716C52.0949 152.734 52.0314 152.755 51.9696 152.781C51.8938 152.816 51.8276 152.869 51.7771 152.935C51.7266 153.001 51.6933 153.079 51.6802 153.161C51.6718 153.243 51.684 153.325 51.7157 153.401C51.7474 153.476 51.7976 153.542 51.8616 153.593C51.9358 153.647 52.0138 153.694 52.0949 153.736C51.7968 154.254 51.3697 154.685 50.8551 154.989C50.4102 154.78 49.9775 154.547 49.5591 154.289C49.6541 154.164 49.7448 154.038 49.8312 153.909C49.9345 153.768 49.9821 153.594 49.9651 153.421C49.9398 153.249 49.8483 153.094 49.7103 152.989C49.5697 152.883 49.3934 152.837 49.2191 152.859C49.0448 152.882 48.8862 152.972 48.7771 153.11C48.6735 153.265 48.5611 153.412 48.4488 153.542C47.8511 153.102 47.3162 152.584 46.8591 151.999H46.9066C47.1894 151.924 47.4786 151.874 47.7706 151.852C47.9459 151.83 48.1049 151.738 48.2126 151.598C48.3204 151.458 48.3681 151.28 48.3451 151.105C48.3222 150.93 48.2306 150.771 48.0905 150.663C47.9503 150.555 47.7731 150.508 47.5978 150.531L47.6021 150.544Z" fill="#00A0AF"></path><path opacity="0.5" d="M47.6021 150.544C47.1195 150.586 46.6438 150.686 46.1851 150.842C46.06 150.514 45.99 150.168 45.9778 149.818C45.8784 146.686 48.1378 148.003 49.3042 147.088C49.5714 146.85 49.8858 146.672 50.2268 146.565C50.5679 146.457 50.9277 146.424 51.2827 146.465C51.1823 146.638 51.0928 146.817 51.0149 147.001C50.9882 147.07 50.9772 147.144 50.9826 147.217C50.9879 147.291 51.0096 147.362 51.046 147.426C51.0824 147.49 51.1326 147.545 51.193 147.588C51.2534 147.63 51.3224 147.658 51.3951 147.671C51.6868 147.727 51.989 147.691 52.2591 147.567C52.3404 147.521 52.417 147.468 52.488 147.407C52.6776 147.737 52.8228 148.09 52.92 148.457C53.0398 148.894 53.1079 149.343 53.1231 149.796C52.946 149.834 52.7715 149.884 52.6003 149.943C52.5319 149.972 52.471 150.016 52.4223 150.072C52.3737 150.128 52.3386 150.195 52.3198 150.267C52.301 150.338 52.299 150.414 52.3139 150.486C52.3289 150.559 52.3604 150.627 52.4059 150.686C52.5916 150.875 52.8096 151.028 53.0496 151.14C52.9692 151.641 52.8375 152.134 52.6565 152.608L52.4967 152.63C52.3829 152.653 52.2704 152.682 52.1597 152.716C52.0949 152.734 52.0314 152.755 51.9696 152.781C51.8938 152.816 51.8276 152.869 51.7771 152.935C51.7266 153.001 51.6933 153.079 51.6802 153.161C51.6718 153.243 51.684 153.325 51.7157 153.401C51.7474 153.476 51.7976 153.542 51.8616 153.593C51.9358 153.647 52.0138 153.694 52.0949 153.736C51.7968 154.254 51.3697 154.685 50.8551 154.989C50.4102 154.78 49.9775 154.547 49.5591 154.289C49.6541 154.164 49.7448 154.038 49.8312 153.909C49.9345 153.768 49.9821 153.594 49.9651 153.421C49.9398 153.249 49.8483 153.094 49.7103 152.989C49.5697 152.883 49.3934 152.837 49.2191 152.859C49.0448 152.882 48.8862 152.972 48.7771 153.11C48.6735 153.265 48.5611 153.412 48.4488 153.542C47.8511 153.102 47.3162 152.584 46.8591 151.999H46.9066C47.1894 151.924 47.4786 151.874 47.7706 151.852C47.9459 151.83 48.1049 151.738 48.2126 151.598C48.3204 151.458 48.3681 151.28 48.3451 151.105C48.3222 150.93 48.2306 150.771 48.0905 150.663C47.9503 150.555 47.7731 150.508 47.5978 150.531L47.6021 150.544Z" fill="white"></path><path d="M48.5008 139.752C48.7699 139.564 49.0598 139.407 49.3648 139.286C49.2848 139.059 49.1696 138.846 49.0235 138.655C47.7016 136.966 47.1011 138.655 46.0773 138.681C45.8352 138.676 45.5947 138.721 45.3714 138.815C45.1482 138.909 44.9471 139.049 44.7813 139.225C44.9103 139.271 45.0359 139.326 45.1571 139.389C45.2012 139.414 45.2392 139.448 45.2686 139.489C45.298 139.529 45.3179 139.576 45.327 139.626C45.3361 139.676 45.3341 139.726 45.3212 139.775C45.3082 139.824 45.2847 139.869 45.2522 139.908C45.12 140.067 44.942 140.181 44.7424 140.236C44.6806 140.242 44.6184 140.242 44.5566 140.236C44.6006 140.492 44.6791 140.74 44.7899 140.975C44.921 141.255 45.0818 141.52 45.2694 141.765C45.3804 141.709 45.4943 141.658 45.6107 141.614C45.6597 141.598 45.7118 141.593 45.7629 141.601C45.8139 141.608 45.8624 141.628 45.9045 141.658C45.9466 141.688 45.981 141.727 46.005 141.773C46.0291 141.818 46.042 141.869 46.0427 141.921C46.0295 142.102 45.9826 142.279 45.9045 142.443C46.1721 142.67 46.4615 142.87 46.7685 143.04L46.8635 142.983C46.9326 142.945 47.0061 142.91 47.0752 142.88C47.1161 142.858 47.1597 142.842 47.2048 142.832C47.2596 142.816 47.3176 142.814 47.3735 142.826C47.4293 142.838 47.4812 142.864 47.5245 142.901C47.5686 142.941 47.6014 142.991 47.6197 143.047C47.6379 143.103 47.6408 143.163 47.6282 143.221C47.6126 143.282 47.5923 143.341 47.5677 143.398C47.9517 143.538 48.3653 143.577 48.7686 143.51C48.9156 143.203 49.044 142.887 49.1531 142.564C49.0494 142.543 48.9458 142.517 48.8464 142.487C48.7293 142.457 48.6266 142.387 48.557 142.288C48.4943 142.184 48.4727 142.061 48.4965 141.942C48.5233 141.825 48.5956 141.722 48.6975 141.657C48.7994 141.593 48.9228 141.571 49.0408 141.597C49.1618 141.631 49.287 141.662 49.4123 141.687C49.5338 141.195 49.5862 140.687 49.5678 140.18H49.5376C49.3525 140.267 49.176 140.371 49.0106 140.491C48.9086 140.556 48.7851 140.577 48.6672 140.551C48.5493 140.524 48.4467 140.452 48.382 140.35C48.3173 140.248 48.2957 140.125 48.322 140.007C48.3484 139.889 48.4204 139.787 48.5224 139.722L48.5008 139.752Z" fill="#00A0AF"></path><path opacity="0.3" d="M48.5008 139.752C48.7699 139.564 49.0598 139.407 49.3648 139.286C49.2848 139.059 49.1696 138.846 49.0235 138.655C47.7016 136.966 47.1011 138.655 46.0773 138.681C45.8352 138.676 45.5947 138.721 45.3714 138.815C45.1482 138.909 44.9471 139.049 44.7813 139.225C44.9103 139.271 45.0359 139.326 45.1571 139.389C45.2012 139.414 45.2392 139.448 45.2686 139.489C45.298 139.529 45.3179 139.576 45.327 139.626C45.3361 139.676 45.3341 139.726 45.3212 139.775C45.3082 139.824 45.2847 139.869 45.2522 139.908C45.12 140.067 44.942 140.181 44.7424 140.236C44.6806 140.242 44.6184 140.242 44.5566 140.236C44.6006 140.492 44.6791 140.74 44.7899 140.975C44.921 141.255 45.0818 141.52 45.2694 141.765C45.3804 141.709 45.4943 141.658 45.6107 141.614C45.6597 141.598 45.7118 141.593 45.7629 141.601C45.8139 141.608 45.8624 141.628 45.9045 141.658C45.9466 141.688 45.981 141.727 46.005 141.773C46.0291 141.818 46.042 141.869 46.0427 141.921C46.0295 142.102 45.9826 142.279 45.9045 142.443C46.1721 142.67 46.4615 142.87 46.7685 143.04L46.8635 142.983C46.9326 142.945 47.0061 142.91 47.0752 142.88C47.1161 142.858 47.1597 142.842 47.2048 142.832C47.2596 142.816 47.3176 142.814 47.3735 142.826C47.4293 142.838 47.4812 142.864 47.5245 142.901C47.5686 142.941 47.6014 142.991 47.6197 143.047C47.6379 143.103 47.6408 143.163 47.6282 143.221C47.6126 143.282 47.5923 143.341 47.5677 143.398C47.9517 143.538 48.3653 143.577 48.7686 143.51C48.9156 143.203 49.044 142.887 49.1531 142.564C49.0494 142.543 48.9458 142.517 48.8464 142.487C48.7293 142.457 48.6266 142.387 48.557 142.288C48.4943 142.184 48.4727 142.061 48.4965 141.942C48.5233 141.825 48.5956 141.722 48.6975 141.657C48.7994 141.593 48.9228 141.571 49.0408 141.597C49.1618 141.631 49.287 141.662 49.4123 141.687C49.5338 141.195 49.5862 140.687 49.5678 140.18H49.5376C49.3525 140.267 49.176 140.371 49.0106 140.491C48.9086 140.556 48.7851 140.577 48.6672 140.551C48.5493 140.524 48.4467 140.452 48.382 140.35C48.3173 140.248 48.2957 140.125 48.322 140.007C48.3484 139.889 48.4204 139.787 48.5224 139.722L48.5008 139.752Z" fill="white"></path><path d="M35.8561 142.884C35.7654 143.519 37.4847 143.938 38.8801 144.18C38.7678 145.334 38.0161 146.5 36.9404 147.589C35.6055 146.837 33.7047 145.861 33.3548 146.085C33.0049 146.31 34.9187 147.61 36.1369 148.353C35.2669 149.114 34.3445 149.813 33.3764 150.444C32.7803 149.883 32.0804 149.394 31.6484 149.658C31.2164 149.921 31.3331 150.798 31.5447 151.567C30.0932 152.431 29.0089 152.928 29.0089 152.928C28.5999 151.577 28.2894 150.198 28.0801 148.803C28.1535 148.66 28.227 148.513 28.2918 148.371C28.5251 147.831 28.2918 147.602 27.9116 147.507C27.8081 146.521 27.8081 145.528 27.9116 144.543C29.5489 144.197 31.5447 143.562 30.7974 142.577C30.3654 141.981 29.523 141.917 28.6633 142.063C28.7813 141.867 28.9173 141.682 29.0694 141.51C32.0588 138.223 34.1411 141.51 34.1411 141.51C35.8691 140.068 38.3142 140.456 38.8412 142.716C37.8303 142.474 35.9641 142.102 35.8561 142.884Z" fill="#00A0AF"></path><path opacity="0.5" d="M35.8561 142.884C35.7654 143.519 37.4847 143.938 38.8801 144.18C38.7678 145.334 38.0161 146.5 36.9404 147.589C35.6055 146.837 33.7047 145.861 33.3548 146.085C33.0049 146.31 34.9187 147.61 36.1369 148.353C35.2669 149.114 34.3445 149.813 33.3764 150.444C32.7803 149.883 32.0804 149.394 31.6484 149.658C31.2164 149.921 31.3331 150.798 31.5447 151.567C30.0932 152.431 29.0089 152.928 29.0089 152.928C28.5999 151.577 28.2894 150.198 28.0801 148.803C28.1535 148.66 28.227 148.513 28.2918 148.371C28.5251 147.831 28.2918 147.602 27.9116 147.507C27.8081 146.521 27.8081 145.528 27.9116 144.543C29.5489 144.197 31.5447 143.562 30.7974 142.577C30.3654 141.981 29.523 141.917 28.6633 142.063C28.7813 141.867 28.9173 141.682 29.0694 141.51C32.0588 138.223 34.1411 141.51 34.1411 141.51C35.8691 140.068 38.3142 140.456 38.8412 142.716C37.8303 142.474 35.9641 142.102 35.8561 142.884Z" fill="white"></path><path d="M57.1621 109.106L49.9736 161.179L89.29 157.278L73.1202 108.985L57.1621 109.106Z" fill="#00A0AF"></path><path opacity="0.4" d="M57.1621 109.106L49.9736 161.179L89.29 157.278L73.1202 108.985L57.1621 109.106Z" fill="white"></path><path d="M88.3696 88.5599L95.0656 85.1687C96.1289 85.2481 97.1979 85.1988 98.2494 85.0218C99.9774 84.7237 100.349 84.7064 100.142 83.3456C99.9342 81.9848 100.224 80.1704 99.7096 79.9804C99.1955 79.7903 95.3421 81.5744 94.7157 82.6156L88.1968 84.7756L88.3696 88.5599Z" fill="#E4897B"></path><path d="M70.5928 81.4104V89.1864C70.5928 89.1864 72.2517 89.735 74.3123 90.3096C76.6753 90.9662 79.5654 91.6574 81.0688 91.584C83.8768 91.4458 94.504 85.8082 94.504 85.8082L93.5665 82.417C93.5665 82.417 81.2848 86.737 79.9888 86.4994C78.6928 86.2618 70.5928 81.4104 70.5928 81.4104Z" fill="#00A0AF"></path><path opacity="0.7" d="M70.5928 81.4104V89.1864C70.5928 89.1864 72.2517 89.735 74.3123 90.3096C76.6753 90.9662 79.5654 91.6574 81.0688 91.584C83.8768 91.4458 94.504 85.8082 94.504 85.8082L93.5665 82.417C93.5665 82.417 81.2848 86.737 79.9888 86.4994C78.6928 86.2618 70.5928 81.4104 70.5928 81.4104Z" fill="white"></path><path opacity="0.2" d="M70.5928 85.199V89.1907C70.5928 89.1907 72.2517 89.7393 74.3123 90.3139C73.552 87.9983 71.6555 86.1105 70.5928 85.199Z" fill="black"></path><path d="M67.9188 175.954L65.3613 174.683L66.7437 170.839L68.0052 167.344L71.297 168.342L69.5128 172.368L67.9188 175.954Z" fill="#E4897B"></path><path opacity="0.2" d="M68.6751 174.178L66.0054 172.895L67.202 169.365L70.4939 170.359L68.6751 174.178Z" fill="black"></path><path d="M64.9641 174.096C65.111 173.819 68.4677 175.759 68.4677 175.759C68.4677 175.759 69.5261 178.986 71.3534 180.511C73.1808 182.036 71.4096 182.671 69.0941 181.544L63.3657 178.705C61.7198 177.889 63.4435 176.995 64.9641 174.096Z" fill="#263238"></path><path d="M70.1998 177.63C69.7073 177.742 68.8087 176.632 68.6316 176.407C68.6293 176.396 68.6293 176.384 68.6316 176.373C68.6295 176.361 68.6295 176.35 68.6316 176.338C68.6297 176.327 68.6297 176.315 68.6316 176.304C68.6303 176.292 68.6303 176.28 68.6316 176.269C68.6662 176.239 69.3574 175.578 69.9276 175.617C70.0121 175.622 70.0944 175.646 70.169 175.686C70.2435 175.727 70.3085 175.782 70.3596 175.85C70.4806 176.005 70.5108 176.139 70.446 176.256C70.3812 176.373 70.014 176.494 69.6511 176.502C69.9353 176.587 70.1898 176.75 70.3855 176.973C70.4184 177.02 70.4414 177.074 70.4533 177.13C70.4652 177.187 70.4656 177.245 70.4547 177.301C70.4449 177.364 70.4217 177.423 70.3866 177.475C70.3515 177.527 70.3055 177.571 70.2516 177.604L70.1998 177.63ZM70.1523 177.431C70.1739 177.431 70.2343 177.409 70.2646 177.258C70.2704 177.228 70.27 177.198 70.2633 177.168C70.2566 177.138 70.2438 177.11 70.2257 177.085C70.0486 176.818 69.4092 176.615 68.9772 176.507C69.3833 176.977 69.9233 177.483 70.1523 177.431ZM68.9556 176.256C69.5647 176.316 70.1955 176.295 70.2819 176.139C70.3078 176.096 70.2516 176.01 70.2128 175.962C70.1779 175.917 70.1336 175.879 70.0829 175.852C70.0322 175.825 69.9763 175.81 69.919 175.807C69.7577 175.807 69.599 175.847 69.4568 175.923C69.2776 176.015 69.1095 176.126 68.9556 176.256Z" fill="#00A0AF"></path><path d="M72.4721 110.981C72.4721 110.981 80.9177 130.935 82.2439 139.691C83.5702 148.448 70.0658 172.342 70.0658 172.342L66.1346 169.901C66.1346 169.901 72.822 145.709 72.822 141.782C72.822 137.855 64.1215 119.819 64.1215 119.819C64.1215 119.819 63.2834 112.553 72.4721 110.981Z" fill="#263238"></path><g opacity="0.1"><path d="M72.4721 110.981C72.4721 110.981 80.9177 130.935 82.2439 139.691C83.5702 148.448 70.0658 172.342 70.0658 172.342L66.1346 169.901C66.1346 169.901 72.822 145.709 72.822 141.782C72.822 137.855 64.1215 119.819 64.1215 119.819C64.1215 119.819 63.2834 112.553 72.4721 110.981Z" fill="white"></path></g><path d="M65.6597 169.543L71.1634 171.742L69.8544 173.642L65.0376 171.789L65.6597 169.543Z" fill="#263238"></path><path d="M71.4052 102.358L57.4559 103.563C57.1276 98.3793 56.795 95.0399 53.7278 85.8038C53.4599 84.9959 53.1705 84.1362 52.8638 83.2118C54.7557 82.6077 56.6889 82.1413 58.6482 81.8164C60.717 81.4504 62.8085 81.2282 64.9079 81.1511C67.6252 81.1511 70.7356 81.4406 70.7356 81.4406C70.7356 81.4406 70.9818 81.6004 71.2583 84.4646C71.5132 87.1948 71.9668 92.5386 71.4052 102.358Z" fill="#00A0AF"></path><path opacity="0.3" d="M71.4051 102.358L57.4559 103.568C57.3304 100.736 56.9765 97.9185 56.3975 95.1435C55.7784 92.3972 55.0171 89.6849 54.1165 87.0176C53.9955 86.6245 53.8616 86.2184 53.7234 85.8037C53.4555 84.9958 53.1704 84.1405 52.8594 83.2117C54.7525 82.6117 56.6854 82.1454 58.6439 81.8163C60.7124 81.4497 62.8041 81.2288 64.9035 81.1554C67.6208 81.1338 70.7312 81.4448 70.7312 81.4448C70.7312 81.4448 70.9775 81.6047 71.2539 84.4688C71.5131 87.1947 71.9667 92.5386 71.4051 102.358Z" fill="black"></path><path d="M63.5255 84.3912C60.0695 83.9592 59.0586 82.4817 59.0586 82.4817C61.2186 80.4254 59.4258 76.8657 59.4258 76.8657L63.5644 77.639C63.47 78.2106 63.4152 78.7879 63.4002 79.367C63.3699 81.8769 64.5061 81.9028 64.5061 81.9028C65.2319 83.2723 63.5255 84.3912 63.5255 84.3912Z" fill="#E4897B"></path><path opacity="0.2" d="M63.5643 77.6346C63.47 78.2062 63.4152 78.7835 63.4002 79.3626C61.4087 78.9004 59.4258 76.8484 59.4258 76.8484L63.5643 77.6346Z" fill="black"></path><path d="M65.2014 177.725H62.3459L61.875 173.746L61.4517 170.096L64.8429 169.543L65.0329 173.876L65.2014 177.725Z" fill="#E4897B"></path><path d="M61.7327 177.552C61.7327 177.237 65.6207 177.487 65.6207 177.487C65.6207 177.487 68.001 179.906 70.3122 180.451C72.6234 180.995 71.3317 182.382 68.7484 182.382H62.3548C60.5101 182.369 61.6549 180.805 61.7327 177.552Z" fill="#263238"></path><path opacity="0.1" d="M61.7327 177.552C61.7327 177.237 65.6207 177.487 65.6207 177.487C65.6207 177.487 68.001 179.906 70.3122 180.451C72.6234 180.995 71.3317 182.382 68.7484 182.382H62.3548C60.5101 182.369 61.6549 180.805 61.7327 177.552Z" fill="white"></path><path d="M66.0439 177.984L66.0093 177.962C66.0071 177.952 66.0071 177.942 66.0093 177.932C66.0074 177.922 66.0074 177.912 66.0093 177.902C66.0047 177.888 66.0047 177.873 66.0093 177.859C66.0093 177.811 66.3463 176.917 66.8733 176.701C66.9518 176.665 67.0373 176.646 67.1239 176.646C67.2104 176.646 67.2959 176.665 67.3744 176.701C67.5516 176.783 67.638 176.895 67.6293 177.025C67.6293 177.228 67.3442 177.431 67.0288 177.6C67.3201 177.552 67.6189 177.585 67.8928 177.695C67.9432 177.722 67.9875 177.76 68.0231 177.805C68.0587 177.851 68.0849 177.903 68.1002 177.958C68.1278 178.028 68.1334 178.105 68.1165 178.178C68.0995 178.251 68.0607 178.318 68.0052 178.368C67.9061 178.439 67.7853 178.473 67.6639 178.464C67.0997 178.401 66.5512 178.239 66.0439 177.984ZM66.3981 177.919C66.9684 178.161 67.6941 178.377 67.8583 178.226C67.8583 178.226 67.9231 178.174 67.8842 178.023C67.8665 177.964 67.8261 177.914 67.7719 177.885C67.6361 177.824 67.4883 177.796 67.3399 177.803C67.0233 177.806 66.7078 177.841 66.3981 177.906V177.919ZM66.9338 176.887C66.6265 177.084 66.3927 177.377 66.2685 177.72C66.8431 177.5 67.396 177.202 67.4047 177.025C67.4047 176.973 67.3183 176.921 67.2664 176.9C67.2118 176.871 67.151 176.856 67.0893 176.856C67.0368 176.852 66.984 176.858 66.9338 176.874V176.887Z" fill="#00A0AF"></path><path opacity="0.2" d="M65.1025 175.366L62.1217 175.824L61.5903 172.13L64.9815 171.556L65.1025 175.366Z" fill="black"></path><path opacity="0.2" d="M68.1175 128.507C66.0655 123.85 64.1215 119.819 64.1215 119.819C64.0618 118.989 64.1436 118.155 64.3634 117.353C64.6568 117.163 64.9815 117.027 65.3224 116.951C65.3224 116.951 67.8237 120.873 68.1175 128.507Z" fill="black"></path><path d="M65.4437 116.951L65.9924 145.031V173.789H61.1237C49.6801 119.318 57.5338 105.658 57.5338 105.658H57.5641C57.5641 105.658 57.5641 105.611 57.5857 105.594C59.4217 101.516 71.4615 104.522 71.4615 104.522C72.3255 107.905 72.8828 114.774 72.8828 114.774L65.4437 116.951Z" fill="#263238"></path><path opacity="0.1" d="M65.4437 116.951L65.9924 145.031V173.789H61.1237C49.6801 119.318 57.5338 105.658 57.5338 105.658H57.5641C57.5641 105.658 57.5641 105.611 57.5857 105.594C59.4217 101.516 71.4615 104.522 71.4615 104.522C72.3255 107.905 72.8828 114.774 72.8828 114.774L65.4437 116.951Z" fill="white"></path><path d="M57.5425 103.555V105.598L71.4831 104.527V102.116L57.5425 103.555Z" fill="#263238"></path><path d="M62.1454 102.696L61.4551 102.731L61.6347 106.252L62.325 106.217L62.1454 102.696Z" fill="#263238"></path><path d="M68.1841 102.606L65.1377 102.879L65.3447 105.189L68.3911 104.917L68.1841 102.606Z" fill="white"></path><path d="M70.6532 101.767L69.9629 101.802L70.1425 105.323L70.8328 105.287L70.6532 101.767Z" fill="#263238"></path><path opacity="0.2" d="M62.1454 102.696L61.4551 102.731L61.6347 106.252L62.325 106.217L62.1454 102.696Z" fill="white"></path><path opacity="0.2" d="M70.6532 101.767L69.9629 101.802L70.1425 105.323L70.8328 105.287L70.6532 101.767Z" fill="white"></path><path d="M60.5103 173.115L66.4935 172.238L65.9923 174.627L61.0546 175.293L60.5103 173.115Z" fill="#263238"></path><path d="M65.1452 81.501L63.158 83.0864L59.4126 82.3045L60.1988 85.7389L66.9337 84.7539L65.1452 81.501Z" fill="#00A0AF"></path><path opacity="0.3" d="M65.1452 81.501L63.158 83.0864L59.4126 82.3045L60.1988 85.7389L66.9337 84.7539L65.1452 81.501Z" fill="black"></path><path d="M63.1753 83.0865L61.2918 85.739L58.1685 83.2032L59.7798 81.1123L63.1753 83.0865Z" fill="#00A0AF"></path><path d="M63.1758 83.0866L65.3703 84.8881L64.9081 82.0671L63.6423 80.4514L63.1758 83.0866Z" fill="#00A0AF"></path><path d="M52.8639 83.2333L59.5729 81.2893L65.1457 105.01L63.5948 163.832L49.9868 161.378C51.11 139.778 52.9158 119.526 57.3308 104.354L52.8639 83.2333Z" fill="#00A0AF"></path><path opacity="0.8" d="M52.8637 83.2333L59.5554 81.2893L65.1325 105.01L63.5816 163.832L49.9736 161.378C51.0968 139.778 52.8983 119.526 57.3176 104.354L52.8637 83.2333Z" fill="white"></path><path opacity="0.7" d="M57.9053 81.7386L57.5122 88.0458L59.8796 90.1842L57.9356 91.9856L64.9988 111.223L65.1629 105.015L59.5728 81.2893L57.9053 81.7386Z" fill="white"></path><path d="M70.7354 81.4623C73.3577 88.8063 72.8954 96.0639 71.4828 104.259L89.3028 157.477L79.3668 162.069C76.0188 138.862 72.8134 113.845 68.3681 104.341C68.2428 96.0682 68.4588 87.7176 63.6938 80.5076L70.7354 81.4623Z" fill="#00A0AF"></path><path opacity="0.8" d="M70.7354 81.4623C73.3577 88.8063 72.8954 96.0639 71.4828 104.259L89.3028 157.477L79.3668 162.069C76.1225 138.676 72.9386 114.666 68.3681 104.341C68.2428 96.0682 68.4588 87.7176 63.6938 80.5076L70.7354 81.4623Z" fill="white"></path><path opacity="0.7" d="M63.6855 80.5076L65.163 80.7063L69.5521 86.1495L68.3598 88.0935L70.0316 89.3895L71.1159 112.683C70.3965 109.835 69.4755 107.041 68.3598 104.324C68.1913 93.0269 67.3403 85.6354 63.6855 80.5076Z" fill="white"></path><path d="M55.0537 67.824C55.2198 67.4396 55.4922 67.1105 55.8388 66.8756C56.1855 66.6406 56.5921 66.5096 57.0107 66.4978H59.1707L57.5377 70.766L57.6328 76.1141L56.9113 74.4855L56.7083 76.1141C56.7083 76.1141 54.9803 72.4076 54.8637 71.3146C54.747 70.2216 54.5181 69.146 55.0537 67.824Z" fill="#263238"></path><path d="M61.681 65.5127C65.3573 65.3139 66.649 67.2147 67.1242 70.9904C67.7204 75.7079 66.8563 79.1293 62.2037 78.369C55.8836 77.3279 55.5725 65.8496 61.681 65.5127Z" fill="#E4897B"></path><path d="M64.7349 70.917C65.0613 71.4482 65.4484 71.9396 65.8883 72.3815C65.7894 72.5396 65.6487 72.6673 65.4817 72.7504C65.3147 72.8335 65.128 72.8688 64.9422 72.8524L64.7349 70.917Z" fill="#A24E3F"></path><path d="M62.4713 70.7356C62.4713 71.038 62.3504 71.2972 62.1473 71.3101C61.9443 71.3231 61.7672 71.0941 61.7413 70.796C61.7153 70.498 61.8622 70.2344 62.0609 70.2215C62.2597 70.2085 62.4454 70.4375 62.4713 70.7356Z" fill="#2E353A"></path><path d="M61.979 70.2432L62.6184 69.9321C62.6184 69.9321 62.3332 70.511 61.979 70.2432Z" fill="#2E353A"></path><path d="M66.2166 70.3814C66.2382 70.6838 66.0957 70.9386 65.8926 70.9559C65.6896 70.9732 65.5081 70.7399 65.4865 70.4375C65.4649 70.1351 65.6075 69.8802 65.8062 69.863C66.0049 69.8457 66.1907 70.079 66.2166 70.3814Z" fill="#2E353A"></path><path d="M65.7241 69.8846L66.3592 69.5779C66.3592 69.5779 66.0956 70.1524 65.7241 69.8846Z" fill="#2E353A"></path><path d="M60.7303 68.999C60.6974 69.0005 60.6651 68.9897 60.6396 68.9688C60.6228 68.9572 60.6085 68.9423 60.5976 68.925C60.5866 68.9077 60.5793 68.8884 60.5761 68.8682C60.5729 68.848 60.5738 68.8273 60.5788 68.8075C60.5837 68.7877 60.5927 68.7691 60.605 68.7528C60.8138 68.5101 61.0765 68.3196 61.372 68.1966C61.6676 68.0736 61.9878 68.0214 62.3071 68.0443C62.348 68.0487 62.3856 68.0686 62.4122 68.1C62.4387 68.1314 62.4521 68.1718 62.4497 68.2128C62.4481 68.2332 62.4424 68.2532 62.433 68.2714C62.4237 68.2897 62.4108 68.3059 62.3951 68.3191C62.3795 68.3324 62.3613 68.3424 62.3418 68.3486C62.3222 68.3548 62.3016 68.3571 62.2812 68.3553C62.0154 68.3387 61.7492 68.3821 61.5024 68.4823C61.2557 68.5825 61.0346 68.737 60.8556 68.9342C60.8416 68.9544 60.8228 68.9708 60.801 68.9821C60.7792 68.9934 60.7549 68.9992 60.7303 68.999Z" fill="#2E353A"></path><path d="M66.4416 68.2776C66.4129 68.2772 66.3847 68.2698 66.3595 68.256C66.1673 68.1207 65.9466 68.0313 65.7145 67.9946C65.4823 67.9579 65.2449 67.9749 65.0203 68.0443C64.9836 68.0535 64.9448 68.0493 64.9108 68.0325C64.8769 68.0158 64.85 67.9875 64.8349 67.9527C64.8199 67.918 64.8177 67.879 64.8287 67.8428C64.8397 67.8065 64.8632 67.7754 64.895 67.7549C65.1656 67.6668 65.4527 67.642 65.7343 67.6824C66.016 67.7229 66.2845 67.8275 66.5193 67.9882C66.5486 68.0055 66.5714 68.0318 66.5843 68.0633C66.5971 68.0948 66.5993 68.1296 66.5905 68.1624C66.5817 68.1953 66.5623 68.2243 66.5354 68.2451C66.5085 68.2659 66.4756 68.2773 66.4416 68.2776Z" fill="#2E353A"></path><path d="M64.4886 74.3254C64.3368 74.7482 64.2155 75.1813 64.1257 75.6214H63.8881C62.8124 75.5739 62.3329 75.1894 62.1212 74.7877C62.0243 74.5887 61.9754 74.3696 61.9787 74.1483C61.9774 74.0212 61.9949 73.8945 62.0305 73.7725C62.6807 74.0996 63.394 74.2823 64.1214 74.3081C64.3676 74.3254 64.4886 74.3254 64.4886 74.3254Z" fill="#2E353A"></path><path d="M64.1218 74.304L64.0051 74.6842C62.9899 74.6366 62.2771 74.4638 61.9791 74.1442C61.9778 74.017 61.9953 73.8904 62.0309 73.7683C62.6811 74.0955 63.3944 74.2782 64.1218 74.304Z" fill="white"></path><path d="M63.8885 75.5999C62.8128 75.5524 62.3333 75.1679 62.1216 74.7661C62.53 74.7956 62.9304 74.8949 63.3053 75.0599C63.5514 75.1743 63.7554 75.3632 63.8885 75.5999Z" fill="#DE5753"></path><path d="M58.0003 71.9324C58.0003 71.9324 59.5555 68.8176 59.1667 66.4978C59.1667 66.4978 66.2904 63.1239 67.055 70.4981C67.055 70.4981 67.405 63.8928 61.0762 64.0916C54.7474 64.2903 55.283 73.5394 58.6958 76.1141C58.6958 76.1141 57.024 73.872 58.0003 71.9324Z" fill="#263238"></path><path d="M58.6439 72.6752C58.6152 72.4652 58.5454 72.2629 58.4384 72.0799C58.3314 71.8969 58.1894 71.7368 58.0204 71.6088C57.8515 71.4808 57.659 71.3873 57.4538 71.3339C57.2487 71.2804 57.0351 71.2679 56.8251 71.2971C55.6933 71.4829 55.2786 73.8502 58.1427 74.2563C58.5531 74.3038 58.7519 73.9064 58.6439 72.6752Z" fill="#E4897B"></path><path d="M57.0238 66.4977C57.0238 66.4977 56.4277 64.571 58.0779 63.4521C59.7282 62.3332 62.6269 62.8214 64.5018 63.4521C66.3766 64.0828 68.2558 69.5779 68.2558 69.5779C67.3257 68.2007 66.2108 66.9579 64.9424 65.8843L59.7584 65.8367L59.1838 66.4977H57.0238Z" fill="#263238"></path><path d="M54.4533 68.3985C50.4184 66.3336 45.2647 70.1697 47.4333 73.2715C47.7659 77.8377 50.777 77.9803 52.5698 74.8353C55.1618 72.7358 54.4922 70.9171 53.4727 69.1286C53.2696 69.8284 53.7189 71.0251 51.1139 71.9798L50.5178 71.6083C52.3322 69.4483 53.4727 70.0272 54.6693 70.4246L54.4533 68.3985Z" fill="#2E353A"></path><path d="M45.3037 76.2392C46.0597 71.5563 47.684 68.4632 50.7512 67.9534L51.9608 67.8152C48.7554 68.4977 46.63 71.5045 45.3037 76.2392Z" fill="#2E353A"></path><path d="M47.1743 75.8938C46.5695 71.2239 48.3579 68.58 52.3583 67.8284L50.2933 68.0444C47.0879 69.2669 46.2671 72.0231 47.1743 75.8938Z" fill="#2E353A"></path><path d="M54.2979 68.3595L54.4879 70.3942C54.5272 70.4409 54.5772 70.4775 54.6336 70.5008C54.69 70.5241 54.7511 70.5335 54.8119 70.5282C54.8702 70.5238 54.9263 70.5044 54.9747 70.4718C55.0232 70.4393 55.0624 70.3947 55.0884 70.3424L54.9459 68.325C54.9224 68.2605 54.8794 68.2051 54.8228 68.1663C54.7663 68.1276 54.699 68.1075 54.6305 68.109C54.5584 68.1193 54.4901 68.1477 54.432 68.1915C54.3738 68.2353 54.3277 68.2931 54.2979 68.3595Z" fill="#00A0AF"></path><path d="M77.5178 102.129L80.8874 101.027L80.3215 105.136C80.3215 105.136 77.9196 105.196 76.5977 103.321L77.5178 102.129Z" fill="#E4897B"></path><path d="M84.1579 102.25L83.1687 105.222L80.3218 105.136L80.8877 101.027L84.1579 102.25Z" fill="#E4897B"></path><path d="M74.6193 100.198L78.7449 101.732L77.8593 104.229L73.6646 102.622L74.6193 100.198Z" fill="#E4897B"></path><path d="M56.9416 83.8684C55.7708 82.1879 53.3517 82.4169 52.3019 83.687C51.2521 84.957 51.6496 87.143 52.8073 88.9271C55.3345 93.7396 60.5056 98.2756 62.5273 99.213L76.2044 104.25L77.3233 100.565L64.5966 94.677C62.7304 93.4113 59.6761 88.0718 56.9416 83.8684Z" fill="#00A0AF"></path><path opacity="0.7" d="M56.9416 83.8684C55.7708 82.1879 53.3517 82.4169 52.3019 83.687C51.2521 84.957 51.6496 87.143 52.8073 88.9271C55.3345 93.7396 60.5056 98.2756 62.5273 99.213L76.2044 104.25L77.3233 100.565L64.5966 94.677C62.7304 93.4113 59.6761 88.0718 56.9416 83.8684Z" fill="white"></path><path opacity="0.2" d="M97.537 80.7838C97.6277 81.1078 97.8956 81.3152 98.1332 81.2461C98.2593 81.1851 98.3573 81.0781 98.4071 80.9472C98.4569 80.8163 98.4547 80.6713 98.401 80.5419C98.306 80.2179 98.0424 80.0149 97.8048 80.0797C97.6788 80.1407 97.5808 80.2476 97.531 80.3785C97.4812 80.5094 97.4833 80.6544 97.537 80.7838Z" fill="white"></path></svg>