<svg xmlns="http://www.w3.org/2000/svg" width="216" height="216" viewBox="0 0 216 216" fill="none"><path d="M216 165.197H0V165.305H216V165.197Z" fill="#EBEBEB"></path><path d="M194.357 172.148H180.049V172.256H194.357V172.148Z" fill="#EBEBEB"></path><path d="M143.087 173.323H139.333V173.431H143.087V173.323Z" fill="#EBEBEB"></path><path d="M179.617 168.139H171.327V168.247H179.617V168.139Z" fill="#EBEBEB"></path><path d="M41.3207 168.865H22.6626V168.973H41.3207V168.865Z" fill="#EBEBEB"></path><path d="M47.9045 168.865H45.1699V168.973H47.9045V168.865Z" fill="#EBEBEB"></path><path d="M97.2647 170.688H56.7949V170.796H97.2647V170.688Z" fill="#EBEBEB"></path><path d="M102.384 145.93H18.9692C18.3158 145.928 17.6895 145.668 17.2278 145.206C16.7661 144.743 16.5068 144.116 16.5068 143.463V26.2051C16.5125 25.5554 16.7743 24.9342 17.2354 24.4764C17.6964 24.0185 18.3195 23.7611 18.9692 23.76H102.384C103.038 23.76 103.666 24.0199 104.128 24.4825C104.591 24.9451 104.851 25.5725 104.851 26.2267V143.463C104.851 144.117 104.591 144.745 104.128 145.207C103.666 145.67 103.038 145.93 102.384 145.93ZM18.9692 23.8464C18.3444 23.8476 17.7456 24.0966 17.3042 24.5388C16.8627 24.981 16.6148 25.5803 16.6148 26.2051V143.463C16.6148 144.088 16.8627 144.687 17.3042 145.129C17.7456 145.571 18.3444 145.82 18.9692 145.822H102.384C103.009 145.82 103.609 145.572 104.051 145.129C104.493 144.687 104.742 144.088 104.743 143.463V26.2051C104.742 25.5799 104.493 24.9806 104.051 24.5385C103.609 24.0964 103.009 23.8476 102.384 23.8464H18.9692Z" fill="#EBEBEB"></path><path d="M195.83 145.93H112.411C111.757 145.928 111.13 145.668 110.668 145.206C110.205 144.744 109.945 144.117 109.944 143.463V26.2051C109.951 25.555 110.213 24.9338 110.675 24.4761C111.137 24.0184 111.76 23.7611 112.411 23.76H195.83C196.479 23.7623 197.101 24.0202 197.561 24.4779C198.021 24.9356 198.282 25.5562 198.288 26.2051V143.463C198.288 144.116 198.029 144.742 197.568 145.204C197.108 145.666 196.482 145.927 195.83 145.93ZM112.411 23.8464C111.785 23.8476 111.186 24.0964 110.744 24.5385C110.302 24.9806 110.053 25.5799 110.052 26.2051V143.463C110.053 144.088 110.302 144.687 110.744 145.129C111.186 145.572 111.785 145.82 112.411 145.822H195.83C196.455 145.82 197.054 145.572 197.496 145.129C197.938 144.687 198.187 144.088 198.188 143.463V26.2051C198.187 25.5799 197.938 24.9806 197.496 24.5385C197.054 24.0964 196.455 23.8476 195.83 23.8464H112.411Z" fill="#EBEBEB"></path><path d="M113.81 149.127C115.948 148.682 117.983 147.836 119.806 146.634L122.398 148.794L127.008 144.193L124.848 141.601C126.05 139.778 126.896 137.743 127.34 135.605L130.684 135.294V128.814L127.34 128.499C126.898 126.354 126.052 124.314 124.848 122.485L127.008 119.893L122.403 115.301L119.811 117.461C117.986 116.261 115.952 115.415 113.815 114.968L113.499 111.629H107.019L106.704 114.955C104.566 115.402 102.532 116.248 100.708 117.448L98.1156 115.288L93.5235 119.88L95.6835 122.472C94.4832 124.296 93.6375 126.331 93.1909 128.468L89.8472 128.784V135.264L93.1909 135.575C93.6367 137.713 94.4824 139.747 95.6835 141.571L93.5235 144.163L98.1156 148.751L100.708 146.591C102.528 147.808 104.562 148.669 106.704 149.127L107.019 152.47H113.499L113.81 149.127ZM101.464 132.041C101.465 130.303 101.981 128.605 102.947 127.16C103.913 125.716 105.285 124.59 106.891 123.926C108.497 123.262 110.263 123.088 111.967 123.428C113.672 123.767 115.237 124.604 116.465 125.833C117.694 127.063 118.53 128.628 118.869 130.333C119.208 132.037 119.033 133.803 118.368 135.409C117.703 137.014 116.577 138.386 115.132 139.352C113.687 140.317 111.988 140.832 110.251 140.832C109.096 140.832 107.953 140.605 106.887 140.163C105.821 139.721 104.852 139.073 104.036 138.257C103.22 137.441 102.573 136.471 102.131 135.405C101.69 134.338 101.463 133.195 101.464 132.041Z" fill="#FAFAFA"></path><path d="M61.1119 70.5751L41.2388 67.8599L38.5236 87.733L58.3967 90.4482L61.1119 70.5751Z" fill="#F5F5F5"></path><path d="M44.1623 73.3089L43.9868 74.593L56.926 76.3609L57.1014 75.0768L44.1623 73.3089Z" fill="#E0E0E0"></path><path d="M43.6095 77.3402L43.4341 78.6243L56.3732 80.3921L56.5487 79.108L43.6095 77.3402Z" fill="#E0E0E0"></path><path d="M43.0436 81.5065L42.8682 82.7905L50.487 83.8315L50.6624 82.5474L43.0436 81.5065Z" fill="#E0E0E0"></path><path d="M172.376 48.4991L152.319 48.5691L152.389 68.6267L172.446 68.5567L172.376 48.4991Z" fill="#F0F0F0"></path><path d="M169.042 53.4839L155.983 53.5317L155.988 54.8277L169.047 54.7799L169.042 53.4839Z" fill="#E0E0E0"></path><path d="M169.062 57.5532L156.002 57.6011L156.007 58.8971L169.066 58.8492L169.062 57.5532Z" fill="#E0E0E0"></path><path d="M163.703 61.7804L156.013 61.8086L156.018 63.1046L163.707 63.0764L163.703 61.7804Z" fill="#E0E0E0"></path><path d="M184.413 97.4157L164.515 99.9365L167.035 119.835L186.934 117.314L184.413 97.4157Z" fill="#F5F5F5"></path><path d="M181.719 102.792L168.764 104.433L168.927 105.719L181.882 104.077L181.719 102.792Z" fill="#E0E0E0"></path><path d="M182.231 106.826L169.275 108.467L169.438 109.753L182.394 108.111L182.231 106.826Z" fill="#E0E0E0"></path><path d="M177.432 111.672L169.803 112.639L169.966 113.925L177.595 112.958L177.432 111.672Z" fill="#E0E0E0"></path><path d="M77.7197 129.712L57.6621 129.782L57.7321 149.84L77.7898 149.77L77.7197 129.712Z" fill="#F0F0F0"></path><path d="M74.4084 134.713L61.3491 134.761L61.3539 136.057L74.4131 136.009L74.4084 134.713Z" fill="#E0E0E0"></path><path d="M74.4235 138.783L61.3643 138.831L61.369 140.127L74.4283 140.079L74.4235 138.783Z" fill="#E0E0E0"></path><path d="M69.0694 143.01L61.3799 143.038L61.3846 144.334L69.0742 144.306L69.0694 143.01Z" fill="#E0E0E0"></path><path d="M166.309 139.533L146.251 139.603L146.321 159.661L166.379 159.591L166.309 139.533Z" fill="#F0F0F0"></path><path d="M162.995 144.519L149.936 144.567L149.941 145.863L163 145.815L162.995 144.519Z" fill="#E0E0E0"></path><path d="M163.014 148.588L149.955 148.636L149.96 149.932L163.019 149.884L163.014 148.588Z" fill="#E0E0E0"></path><path d="M157.656 152.816L149.966 152.844L149.971 154.14L157.661 154.112L157.656 152.816Z" fill="#E0E0E0"></path><path d="M81.7883 47.1887L62.2075 51.5369L66.5556 71.1177L86.1364 66.7695L81.7883 47.1887Z" fill="#F0F0F0"></path><path d="M79.596 52.8013L66.8472 55.6323L67.1281 56.8975L79.8769 54.0665L79.596 52.8013Z" fill="#E0E0E0"></path><path d="M80.4798 56.7752L67.731 59.6062L68.0119 60.8714L80.7607 58.0404L80.4798 56.7752Z" fill="#E0E0E0"></path><path d="M76.1483 62.0442L68.6416 63.7112L68.9225 64.9764L76.4293 63.3094L76.1483 62.0442Z" fill="#E0E0E0"></path><path d="M42.8715 70.0272H42.5129L42.0161 67.7375H43.364L42.8715 70.0272Z" fill="#E0E0E0"></path><path d="M42.6902 69.4613C43.6971 69.4613 44.5133 68.8173 44.5133 68.0228C44.5133 67.2283 43.6971 66.5842 42.6902 66.5842C41.6834 66.5842 40.8672 67.2283 40.8672 68.0228C40.8672 68.8173 41.6834 69.4613 42.6902 69.4613Z" fill="#E6E6E6"></path><path d="M79.518 50.0385H79.1595L78.667 47.7532H80.0148L79.518 50.0385Z" fill="#E0E0E0"></path><path d="M79.341 49.477C80.3503 49.477 81.1684 48.8329 81.1684 48.0384C81.1684 47.2439 80.3503 46.5999 79.341 46.5999C78.3318 46.5999 77.5137 47.2439 77.5137 48.0384C77.5137 48.8329 78.3318 49.477 79.341 49.477Z" fill="#E6E6E6"></path><path d="M162.06 50.6132H161.702L161.205 48.3279H162.553L162.06 50.6132Z" fill="#E0E0E0"></path><path d="M161.879 50.0514C162.886 50.0514 163.702 49.4074 163.702 48.6129C163.702 47.8184 162.886 47.1743 161.879 47.1743C160.872 47.1743 160.056 47.8184 160.056 48.6129C160.056 49.4074 160.872 50.0514 161.879 50.0514Z" fill="#E6E6E6"></path><path d="M182.563 100.289H182.204L181.712 98.0034H183.06L182.563 100.289Z" fill="#E0E0E0"></path><path d="M182.386 99.7272C183.393 99.7272 184.209 99.0832 184.209 98.2887C184.209 97.4942 183.393 96.8501 182.386 96.8501C181.379 96.8501 180.563 97.4942 180.563 98.2887C180.563 99.0832 181.379 99.7272 182.386 99.7272Z" fill="#E6E6E6"></path><path d="M156.639 141.813H156.276L155.784 139.523H157.132L156.639 141.813Z" fill="#E0E0E0"></path><path d="M156.457 141.247C157.464 141.247 158.28 140.603 158.28 139.808C158.28 139.014 157.464 138.37 156.457 138.37C155.45 138.37 154.634 139.014 154.634 139.808C154.634 140.603 155.45 141.247 156.457 141.247Z" fill="#E6E6E6"></path><path d="M67.1674 131.531H66.8089L66.3164 129.241H67.6643L67.1674 131.531Z" fill="#E0E0E0"></path><path d="M66.99 130.965C67.9969 130.965 68.8131 130.321 68.8131 129.526C68.8131 128.732 67.9969 128.088 66.99 128.088C65.9832 128.088 65.167 128.732 65.167 129.526C65.167 130.321 65.9832 130.965 66.99 130.965Z" fill="#E6E6E6"></path><path d="M108 184.706C154.26 184.706 191.761 182.517 191.761 179.816C191.761 177.115 154.26 174.926 108 174.926C61.7406 174.926 24.2397 177.115 24.2397 179.816C24.2397 182.517 61.7406 184.706 108 184.706Z" fill="#F5F5F5"></path><path d="M62.0654 107.499C62.0654 104.652 63.936 102.315 66.2386 102.315C68.5411 102.315 70.4117 104.63 70.4117 107.499C70.4117 110.367 68.5411 112.657 66.2386 112.657C63.936 112.657 62.0654 110.346 62.0654 107.499ZM62.9294 107.499C62.9294 109.866 64.4155 111.793 66.2386 111.793C68.0616 111.793 69.5477 109.866 69.5477 107.499C69.5477 105.132 68.0659 103.179 66.2386 103.179C64.4112 103.179 62.9294 105.132 62.9294 107.499Z" fill="#263238"></path><path d="M53.8535 107.499C53.8535 104.652 55.7241 102.315 58.0266 102.315C60.3292 102.315 62.1998 104.63 62.1998 107.499C62.1998 110.367 60.3292 112.657 58.0266 112.657C55.7241 112.657 53.8535 110.346 53.8535 107.499ZM54.7175 107.499C54.7175 109.866 56.1993 111.793 58.0266 111.793C59.854 111.793 61.3358 109.866 61.3358 107.499C61.3358 105.132 59.8497 103.179 58.0266 103.179C56.2036 103.179 54.7175 105.132 54.7175 107.499Z" fill="#263238"></path><path d="M45.6367 107.499C45.6367 104.652 47.5116 102.315 49.8142 102.315C52.1167 102.315 53.9873 104.63 53.9873 107.499C53.9873 110.367 52.1124 112.657 49.8142 112.657C47.5159 112.657 45.6367 110.346 45.6367 107.499ZM46.5007 107.499C46.5007 109.866 47.9868 111.793 49.8142 111.793C51.6415 111.793 53.1233 109.866 53.1233 107.499C53.1233 105.132 51.6372 103.179 49.8142 103.179C47.9911 103.179 46.5007 105.132 46.5007 107.499Z" fill="#263238"></path><path d="M37.4243 107.499C37.4243 104.652 39.2992 102.315 41.6018 102.315C43.9043 102.315 45.7749 104.63 45.7749 107.499C45.7749 110.367 43.9 112.657 41.6018 112.657C39.3035 112.657 37.4243 110.346 37.4243 107.499ZM38.2883 107.499C38.2883 109.866 39.7744 111.793 41.6018 111.793C43.4291 111.793 44.9109 109.866 44.9109 107.499C44.9109 105.132 43.4248 103.179 41.6018 103.179C39.7787 103.179 38.2883 105.132 38.2883 107.499Z" fill="#263238"></path><path d="M70.2778 107.499C70.2778 104.652 72.1484 102.315 74.451 102.315C76.7535 102.315 78.6284 104.63 78.6284 107.499C78.6284 110.367 76.7535 112.657 74.451 112.657C72.1484 112.657 70.2778 110.346 70.2778 107.499ZM71.1418 107.499C71.1418 109.866 72.6279 111.793 74.451 111.793C76.274 111.793 77.7644 109.866 77.7644 107.499C77.7644 105.132 76.2783 103.179 74.451 103.179C72.6236 103.179 71.1418 105.132 71.1418 107.499Z" fill="#263238"></path><path d="M31.994 178.757H83.4365L83.4365 107.598H31.994L31.994 178.757Z" fill="#263238"></path><path opacity="0.7" d="M31.994 178.757H83.4365L83.4365 107.598H31.994L31.994 178.757Z" fill="white"></path><path opacity="0.6" d="M36.6293 178.757H83.4365L83.4365 107.598H36.6293L36.6293 178.757Z" fill="white"></path><path opacity="0.2" d="M33.5365 178.757L33.3205 112.255L33.1045 178.757H33.5365Z" fill="black"></path><path opacity="0.2" d="M35.6879 178.757L35.4719 116.398L35.2559 178.757H35.6879Z" fill="black"></path><path opacity="0.2" d="M34.1802 107.65L34.3962 157.646L34.6122 107.65H34.1802Z" fill="black"></path><path d="M75.6952 110.981C75.7395 111.211 75.8484 111.424 76.0093 111.595C76.1701 111.765 76.3762 111.887 76.6035 111.945C76.8307 112.003 77.0698 111.995 77.2927 111.922C77.5156 111.849 77.7132 111.714 77.8623 111.533C78.0114 111.352 78.1059 111.132 78.1347 110.899C78.1635 110.667 78.1255 110.43 78.0251 110.219C77.9247 110.007 77.766 109.828 77.5676 109.702C77.3693 109.577 77.1394 109.511 76.9048 109.512C76.5508 109.549 76.2256 109.724 75.9993 109.999C75.773 110.273 75.6638 110.626 75.6952 110.981Z" fill="#263238"></path><path d="M76.9827 111.417C77.0444 111.417 77.1052 111.403 77.1611 111.377C77.217 111.351 77.2667 111.313 77.3067 111.266C78.1771 110.205 78.6453 108.871 78.6287 107.499C78.6287 104.652 76.7538 102.315 74.4512 102.315C72.7578 102.315 71.2415 103.568 70.5935 105.499C70.5753 105.553 70.5679 105.61 70.5718 105.666C70.5756 105.723 70.5906 105.779 70.6159 105.829C70.6412 105.88 70.6762 105.926 70.7191 105.963C70.7619 106.001 70.8117 106.029 70.8656 106.047C70.9195 106.066 70.9764 106.073 71.0332 106.069C71.0899 106.065 71.1454 106.05 71.1963 106.025C71.2472 106 71.2927 105.965 71.3301 105.922C71.3675 105.879 71.3961 105.829 71.4143 105.775C71.9413 104.198 73.1423 103.183 74.4383 103.183C76.2656 103.183 77.7517 105.114 77.7517 107.503C77.77 108.668 77.3768 109.801 76.6415 110.704C76.5864 110.767 76.5507 110.844 76.5386 110.927C76.5265 111.009 76.5385 111.094 76.5732 111.169C76.6079 111.245 76.6638 111.309 76.7342 111.354C76.8046 111.399 76.8864 111.422 76.9698 111.422L76.9827 111.417Z" fill="#263238"></path><g opacity="0.4"><path d="M76.9827 111.417C77.0444 111.417 77.1052 111.403 77.1611 111.377C77.217 111.351 77.2667 111.313 77.3067 111.266C78.1771 110.205 78.6453 108.871 78.6287 107.499C78.6287 104.652 76.7538 102.315 74.4512 102.315C72.7578 102.315 71.2415 103.568 70.5935 105.499C70.5753 105.553 70.5679 105.61 70.5718 105.666C70.5756 105.723 70.5906 105.779 70.6159 105.829C70.6412 105.88 70.6762 105.926 70.7191 105.963C70.7619 106.001 70.8117 106.029 70.8656 106.047C70.9195 106.066 70.9764 106.073 71.0332 106.069C71.0899 106.065 71.1454 106.05 71.1963 106.025C71.2472 106 71.2927 105.965 71.3301 105.922C71.3675 105.879 71.3961 105.829 71.4143 105.775C71.9413 104.198 73.1423 103.183 74.4383 103.183C76.2656 103.183 77.7517 105.114 77.7517 107.503C77.77 108.668 77.3768 109.801 76.6415 110.704C76.5864 110.767 76.5507 110.844 76.5386 110.927C76.5265 111.009 76.5385 111.094 76.5732 111.169C76.6079 111.245 76.6638 111.309 76.7342 111.354C76.8046 111.399 76.8864 111.422 76.9698 111.422L76.9827 111.417Z" fill="white"></path></g><path d="M67.4828 110.981C67.5279 111.21 67.637 111.421 67.7975 111.59C67.958 111.76 68.1633 111.88 68.3894 111.937C68.6156 111.994 68.8533 111.986 69.075 111.913C69.2966 111.84 69.493 111.706 69.6413 111.526C69.7896 111.346 69.8837 111.127 69.9126 110.896C69.9415 110.664 69.9041 110.429 69.8047 110.218C69.7052 110.007 69.5479 109.829 69.351 109.704C69.1541 109.579 68.9257 109.512 68.6924 109.512C68.3384 109.549 68.0132 109.724 67.7869 109.999C67.5606 110.273 67.4514 110.626 67.4828 110.981Z" fill="#263238"></path><path d="M68.766 111.417C68.8284 111.417 68.8901 111.404 68.9468 111.378C69.0034 111.351 69.0538 111.313 69.0943 111.266C69.9635 110.205 70.4301 108.871 70.4119 107.499C70.4119 104.652 68.5414 102.315 66.2388 102.315C64.5411 102.315 63.0291 103.568 62.3811 105.499C62.3444 105.608 62.3525 105.727 62.4035 105.829C62.4546 105.932 62.5444 106.011 62.6532 106.047C62.7621 106.084 62.881 106.076 62.9839 106.025C63.0868 105.974 63.1652 105.884 63.2019 105.775C63.7289 104.198 64.9299 103.183 66.2259 103.183C68.0532 103.183 69.535 105.114 69.535 107.503C69.5549 108.667 69.1632 109.801 68.4291 110.704C68.3743 110.767 68.3386 110.844 68.3263 110.926C68.3141 111.008 68.3257 111.092 68.3599 111.167C68.3941 111.243 68.4494 111.307 68.5191 111.352C68.5888 111.397 68.67 111.421 68.7531 111.422L68.766 111.417Z" fill="#263238"></path><g opacity="0.4"><path d="M68.766 111.417C68.8284 111.417 68.8901 111.404 68.9468 111.378C69.0034 111.351 69.0538 111.313 69.0943 111.266C69.9635 110.205 70.4301 108.871 70.4119 107.499C70.4119 104.652 68.5414 102.315 66.2388 102.315C64.5411 102.315 63.0291 103.568 62.3811 105.499C62.3444 105.608 62.3525 105.727 62.4035 105.829C62.4546 105.932 62.5444 106.011 62.6532 106.047C62.7621 106.084 62.881 106.076 62.9839 106.025C63.0868 105.974 63.1652 105.884 63.2019 105.775C63.7289 104.198 64.9299 103.183 66.2259 103.183C68.0532 103.183 69.535 105.114 69.535 107.503C69.5549 108.667 69.1632 109.801 68.4291 110.704C68.3743 110.767 68.3386 110.844 68.3263 110.926C68.3141 111.008 68.3257 111.092 68.3599 111.167C68.3941 111.243 68.4494 111.307 68.5191 111.352C68.5888 111.397 68.67 111.421 68.7531 111.422L68.766 111.417Z" fill="white"></path></g><path d="M59.2661 110.981C59.3104 111.211 59.4192 111.424 59.5798 111.594C59.7404 111.765 59.9463 111.886 60.1733 111.944C60.4004 112.003 60.6392 111.995 60.8621 111.922C61.0849 111.85 61.2825 111.715 61.4318 111.535C61.5811 111.354 61.6759 111.135 61.7052 110.902C61.7346 110.67 61.6972 110.433 61.5974 110.221C61.4976 110.009 61.3396 109.83 61.1417 109.704C60.9439 109.579 60.7144 109.512 60.4801 109.512C60.1257 109.549 59.8001 109.724 59.5731 109.998C59.3461 110.273 59.2359 110.626 59.2661 110.981Z" fill="#263238"></path><path d="M60.5535 111.417C60.6159 111.417 60.6776 111.404 60.7343 111.378C60.7909 111.351 60.8413 111.313 60.8818 111.266C61.7433 110.202 62.2021 108.868 62.1778 107.499C62.1778 104.652 60.3073 102.315 58.0047 102.315C56.307 102.315 54.795 103.568 54.147 105.499C54.1287 105.553 54.1212 105.61 54.125 105.666C54.1288 105.723 54.1437 105.779 54.169 105.83C54.1943 105.881 54.2294 105.926 54.2723 105.963C54.3153 106.001 54.3651 106.029 54.4191 106.047C54.473 106.066 54.53 106.073 54.5868 106.069C54.6436 106.066 54.699 106.051 54.75 106.025C54.801 106 54.8465 105.965 54.8838 105.922C54.9212 105.879 54.9497 105.829 54.9678 105.775C55.4948 104.198 56.6958 103.183 57.9918 103.183C59.8148 103.183 61.3009 105.114 61.3009 107.503C61.3214 108.668 60.928 109.802 60.1906 110.704C60.1356 110.767 60.0999 110.844 60.0878 110.927C60.0756 111.009 60.0877 111.094 60.1224 111.169C60.1571 111.245 60.213 111.309 60.2834 111.354C60.3538 111.399 60.4356 111.422 60.519 111.422L60.5535 111.417Z" fill="#263238"></path><g opacity="0.4"><path d="M60.5535 111.417C60.6159 111.417 60.6776 111.404 60.7343 111.378C60.7909 111.351 60.8413 111.313 60.8818 111.266C61.7433 110.202 62.2021 108.868 62.1778 107.499C62.1778 104.652 60.3073 102.315 58.0047 102.315C56.307 102.315 54.795 103.568 54.147 105.499C54.1287 105.553 54.1212 105.61 54.125 105.666C54.1288 105.723 54.1437 105.779 54.169 105.83C54.1943 105.881 54.2294 105.926 54.2723 105.963C54.3153 106.001 54.3651 106.029 54.4191 106.047C54.473 106.066 54.53 106.073 54.5868 106.069C54.6436 106.066 54.699 106.051 54.75 106.025C54.801 106 54.8465 105.965 54.8838 105.922C54.9212 105.879 54.9497 105.829 54.9678 105.775C55.4948 104.198 56.6958 103.183 57.9918 103.183C59.8148 103.183 61.3009 105.114 61.3009 107.503C61.3214 108.668 60.928 109.802 60.1906 110.704C60.1356 110.767 60.0999 110.844 60.0878 110.927C60.0756 111.009 60.0877 111.094 60.1224 111.169C60.1571 111.245 60.213 111.309 60.2834 111.354C60.3538 111.399 60.4356 111.422 60.519 111.422L60.5535 111.417Z" fill="white"></path></g><path d="M51.0537 110.981C51.098 111.211 51.2068 111.424 51.3674 111.595C51.528 111.765 51.7339 111.887 51.9609 111.945C52.188 112.003 52.4268 111.995 52.6497 111.922C52.8725 111.85 53.0701 111.715 53.2194 111.535C53.3687 111.354 53.4635 111.135 53.4928 110.902C53.5222 110.67 53.4848 110.434 53.385 110.222C53.2852 110.01 53.1272 109.83 52.9293 109.705C52.7315 109.579 52.502 109.512 52.2677 109.512C51.9133 109.549 51.5877 109.724 51.3607 109.999C51.1337 110.273 51.0235 110.626 51.0537 110.981Z" fill="#263238"></path><path d="M52.3415 111.417C52.4039 111.417 52.4656 111.404 52.5223 111.378C52.579 111.351 52.6293 111.313 52.6699 111.266C53.5313 110.202 53.9902 108.868 53.9659 107.499C53.9659 104.652 52.091 102.315 49.7927 102.315C48.095 102.315 46.583 103.568 45.935 105.499C45.9123 105.553 45.901 105.612 45.9019 105.671C45.9028 105.731 45.9159 105.789 45.9403 105.843C45.9647 105.897 45.9999 105.945 46.0438 105.985C46.0877 106.025 46.1392 106.055 46.1953 106.074C46.2514 106.093 46.3107 106.1 46.3697 106.095C46.4287 106.09 46.4861 106.073 46.5382 106.045C46.5904 106.017 46.6362 105.979 46.6729 105.932C46.7096 105.886 46.7363 105.832 46.7515 105.775C47.2785 104.198 48.4795 103.183 49.7755 103.183C51.5985 103.183 53.0846 105.114 53.0846 107.503C53.1029 108.668 52.7097 109.801 51.9743 110.704C51.9193 110.767 51.8836 110.844 51.8715 110.927C51.8593 111.009 51.8714 111.094 51.9061 111.169C51.9408 111.245 51.9967 111.309 52.0671 111.354C52.1375 111.399 52.2193 111.422 52.3027 111.422L52.3415 111.417Z" fill="#263238"></path><g opacity="0.4"><path d="M52.3415 111.417C52.4039 111.417 52.4656 111.404 52.5223 111.378C52.579 111.351 52.6293 111.313 52.6699 111.266C53.5313 110.202 53.9902 108.868 53.9659 107.499C53.9659 104.652 52.091 102.315 49.7927 102.315C48.095 102.315 46.583 103.568 45.935 105.499C45.9123 105.553 45.901 105.612 45.9019 105.671C45.9028 105.731 45.9159 105.789 45.9403 105.843C45.9647 105.897 45.9999 105.945 46.0438 105.985C46.0877 106.025 46.1392 106.055 46.1953 106.074C46.2514 106.093 46.3107 106.1 46.3697 106.095C46.4287 106.09 46.4861 106.073 46.5382 106.045C46.5904 106.017 46.6362 105.979 46.6729 105.932C46.7096 105.886 46.7363 105.832 46.7515 105.775C47.2785 104.198 48.4795 103.183 49.7755 103.183C51.5985 103.183 53.0846 105.114 53.0846 107.503C53.1029 108.668 52.7097 109.801 51.9743 110.704C51.9193 110.767 51.8836 110.844 51.8715 110.927C51.8593 111.009 51.8714 111.094 51.9061 111.169C51.9408 111.245 51.9967 111.309 52.0671 111.354C52.1375 111.399 52.2193 111.422 52.3027 111.422L52.3415 111.417Z" fill="white"></path></g><path d="M42.8418 110.981C42.8418 111.793 43.3861 112.45 44.0514 112.45C44.3937 112.385 44.7027 112.203 44.925 111.935C45.1473 111.667 45.269 111.329 45.269 110.981C45.269 110.632 45.1473 110.295 44.925 110.027C44.7027 109.759 44.3937 109.577 44.0514 109.512C43.3861 109.512 42.8418 110.16 42.8418 110.981Z" fill="#263238"></path><path d="M44.1291 111.417C44.1915 111.417 44.2532 111.404 44.3099 111.378C44.3666 111.351 44.4169 111.313 44.4575 111.266C45.3173 110.201 45.7759 108.868 45.7535 107.499C45.7535 104.652 43.8786 102.315 41.5803 102.315C39.8826 102.315 38.3663 103.568 37.7226 105.499C37.6999 105.553 37.6886 105.612 37.6895 105.671C37.6904 105.731 37.7035 105.789 37.7279 105.843C37.7523 105.897 37.7875 105.945 37.8314 105.985C37.8753 106.025 37.9268 106.055 37.9829 106.074C38.039 106.093 38.0983 106.1 38.1573 106.095C38.2163 106.09 38.2737 106.073 38.3258 106.045C38.378 106.017 38.4238 105.979 38.4605 105.932C38.4972 105.886 38.5239 105.832 38.5391 105.775C39.0661 104.198 40.2671 103.183 41.5631 103.183C43.3861 103.183 44.8722 105.114 44.8722 107.503C44.8905 108.668 44.4973 109.801 43.7619 110.704C43.7242 110.747 43.6953 110.797 43.677 110.852C43.6586 110.906 43.6513 110.963 43.6553 111.02C43.6593 111.077 43.6746 111.133 43.7004 111.184C43.7261 111.235 43.7617 111.281 43.8051 111.318C43.8497 111.355 43.9013 111.384 43.957 111.401C44.0127 111.418 44.0712 111.423 44.1291 111.417Z" fill="#263238"></path><g opacity="0.4"><path d="M44.1291 111.417C44.1915 111.417 44.2532 111.404 44.3099 111.378C44.3666 111.351 44.4169 111.313 44.4575 111.266C45.3173 110.201 45.7759 108.868 45.7535 107.499C45.7535 104.652 43.8786 102.315 41.5803 102.315C39.8826 102.315 38.3663 103.568 37.7226 105.499C37.6999 105.553 37.6886 105.612 37.6895 105.671C37.6904 105.731 37.7035 105.789 37.7279 105.843C37.7523 105.897 37.7875 105.945 37.8314 105.985C37.8753 106.025 37.9268 106.055 37.9829 106.074C38.039 106.093 38.0983 106.1 38.1573 106.095C38.2163 106.09 38.2737 106.073 38.3258 106.045C38.378 106.017 38.4238 105.979 38.4605 105.932C38.4972 105.886 38.5239 105.832 38.5391 105.775C39.0661 104.198 40.2671 103.183 41.5631 103.183C43.3861 103.183 44.8722 105.114 44.8722 107.503C44.8905 108.668 44.4973 109.801 43.7619 110.704C43.7242 110.747 43.6953 110.797 43.677 110.852C43.6586 110.906 43.6513 110.963 43.6553 111.02C43.6593 111.077 43.6746 111.133 43.7004 111.184C43.7261 111.235 43.7617 111.281 43.8051 111.318C43.8497 111.355 43.9013 111.384 43.957 111.401C44.0127 111.418 44.0712 111.423 44.1291 111.417Z" fill="white"></path></g><path d="M50.147 140.335H46.5269V146.508H50.147V140.335Z" fill="#00A0AF"></path><path d="M56.0088 135.843H52.3887V146.509H56.0088V135.843Z" fill="#00A0AF"></path><path d="M61.8755 137.527H58.2554V146.509H61.8755V137.527Z" fill="#00A0AF"></path><path d="M67.7422 133.034H64.1221V146.509H67.7422V133.034Z" fill="#00A0AF"></path><path d="M73.6045 128.542H69.9844V146.509H73.6045V128.542Z" fill="#00A0AF"></path><path opacity="0.5" d="M50.147 140.335H46.5269V146.508H50.147V140.335Z" fill="white"></path><path opacity="0.5" d="M56.0088 135.843H52.3887V146.509H56.0088V135.843Z" fill="white"></path><path opacity="0.5" d="M61.8755 137.527H58.2554V146.509H61.8755V137.527Z" fill="white"></path><path opacity="0.5" d="M67.7422 133.034H64.1221V146.509H67.7422V133.034Z" fill="white"></path><path opacity="0.5" d="M73.6045 128.542H69.9844V146.509H73.6045V128.542Z" fill="white"></path><path d="M78.434 145.653H41.5542V147.364H78.434V145.653Z" fill="#263238"></path><path d="M77.1553 120.809L74.7534 121.18L76.4469 122.986L77.1553 120.809Z" fill="#00A0AF"></path><g opacity="0.3"><path d="M62.4674 152.928H41.5975C41.483 152.928 41.3731 152.882 41.2921 152.801C41.211 152.72 41.1655 152.611 41.1655 152.496C41.1655 152.381 41.211 152.272 41.2921 152.191C41.3731 152.109 41.483 152.064 41.5975 152.064H62.4674C62.582 152.064 62.6919 152.109 62.7729 152.191C62.8539 152.272 62.8995 152.381 62.8995 152.496C62.8995 152.611 62.8539 152.72 62.7729 152.801C62.6919 152.882 62.582 152.928 62.4674 152.928Z" fill="black"></path></g><g opacity="0.3"><path d="M78.5898 156.777H44.5785C44.4639 156.777 44.354 156.732 44.273 156.651C44.192 156.57 44.1465 156.46 44.1465 156.345C44.1465 156.231 44.192 156.121 44.273 156.04C44.354 155.959 44.4639 155.913 44.5785 155.913H78.5898C78.7044 155.913 78.8143 155.959 78.8953 156.04C78.9763 156.121 79.0218 156.231 79.0218 156.345C79.0218 156.46 78.9763 156.57 78.8953 156.651C78.8143 156.732 78.7044 156.777 78.5898 156.777Z" fill="black"></path><path d="M78.6242 158.941H41.5975C41.483 158.941 41.3731 158.896 41.2921 158.815C41.211 158.734 41.1655 158.624 41.1655 158.509C41.1655 158.395 41.211 158.285 41.2921 158.204C41.3731 158.123 41.483 158.077 41.5975 158.077H78.6242C78.7388 158.077 78.8487 158.123 78.9297 158.204C79.0107 158.285 79.0562 158.395 79.0562 158.509C79.0562 158.624 79.0107 158.734 78.9297 158.815C78.8487 158.896 78.7388 158.941 78.6242 158.941Z" fill="black"></path><path d="M78.6846 161.106H41.6449C41.5303 161.106 41.4204 161.06 41.3394 160.979C41.2584 160.898 41.2129 160.788 41.2129 160.674C41.2129 160.559 41.2584 160.449 41.3394 160.368C41.4204 160.287 41.5303 160.242 41.6449 160.242H78.6846C78.7991 160.242 78.909 160.287 78.99 160.368C79.0711 160.449 79.1166 160.559 79.1166 160.674C79.1166 160.788 79.0711 160.898 78.99 160.979C78.909 161.06 78.7991 161.106 78.6846 161.106Z" fill="black"></path><path d="M72.6801 163.27H41.6927C41.5782 163.27 41.4683 163.224 41.3873 163.143C41.3063 163.062 41.2607 162.953 41.2607 162.838C41.2607 162.723 41.3063 162.614 41.3873 162.533C41.4683 162.452 41.5782 162.406 41.6927 162.406H72.6801C72.7947 162.406 72.9046 162.452 72.9856 162.533C73.0666 162.614 73.1121 162.723 73.1121 162.838C73.1121 162.953 73.0666 163.062 72.9856 163.143C72.9046 163.224 72.7947 163.27 72.6801 163.27Z" fill="black"></path></g><g opacity="0.3"><path d="M78.5898 167.154H44.5785C44.4639 167.154 44.354 167.108 44.273 167.027C44.192 166.946 44.1465 166.836 44.1465 166.722C44.1465 166.607 44.192 166.497 44.273 166.416C44.354 166.335 44.4639 166.29 44.5785 166.29H78.5898C78.7044 166.29 78.8143 166.335 78.8953 166.416C78.9763 166.497 79.0218 166.607 79.0218 166.722C79.0218 166.836 78.9763 166.946 78.8953 167.027C78.8143 167.108 78.7044 167.154 78.5898 167.154Z" fill="black"></path><path d="M78.6242 169.318H41.5975C41.483 169.318 41.3731 169.273 41.2921 169.192C41.211 169.111 41.1655 169.001 41.1655 168.886C41.1655 168.772 41.211 168.662 41.2921 168.581C41.3731 168.5 41.483 168.454 41.5975 168.454H78.6242C78.7388 168.454 78.8487 168.5 78.9297 168.581C79.0107 168.662 79.0562 168.772 79.0562 168.886C79.0562 169.001 79.0107 169.111 78.9297 169.192C78.8487 169.273 78.7388 169.318 78.6242 169.318Z" fill="black"></path><path d="M78.6846 171.504H41.6449C41.5303 171.504 41.4204 171.459 41.3394 171.378C41.2584 171.297 41.2129 171.187 41.2129 171.072C41.2129 170.958 41.2584 170.848 41.3394 170.767C41.4204 170.686 41.5303 170.64 41.6449 170.64H78.6846C78.7991 170.64 78.909 170.686 78.99 170.767C79.0711 170.848 79.1166 170.958 79.1166 171.072C79.1166 171.187 79.0711 171.297 78.99 171.378C78.909 171.459 78.7991 171.504 78.6846 171.504Z" fill="black"></path><path d="M72.6801 173.664H41.6927C41.5782 173.664 41.4683 173.619 41.3873 173.538C41.3063 173.456 41.2607 173.347 41.2607 173.232C41.2607 173.117 41.3063 173.008 41.3873 172.927C41.4683 172.846 41.5782 172.8 41.6927 172.8H72.6801C72.7947 172.8 72.9046 172.846 72.9856 172.927C73.0666 173.008 73.1121 173.117 73.1121 173.232C73.1121 173.347 73.0666 173.456 72.9856 173.538C72.9046 173.619 72.7947 173.664 72.6801 173.664Z" fill="black"></path></g><g opacity="0.3"><path d="M62.4674 117.038H41.5975C41.483 117.038 41.3731 116.992 41.2921 116.911C41.211 116.83 41.1655 116.72 41.1655 116.606C41.1655 116.491 41.211 116.381 41.2921 116.3C41.3731 116.219 41.483 116.174 41.5975 116.174H62.4674C62.582 116.174 62.6919 116.219 62.7729 116.3C62.8539 116.381 62.8995 116.491 62.8995 116.606C62.8995 116.72 62.8539 116.83 62.7729 116.911C62.6919 116.992 62.582 117.038 62.4674 117.038Z" fill="black"></path></g><path d="M177.31 73.9756H127.704C126.878 73.9756 126.209 74.6448 126.209 75.4703V157.421C126.209 158.246 126.878 158.915 127.704 158.915H177.31C178.136 158.915 178.805 158.246 178.805 157.421V75.4703C178.805 74.6448 178.136 73.9756 177.31 73.9756Z" fill="#00A0AF"></path><path d="M138.603 73.5696H166.415C166.489 73.5696 166.559 73.5987 166.611 73.6506C166.663 73.7024 166.692 73.7728 166.692 73.8461V76.6282H138.322V73.8461C138.322 73.8094 138.33 73.7731 138.344 73.7393C138.358 73.7055 138.379 73.6748 138.405 73.6491C138.431 73.6233 138.462 73.603 138.496 73.5894C138.53 73.5758 138.566 73.569 138.603 73.5696Z" fill="#263238"></path><path opacity="0.9" d="M176.727 76.6282H128.291V156.25H176.727V76.6282Z" fill="white"></path><path d="M162 80.2916H153.485L153.386 79.9936C153.326 79.809 153.209 79.6482 153.052 79.5342C152.894 79.4201 152.705 79.3587 152.511 79.3587C152.317 79.3587 152.128 79.4201 151.971 79.5342C151.814 79.6482 151.697 79.809 151.636 79.9936L151.537 80.2916H143.014C142.683 80.2916 142.366 80.1607 142.132 79.9275C141.898 79.6943 141.766 79.3778 141.765 79.0475V75.9112C141.767 75.5811 141.9 75.2653 142.134 75.0324C142.367 74.7994 142.684 74.6681 143.014 74.667H162.022C162.351 74.6681 162.667 74.7996 162.9 75.0327C163.133 75.2657 163.265 75.5815 163.266 75.9112V79.0561C163.265 79.2206 163.231 79.3832 163.167 79.5346C163.102 79.686 163.008 79.8231 162.891 79.938C162.773 80.0529 162.634 80.1433 162.481 80.204C162.328 80.2647 162.164 80.2945 162 80.2916ZM154.077 79.4276H162C162.05 79.4282 162.1 79.4188 162.146 79.3999C162.193 79.381 162.235 79.353 162.27 79.3176C162.306 79.2822 162.334 79.24 162.352 79.1936C162.371 79.1473 162.381 79.0976 162.38 79.0475V75.9112C162.38 75.8103 162.34 75.7136 162.269 75.6423C162.198 75.571 162.101 75.531 162 75.531H142.992C142.942 75.5304 142.892 75.5398 142.845 75.5587C142.799 75.5775 142.756 75.6054 142.72 75.6408C142.685 75.6762 142.656 75.7183 142.637 75.7647C142.618 75.8111 142.608 75.8609 142.608 75.9112V79.0561C142.608 79.1064 142.618 79.1562 142.637 79.2026C142.656 79.249 142.685 79.2911 142.72 79.3265C142.756 79.3618 142.799 79.3897 142.845 79.4086C142.892 79.4274 142.942 79.4368 142.992 79.4363H150.941C151.094 79.1529 151.32 78.9162 151.597 78.7512C151.873 78.5862 152.189 78.4991 152.511 78.4991C152.833 78.4991 153.149 78.5862 153.425 78.7512C153.702 78.9162 153.929 79.1529 154.081 79.4363L154.077 79.4276Z" fill="#263238"></path><g opacity="0.5"><path d="M162 80.2916H153.485L153.386 79.9936C153.326 79.809 153.209 79.6482 153.052 79.5342C152.894 79.4201 152.705 79.3587 152.511 79.3587C152.317 79.3587 152.128 79.4201 151.971 79.5342C151.814 79.6482 151.697 79.809 151.636 79.9936L151.537 80.2916H143.014C142.683 80.2916 142.366 80.1607 142.132 79.9275C141.898 79.6943 141.766 79.3778 141.765 79.0475V75.9112C141.767 75.5811 141.9 75.2653 142.134 75.0324C142.367 74.7994 142.684 74.6681 143.014 74.667H162.022C162.351 74.6681 162.667 74.7996 162.9 75.0327C163.133 75.2657 163.265 75.5815 163.266 75.9112V79.0561C163.265 79.2206 163.231 79.3832 163.167 79.5346C163.102 79.686 163.008 79.8231 162.891 79.938C162.773 80.0529 162.634 80.1433 162.481 80.204C162.328 80.2647 162.164 80.2945 162 80.2916ZM154.077 79.4276H162C162.05 79.4282 162.1 79.4188 162.146 79.3999C162.193 79.381 162.235 79.353 162.27 79.3176C162.306 79.2822 162.334 79.24 162.352 79.1936C162.371 79.1473 162.381 79.0976 162.38 79.0475V75.9112C162.38 75.8103 162.34 75.7136 162.269 75.6423C162.198 75.571 162.101 75.531 162 75.531H142.992C142.942 75.5304 142.892 75.5398 142.845 75.5587C142.799 75.5775 142.756 75.6054 142.72 75.6408C142.685 75.6762 142.656 75.7183 142.637 75.7647C142.618 75.8111 142.608 75.8609 142.608 75.9112V79.0561C142.608 79.1064 142.618 79.1562 142.637 79.2026C142.656 79.249 142.685 79.2911 142.72 79.3265C142.756 79.3618 142.799 79.3897 142.845 79.4086C142.892 79.4274 142.942 79.4368 142.992 79.4363H150.941C151.094 79.1529 151.32 78.9162 151.597 78.7512C151.873 78.5862 152.189 78.4991 152.511 78.4991C152.833 78.4991 153.149 78.5862 153.425 78.7512C153.702 78.9162 153.929 79.1529 154.081 79.4363L154.077 79.4276Z" fill="white"></path></g><path d="M160.67 74.1658H144.349C144.112 74.1658 143.921 74.3573 143.921 74.5935V75.6173C143.921 75.8535 144.112 76.045 144.349 76.045H160.67C160.906 76.045 161.097 75.8535 161.097 75.6173V74.5935C161.097 74.3573 160.906 74.1658 160.67 74.1658Z" fill="#263238"></path><path opacity="0.2" d="M160.67 74.1658H144.349C144.112 74.1658 143.921 74.3573 143.921 74.5935V75.6173C143.921 75.8535 144.112 76.045 144.349 76.045H160.67C160.906 76.045 161.097 75.8535 161.097 75.6173V74.5935C161.097 74.3573 160.906 74.1658 160.67 74.1658Z" fill="white"></path><path d="M172.939 143.332C174.105 138.39 171.045 133.439 166.104 132.273C161.162 131.107 156.211 134.167 155.045 139.108C153.879 144.05 156.939 149.001 161.88 150.167C166.822 151.333 171.773 148.273 172.939 143.332Z" fill="#00A0AF"></path><path opacity="0.3" d="M163.996 141.23H173.189C173.189 143.048 172.65 144.825 171.64 146.337C170.63 147.849 169.194 149.027 167.514 149.723C165.834 150.419 163.986 150.601 162.203 150.246C160.419 149.891 158.781 149.016 157.496 147.73C156.21 146.444 155.335 144.806 154.98 143.023C154.625 141.24 154.807 139.391 155.503 137.712C156.199 136.032 157.377 134.596 158.889 133.586C160.401 132.576 162.178 132.037 163.996 132.037H164.031L163.996 141.23Z" fill="white"></path><path opacity="0.3" d="M163.996 141.23L168.955 148.967C167.753 149.738 166.388 150.219 164.967 150.371C163.547 150.522 162.111 150.341 160.772 149.841C159.434 149.341 158.231 148.536 157.258 147.489C156.286 146.443 155.57 145.185 155.169 143.814C154.767 142.443 154.69 140.997 154.945 139.592C155.199 138.186 155.778 136.859 156.635 135.716C157.492 134.573 158.603 133.645 159.881 133.007C161.159 132.368 162.568 132.036 163.996 132.037H164.026L163.996 141.23Z" fill="white"></path><path opacity="0.3" d="M163.996 141.23L156.246 146.172C155.36 144.782 154.864 143.18 154.81 141.533C154.755 139.886 155.145 138.255 155.937 136.81C156.729 135.365 157.895 134.16 159.313 133.32C160.731 132.48 162.348 132.037 163.996 132.037H164.026L163.996 141.23Z" fill="white"></path><g opacity="0.5"><path d="M131.782 90.8884V112.583H173.254V90.8884H131.782ZM172.912 94.2753H165.737V91.2124H172.912V94.2753ZM149.995 94.2753H142.608V91.2124H149.995V94.2753ZM150.319 91.2124H157.702V94.2753H150.336L150.319 91.2124ZM149.995 94.5993V112.259H142.608V94.6079L149.995 94.5993ZM150.319 94.5993H157.702V112.259H150.336L150.319 94.5993ZM158.026 94.5993H165.413V112.259H158.026V94.5993ZM158.026 94.2753V91.2124H165.413V94.2753H158.026ZM142.284 91.2124V94.2753H132.106V91.2124H142.284ZM132.106 94.6079H142.284V112.268H132.106V94.6079ZM165.737 112.268V94.6079H172.912V112.268H165.737Z" fill="black"></path><path d="M144.962 97.6321H147.952C148.066 97.6321 148.176 97.5866 148.257 97.5055C148.338 97.4245 148.384 97.3146 148.384 97.2001C148.384 97.0855 148.338 96.9756 148.257 96.8946C148.176 96.8136 148.066 96.7681 147.952 96.7681H144.962C144.848 96.7681 144.738 96.8136 144.657 96.8946C144.576 96.9756 144.53 97.0855 144.53 97.2001C144.53 97.3146 144.576 97.4245 144.657 97.5055C144.738 97.5866 144.848 97.6321 144.962 97.6321Z" fill="black"></path><path d="M152.496 101.55H155.74C155.855 101.55 155.965 101.505 156.046 101.424C156.127 101.343 156.172 101.233 156.172 101.118C156.172 101.004 156.127 100.894 156.046 100.813C155.965 100.732 155.855 100.686 155.74 100.686H152.496C152.381 100.686 152.272 100.732 152.191 100.813C152.109 100.894 152.064 101.004 152.064 101.118C152.064 101.233 152.109 101.343 152.191 101.424C152.272 101.505 152.381 101.55 152.496 101.55Z" fill="black"></path><path d="M155.896 108.527H152.496C152.381 108.527 152.272 108.573 152.191 108.654C152.109 108.735 152.064 108.845 152.064 108.959C152.064 109.074 152.109 109.184 152.191 109.265C152.272 109.346 152.381 109.391 152.496 109.391H155.883C155.997 109.391 156.107 109.346 156.188 109.265C156.269 109.184 156.315 109.074 156.315 108.959C156.315 108.845 156.269 108.735 156.188 108.654C156.107 108.573 155.997 108.527 155.883 108.527H155.896Z" fill="black"></path><path d="M163.413 104.604H159.84C159.726 104.604 159.616 104.65 159.535 104.731C159.454 104.812 159.408 104.922 159.408 105.036C159.408 105.151 159.454 105.261 159.535 105.342C159.616 105.423 159.726 105.468 159.84 105.468H163.421C163.536 105.468 163.646 105.423 163.727 105.342C163.808 105.261 163.853 105.151 163.853 105.036C163.853 104.922 163.808 104.812 163.727 104.731C163.646 104.65 163.536 104.604 163.421 104.604H163.413Z" fill="black"></path><path d="M171.141 96.7681H167.513C167.398 96.7681 167.288 96.8136 167.207 96.8946C167.126 96.9756 167.081 97.0855 167.081 97.2001C167.081 97.3146 167.126 97.4245 167.207 97.5055C167.288 97.5866 167.398 97.6321 167.513 97.6321H171.141C171.256 97.6321 171.366 97.5866 171.447 97.5055C171.528 97.4245 171.573 97.3146 171.573 97.2001C171.573 97.0855 171.528 96.9756 171.447 96.8946C171.366 96.8136 171.256 96.7681 171.141 96.7681Z" fill="black"></path><path d="M170.675 108.527H167.513C167.398 108.527 167.288 108.573 167.207 108.654C167.126 108.735 167.081 108.845 167.081 108.959C167.081 109.074 167.126 109.184 167.207 109.265C167.288 109.346 167.398 109.391 167.513 109.391H170.675C170.789 109.391 170.899 109.346 170.98 109.265C171.061 109.184 171.107 109.074 171.107 108.959C171.107 108.845 171.061 108.735 170.98 108.654C170.899 108.573 170.789 108.527 170.675 108.527Z" fill="black"></path><path d="M144.962 105.468H147.524C147.639 105.468 147.748 105.423 147.83 105.342C147.911 105.261 147.956 105.151 147.956 105.036C147.956 104.922 147.911 104.812 147.83 104.731C147.748 104.65 147.639 104.604 147.524 104.604H144.962C144.848 104.604 144.738 104.65 144.657 104.731C144.576 104.812 144.53 104.922 144.53 105.036C144.53 105.151 144.576 105.261 144.657 105.342C144.738 105.423 144.848 105.468 144.962 105.468Z" fill="black"></path><path d="M147.952 108.527H144.962C144.848 108.527 144.738 108.573 144.657 108.654C144.576 108.735 144.53 108.845 144.53 108.959C144.53 109.074 144.576 109.184 144.657 109.265C144.738 109.346 144.848 109.391 144.962 109.391H147.952C148.066 109.391 148.176 109.346 148.257 109.265C148.338 109.184 148.384 109.074 148.384 108.959C148.384 108.845 148.338 108.735 148.257 108.654C148.176 108.573 148.066 108.527 147.952 108.527Z" fill="black"></path><path d="M133.665 97.6321H140.5C140.614 97.6321 140.724 97.5866 140.805 97.5055C140.886 97.4245 140.932 97.3146 140.932 97.2001C140.932 97.0855 140.886 96.9756 140.805 96.8946C140.724 96.8136 140.614 96.7681 140.5 96.7681H133.665C133.551 96.7681 133.441 96.8136 133.36 96.8946C133.279 96.9756 133.233 97.0855 133.233 97.2001C133.233 97.3146 133.279 97.4245 133.36 97.5055C133.441 97.5866 133.551 97.6321 133.665 97.6321Z" fill="black"></path><path d="M133.665 101.55H138.214C138.329 101.55 138.439 101.505 138.52 101.424C138.601 101.343 138.646 101.233 138.646 101.118C138.646 101.004 138.601 100.894 138.52 100.813C138.439 100.732 138.329 100.686 138.214 100.686H133.665C133.551 100.686 133.441 100.732 133.36 100.813C133.279 100.894 133.233 101.004 133.233 101.118C133.233 101.233 133.279 101.343 133.36 101.424C133.441 101.505 133.551 101.55 133.665 101.55Z" fill="black"></path><path d="M140.5 104.604H133.665C133.551 104.604 133.441 104.65 133.36 104.731C133.279 104.812 133.233 104.922 133.233 105.036C133.233 105.151 133.279 105.261 133.36 105.342C133.441 105.423 133.551 105.468 133.665 105.468H140.5C140.614 105.468 140.724 105.423 140.805 105.342C140.886 105.261 140.932 105.151 140.932 105.036C140.932 104.922 140.886 104.812 140.805 104.731C140.724 104.65 140.614 104.604 140.5 104.604Z" fill="black"></path><path d="M137.083 108.527H133.665C133.551 108.527 133.441 108.573 133.36 108.654C133.279 108.735 133.233 108.845 133.233 108.959C133.233 109.074 133.279 109.184 133.36 109.265C133.441 109.346 133.551 109.391 133.665 109.391H137.083C137.197 109.391 137.307 109.346 137.388 109.265C137.469 109.184 137.515 109.074 137.515 108.959C137.515 108.845 137.469 108.735 137.388 108.654C137.307 108.573 137.197 108.527 137.083 108.527Z" fill="black"></path></g><g opacity="0.5"><path d="M148.388 86.3396H132.214C132.099 86.3396 131.989 86.2941 131.908 86.2131C131.827 86.132 131.782 86.0222 131.782 85.9076C131.782 85.793 131.827 85.6831 131.908 85.6021C131.989 85.5211 132.099 85.4756 132.214 85.4756H148.388C148.502 85.4756 148.612 85.5211 148.693 85.6021C148.774 85.6831 148.82 85.793 148.82 85.9076C148.82 86.0222 148.774 86.132 148.693 86.2131C148.612 86.2941 148.502 86.3396 148.388 86.3396Z" fill="black"></path></g><g opacity="0.5"><path d="M142.716 88.7629H132.214C132.099 88.7629 131.989 88.7174 131.908 88.6364C131.827 88.5554 131.782 88.4455 131.782 88.3309C131.782 88.2164 131.827 88.1065 131.908 88.0255C131.989 87.9444 132.099 87.8989 132.214 87.8989H142.716C142.83 87.8989 142.94 87.9444 143.021 88.0255C143.102 88.1065 143.148 88.2164 143.148 88.3309C143.148 88.4455 143.102 88.5554 143.021 88.6364C142.94 88.7174 142.83 88.7629 142.716 88.7629Z" fill="black"></path></g><g opacity="0.5"><path d="M153.084 116.329H132.214C132.099 116.329 131.989 116.284 131.908 116.203C131.827 116.122 131.782 116.012 131.782 115.897C131.782 115.783 131.827 115.673 131.908 115.592C131.989 115.511 132.099 115.465 132.214 115.465H153.084C153.198 115.465 153.308 115.511 153.389 115.592C153.47 115.673 153.516 115.783 153.516 115.897C153.516 116.012 153.47 116.122 153.389 116.203C153.308 116.284 153.198 116.329 153.084 116.329Z" fill="black"></path></g><path d="M134.361 133.453H131.782V136.032H134.361V133.453Z" fill="#00A0AF"></path><g opacity="0.5"><path d="M149.04 135.177H136.236C136.121 135.177 136.011 135.132 135.93 135.051C135.849 134.97 135.804 134.86 135.804 134.745C135.804 134.631 135.849 134.521 135.93 134.44C136.011 134.359 136.121 134.313 136.236 134.313H149.04C149.155 134.313 149.265 134.359 149.346 134.44C149.427 134.521 149.472 134.631 149.472 134.745C149.472 134.86 149.427 134.97 149.346 135.051C149.265 135.132 149.155 135.177 149.04 135.177Z" fill="black"></path></g><path d="M134.361 137.778H131.782V140.357H134.361V137.778Z" fill="#00A0AF"></path><g opacity="0.5"><path d="M149.04 139.497H136.236C136.121 139.497 136.011 139.452 135.93 139.371C135.849 139.29 135.804 139.18 135.804 139.065C135.804 138.95 135.849 138.841 135.93 138.76C136.011 138.679 136.121 138.633 136.236 138.633H149.04C149.155 138.633 149.265 138.679 149.346 138.76C149.427 138.841 149.472 138.95 149.472 139.065C149.472 139.18 149.427 139.29 149.346 139.371C149.265 139.452 149.155 139.497 149.04 139.497Z" fill="black"></path></g><path d="M134.361 142.098H131.782V144.677H134.361V142.098Z" fill="#00A0AF"></path><g opacity="0.5"><path d="M149.04 143.822H136.236C136.121 143.822 136.011 143.776 135.93 143.695C135.849 143.614 135.804 143.504 135.804 143.39C135.804 143.275 135.849 143.165 135.93 143.084C136.011 143.003 136.121 142.958 136.236 142.958H149.04C149.155 142.958 149.265 143.003 149.346 143.084C149.427 143.165 149.472 143.275 149.472 143.39C149.472 143.504 149.427 143.614 149.346 143.695C149.265 143.776 149.155 143.822 149.04 143.822Z" fill="black"></path></g><path d="M134.361 146.422H131.782V149.001H134.361V146.422Z" fill="#00A0AF"></path><g opacity="0.5"><path d="M149.04 148.146H136.236C136.121 148.146 136.011 148.1 135.93 148.019C135.849 147.938 135.804 147.828 135.804 147.714C135.804 147.599 135.849 147.489 135.93 147.408C136.011 147.327 136.121 147.282 136.236 147.282H149.04C149.155 147.282 149.265 147.327 149.346 147.408C149.427 147.489 149.472 147.599 149.472 147.714C149.472 147.828 149.427 147.938 149.346 148.019C149.265 148.1 149.155 148.146 149.04 148.146Z" fill="black"></path></g><g opacity="0.5"><path d="M172.662 120.191H135.19C135.076 120.191 134.966 120.146 134.885 120.065C134.804 119.984 134.758 119.874 134.758 119.759C134.758 119.645 134.804 119.535 134.885 119.454C134.966 119.373 135.076 119.327 135.19 119.327H172.662C172.777 119.327 172.886 119.373 172.967 119.454C173.048 119.535 173.094 119.645 173.094 119.759C173.094 119.874 173.048 119.984 172.967 120.065C172.886 120.146 172.777 120.191 172.662 120.191Z" fill="black"></path><path d="M172.709 122.355H132.214C132.099 122.355 131.989 122.31 131.908 122.229C131.827 122.148 131.782 122.038 131.782 121.923C131.782 121.809 131.827 121.699 131.908 121.618C131.989 121.537 132.099 121.491 132.214 121.491H172.709C172.824 121.491 172.934 121.537 173.015 121.618C173.096 121.699 173.141 121.809 173.141 121.923C173.141 122.038 173.096 122.148 173.015 122.229C172.934 122.31 172.824 122.355 172.709 122.355Z" fill="black"></path><path d="M172.757 124.52H132.261C132.147 124.52 132.037 124.474 131.956 124.393C131.875 124.312 131.829 124.202 131.829 124.088C131.829 123.973 131.875 123.863 131.956 123.782C132.037 123.701 132.147 123.656 132.261 123.656H172.757C172.871 123.656 172.981 123.701 173.062 123.782C173.143 123.863 173.189 123.973 173.189 124.088C173.189 124.202 173.143 124.312 173.062 124.393C172.981 124.474 172.871 124.52 172.757 124.52Z" fill="black"></path><path d="M166.752 126.684H132.309C132.194 126.684 132.085 126.639 132.003 126.558C131.922 126.477 131.877 126.367 131.877 126.252C131.877 126.137 131.922 126.028 132.003 125.947C132.085 125.866 132.194 125.82 132.309 125.82H166.752C166.867 125.82 166.977 125.866 167.058 125.947C167.139 126.028 167.184 126.137 167.184 126.252C167.184 126.367 167.139 126.477 167.058 126.558C166.977 126.639 166.867 126.684 166.752 126.684Z" fill="black"></path></g><path opacity="0.3" d="M134.361 137.778H131.782V140.357H134.361V137.778Z" fill="white"></path><path opacity="0.5" d="M134.361 142.098H131.782V144.677H134.361V142.098Z" fill="white"></path><path opacity="0.7" d="M134.361 146.422H131.782V149.001H134.361V146.422Z" fill="white"></path><path d="M176.001 169.884C176.001 169.884 173.949 165.409 176.295 160.994C178.641 156.578 179.319 155.542 177.824 154.639C176.33 153.736 175.643 158.168 175.643 158.168C174.903 156.163 174.828 153.973 175.427 151.922C176.464 148.729 177.116 143.528 175.699 142.97C174.282 142.413 175.427 149.45 174.191 151.861C173.565 150.174 173.16 148.412 172.986 146.621C172.817 144.059 173.081 139.964 171.962 138.914C170.843 137.864 170.122 138.59 171.223 144.249C171.886 147.631 172.251 151.064 172.316 154.509C172.316 154.509 169.884 147.083 168.247 146.867C166.61 146.651 166.614 149.057 168.014 151.144C169.413 153.23 172.113 156.963 172.554 158.885C172.554 158.885 169.88 153.3 167.478 154.997C165.076 156.695 169.569 160.086 171.573 161.305C173.578 162.523 174.96 170.182 174.96 170.182L176.001 169.884Z" fill="#00A0AF"></path><path opacity="0.2" d="M176.001 169.884C176.001 169.884 173.949 165.409 176.295 160.994C178.641 156.578 179.319 155.542 177.824 154.639C176.33 153.736 175.643 158.168 175.643 158.168C174.903 156.163 174.828 153.973 175.427 151.922C176.464 148.729 177.116 143.528 175.699 142.97C174.282 142.413 175.427 149.45 174.191 151.861C173.565 150.174 173.16 148.412 172.986 146.621C172.817 144.059 173.081 139.964 171.962 138.914C170.843 137.864 170.122 138.59 171.223 144.249C171.886 147.631 172.251 151.064 172.316 154.509C172.316 154.509 169.884 147.083 168.247 146.867C166.61 146.651 166.614 149.057 168.014 151.144C169.413 153.23 172.113 156.963 172.554 158.885C172.554 158.885 169.88 153.3 167.478 154.997C165.076 156.695 169.569 160.086 171.573 161.305C173.578 162.523 174.96 170.182 174.96 170.182L176.001 169.884Z" fill="black"></path><path d="M174.382 171.72C174.382 171.72 176.382 167.214 173.984 162.838C171.586 158.462 170.895 157.429 172.377 156.501C173.859 155.572 174.602 160 174.602 160C175.318 157.987 175.368 155.797 174.744 153.753C173.669 150.574 172.952 145.385 174.364 144.806C175.777 144.228 174.714 151.286 175.976 153.671C176.583 151.977 176.968 150.211 177.12 148.418C177.259 145.848 176.943 141.757 178.054 140.689C179.164 139.622 179.89 140.34 178.853 146.016C178.232 149.407 177.908 152.846 177.885 156.293C177.885 156.293 180.231 148.833 181.872 148.608C183.514 148.383 183.531 150.768 182.158 152.876C180.784 154.984 178.131 158.76 177.712 160.687C177.712 160.687 180.304 155.071 182.741 156.738C185.177 158.406 180.71 161.857 178.723 163.106C176.736 164.354 175.431 172.018 175.431 172.018L174.382 171.72Z" fill="#00A0AF"></path><path d="M183.6 168.51H167.093L168.428 180.321H182.261L183.6 168.51Z" fill="#263238"></path><path d="M83.9204 67.2063H96.336C97.3489 67.2063 98.3202 67.6086 99.0364 68.3248C99.7526 69.041 100.155 70.0123 100.155 71.0252V81.8252C100.155 82.838 99.7526 83.8094 99.0364 84.5255C98.3202 85.2417 97.3489 85.6441 96.336 85.6441H92.7073L94.0033 90.3529L90.1152 85.6441H83.9204C83.4185 85.6446 82.9214 85.5463 82.4576 85.3546C81.9938 85.1629 81.5723 84.8817 81.2172 84.5271C80.8621 84.1724 80.5805 83.7512 80.3883 83.2876C80.1961 82.824 80.0972 82.327 80.0972 81.8252V71.0252C80.0972 70.5233 80.1961 70.0264 80.3883 69.5628C80.5805 69.0991 80.8621 68.678 81.2172 68.3233C81.5723 67.9686 81.9938 67.6874 82.4576 67.4958C82.9214 67.3041 83.4185 67.2057 83.9204 67.2063Z" fill="#00A0AF"></path><path opacity="0.7" d="M83.9204 67.2063H96.336C97.3489 67.2063 98.3202 67.6086 99.0364 68.3248C99.7526 69.041 100.155 70.0123 100.155 71.0252V81.8252C100.155 82.838 99.7526 83.8094 99.0364 84.5255C98.3202 85.2417 97.3489 85.6441 96.336 85.6441H92.7073L94.0033 90.3529L90.1152 85.6441H83.9204C83.4185 85.6446 82.9214 85.5463 82.4576 85.3546C81.9938 85.1629 81.5723 84.8817 81.2172 84.5271C80.8621 84.1724 80.5805 83.7512 80.3883 83.2876C80.1961 82.824 80.0972 82.327 80.0972 81.8252V71.0252C80.0972 70.5233 80.1961 70.0264 80.3883 69.5628C80.5805 69.0991 80.8621 68.678 81.2172 68.3233C81.5723 67.9686 81.9938 67.6874 82.4576 67.4958C82.9214 67.3041 83.4185 67.2057 83.9204 67.2063Z" fill="white"></path><path opacity="0.7" d="M88.2492 78.7797C90.3846 78.7797 92.1156 77.0486 92.1156 74.9133C92.1156 72.7779 90.3846 71.0469 88.2492 71.0469C86.1139 71.0469 84.3828 72.7779 84.3828 74.9133C84.3828 77.0486 86.1139 78.7797 88.2492 78.7797Z" fill="white"></path><path d="M88.2491 79.3369C87.2259 79.336 86.2345 78.9805 85.444 78.3307C84.6535 77.681 84.1126 76.7774 83.9136 75.7736C83.7146 74.7699 83.8696 73.7282 84.3524 72.826C84.8352 71.9238 85.6159 71.2169 86.5614 70.8256C87.5069 70.4344 88.5588 70.383 89.5379 70.6803C90.5171 70.9776 91.3629 71.6051 91.9313 72.456C92.4996 73.3069 92.7555 74.3285 92.6552 75.3468C92.5549 76.3652 92.1046 77.3172 91.3811 78.0409C90.9702 78.4526 90.482 78.779 89.9445 79.0014C89.407 79.2238 88.8308 79.3378 88.2491 79.3369ZM88.2491 71.6084C87.4846 71.6085 86.7437 71.8737 86.1527 72.3589C85.5618 72.844 85.1573 73.519 85.0083 74.2689C84.8592 75.0189 84.9748 75.7972 85.3353 76.4715C85.6959 77.1457 86.279 77.6741 86.9854 77.9666C87.6918 78.2591 88.4778 78.2976 89.2094 78.0755C89.9411 77.8535 90.5731 77.3847 90.9978 76.7489C91.4225 76.1131 91.6136 75.3497 91.5385 74.5888C91.4635 73.828 91.127 73.1166 90.5863 72.5761C90.2802 72.268 89.916 72.0239 89.5148 71.8578C89.1136 71.6917 88.6834 71.6069 88.2491 71.6084Z" fill="#00A0AF"></path><path d="M91.3821 77.2502L90.5879 78.0444L94.9958 82.4524L95.7901 81.6581L91.3821 77.2502Z" fill="#00A0AF"></path><path d="M95.8652 83.376C95.6422 83.374 95.4285 83.2857 95.269 83.1298L91.9038 79.7645C91.8197 79.6878 91.752 79.595 91.7048 79.4914C91.6576 79.3879 91.6319 79.2759 91.6291 79.1622C91.6264 79.0484 91.6468 78.9353 91.6889 78.8297C91.7311 78.724 91.7943 78.628 91.8746 78.5474C91.9549 78.4668 92.0507 78.4033 92.1562 78.3607C92.2617 78.3182 92.3747 78.2974 92.4885 78.2997C92.6022 78.3021 92.7143 78.3274 92.818 78.3742C92.9217 78.421 93.0148 78.4884 93.0918 78.5722L96.4614 81.9418C96.5779 82.0598 96.657 82.2096 96.6887 82.3724C96.7205 82.5352 96.7034 82.7038 96.6398 82.8569C96.5761 83.0101 96.4686 83.1411 96.3309 83.2334C96.1931 83.3257 96.0311 83.3754 95.8652 83.376Z" fill="#00A0AF"></path><path d="M88.8496 73.1636C88.8496 73.3344 88.7989 73.5015 88.704 73.6436C88.609 73.7857 88.4741 73.8964 88.3162 73.9618C88.1583 74.0272 87.9846 74.0443 87.817 74.011C87.6494 73.9776 87.4955 73.8953 87.3746 73.7745C87.2538 73.6537 87.1715 73.4997 87.1382 73.3321C87.1048 73.1645 87.122 72.9908 87.1873 72.8329C87.2527 72.675 87.3635 72.5401 87.5056 72.4452C87.6476 72.3502 87.8147 72.2996 87.9856 72.2996C88.2147 72.2996 88.4345 72.3906 88.5965 72.5526C88.7586 72.7147 88.8496 72.9344 88.8496 73.1636Z" fill="white"></path><path d="M90.1326 73.7943C90.1326 73.8797 90.1072 73.9633 90.0597 74.0343C90.0123 74.1053 89.9448 74.1607 89.8659 74.1934C89.7869 74.2261 89.7001 74.2347 89.6163 74.218C89.5325 74.2013 89.4555 74.1602 89.3951 74.0998C89.3347 74.0394 89.2935 73.9624 89.2769 73.8786C89.2602 73.7948 89.2687 73.7079 89.3014 73.629C89.3341 73.55 89.3895 73.4826 89.4605 73.4351C89.5316 73.3876 89.6151 73.3623 89.7006 73.3623C89.8151 73.3623 89.925 73.4078 90.006 73.4888C90.087 73.5698 90.1326 73.6797 90.1326 73.7943Z" fill="white"></path><path d="M124.753 146.647H60.4111V157.002H124.753V146.647Z" fill="#00A0AF"></path><path opacity="0.8" d="M124.753 146.647H60.4111V157.002H124.753V146.647Z" fill="white"></path><path opacity="0.2" d="M124.753 149.386V148.543L80.7021 148.893L124.753 149.386Z" fill="black"></path><path opacity="0.2" d="M124.753 153.014V152.362L104.976 153.071L124.753 153.014Z" fill="black"></path><path opacity="0.2" d="M124.753 155.442V154.6L92.8672 155.088L124.753 155.442Z" fill="black"></path><path opacity="0.2" d="M74.7966 146.647L73.8721 154.367L74.9737 153.192C75.3439 154.601 76.0359 155.905 76.9954 157.002C77.6836 156.1 78.2313 155.1 78.6198 154.034L108.67 153.688L78.9049 153.036C78.9973 152.61 79.0451 152.176 79.0474 151.74C79.0459 151.379 79.0112 151.019 78.9438 150.664L123.034 150.552L78.8401 150.206C78.6846 149.625 78.4673 149.061 78.1921 148.526C78.8277 147.965 79.6471 147.658 80.4946 147.662H124.753V146.647H74.7966Z" fill="black"></path><path d="M75.7905 151.766C75.7939 153.007 76.2891 154.196 77.1677 155.073C78.0462 155.95 79.2364 156.443 80.4777 156.444H125.496C125.542 156.444 125.587 156.453 125.629 156.471C125.671 156.488 125.709 156.513 125.741 156.546C125.773 156.578 125.798 156.616 125.816 156.658C125.833 156.7 125.842 156.745 125.842 156.79V157.161C125.842 157.253 125.806 157.341 125.741 157.406C125.676 157.471 125.588 157.507 125.496 157.507H58.9943C58.2358 157.507 57.4848 157.357 56.7846 157.065C56.0844 156.774 55.4488 156.346 54.9147 155.807C54.3805 155.269 53.9583 154.63 53.6724 153.927C53.3864 153.225 53.2425 152.472 53.2487 151.714C53.2861 150.181 53.925 148.724 55.0275 147.658C56.13 146.592 57.6076 146.002 59.1412 146.016H125.496C125.588 146.016 125.676 146.052 125.741 146.117C125.806 146.182 125.842 146.27 125.842 146.361V146.729C125.842 146.82 125.806 146.908 125.741 146.973C125.676 147.038 125.588 147.074 125.496 147.074H80.6159C79.3584 147.072 78.1496 147.561 77.2479 148.437C76.3463 149.314 75.8232 150.509 75.7905 151.766Z" fill="#00A0AF"></path><path opacity="0.4" d="M75.7905 151.766C75.7939 153.007 76.2891 154.196 77.1677 155.073C78.0462 155.95 79.2364 156.443 80.4777 156.444H125.496C125.542 156.444 125.587 156.453 125.629 156.471C125.671 156.488 125.709 156.513 125.741 156.546C125.773 156.578 125.798 156.616 125.816 156.658C125.833 156.7 125.842 156.745 125.842 156.79V157.161C125.842 157.253 125.806 157.341 125.741 157.406C125.676 157.471 125.588 157.507 125.496 157.507H58.9943C58.2358 157.507 57.4848 157.357 56.7846 157.065C56.0844 156.774 55.4488 156.346 54.9147 155.807C54.3805 155.269 53.9583 154.63 53.6724 153.927C53.3864 153.225 53.2425 152.472 53.2487 151.714C53.2861 150.181 53.925 148.724 55.0275 147.658C56.13 146.592 57.6076 146.002 59.1412 146.016H125.496C125.588 146.016 125.676 146.052 125.741 146.117C125.806 146.182 125.842 146.27 125.842 146.361V146.729C125.842 146.82 125.806 146.908 125.741 146.973C125.676 147.038 125.588 147.074 125.496 147.074H80.6159C79.3584 147.072 78.1496 147.561 77.2479 148.437C76.3463 149.314 75.8232 150.509 75.7905 151.766Z" fill="white"></path><path d="M75.7903 151.766C75.7937 153.007 76.2889 154.197 77.1675 155.073C78.046 155.95 79.2362 156.443 80.4775 156.444H125.496C125.542 156.444 125.587 156.453 125.628 156.471C125.67 156.488 125.709 156.514 125.741 156.546C125.773 156.578 125.798 156.616 125.816 156.658C125.833 156.7 125.842 156.745 125.842 156.79V157.162C125.842 157.253 125.805 157.341 125.741 157.406C125.676 157.471 125.588 157.507 125.496 157.507H80.2183C79.4597 157.507 78.7088 157.356 78.0086 157.064C77.3084 156.772 76.6728 156.345 76.1384 155.807C75.6041 155.268 75.1814 154.629 74.8948 153.927C74.6082 153.225 74.4633 152.473 74.4684 151.714C74.508 150.183 75.1464 148.729 76.2465 147.663C77.3467 146.598 78.8208 146.006 80.3522 146.016H125.496C125.588 146.016 125.676 146.052 125.741 146.117C125.805 146.182 125.842 146.27 125.842 146.362V146.729C125.842 146.82 125.805 146.908 125.741 146.973C125.676 147.038 125.588 147.074 125.496 147.074H80.6158C79.3582 147.072 78.1494 147.561 77.2478 148.438C76.3461 149.314 75.823 150.509 75.7903 151.766Z" fill="#00A0AF"></path><path d="M84.2661 148.975V153.127L85.7695 151.623L87.2253 153.079V148.975H84.2661Z" fill="#263238"></path><path opacity="0.6" d="M75.7903 151.766C75.7937 153.007 76.2889 154.197 77.1675 155.073C78.046 155.95 79.2362 156.443 80.4775 156.444H125.496C125.542 156.444 125.587 156.453 125.628 156.471C125.67 156.488 125.709 156.514 125.741 156.546C125.773 156.578 125.798 156.616 125.816 156.658C125.833 156.7 125.842 156.745 125.842 156.79V157.162C125.842 157.253 125.805 157.341 125.741 157.406C125.676 157.471 125.588 157.507 125.496 157.507H80.2183C79.4597 157.507 78.7088 157.356 78.0086 157.064C77.3084 156.772 76.6728 156.345 76.1384 155.807C75.6041 155.268 75.1814 154.629 74.8948 153.927C74.6082 153.225 74.4633 152.473 74.4684 151.714C74.508 150.183 75.1464 148.729 76.2465 147.663C77.3467 146.598 78.8208 146.006 80.3522 146.016H125.496C125.588 146.016 125.676 146.052 125.741 146.117C125.805 146.182 125.842 146.27 125.842 146.362V146.729C125.842 146.82 125.805 146.908 125.741 146.973C125.676 147.038 125.588 147.074 125.496 147.074H80.6158C79.3582 147.072 78.1494 147.561 77.2478 148.438C76.3461 149.314 75.823 150.509 75.7903 151.766Z" fill="white"></path><path d="M127.859 169.465H63.5171V179.82H127.859V169.465Z" fill="#00A0AF"></path><path opacity="0.7" d="M127.859 169.465H63.5171V179.82H127.859V169.465Z" fill="white"></path><path opacity="0.2" d="M127.859 172.2V171.357L83.8081 171.711L127.859 172.2Z" fill="black"></path><path opacity="0.2" d="M127.859 175.828V175.18L108.082 175.884L127.859 175.828Z" fill="black"></path><path opacity="0.2" d="M127.859 178.256V177.418L95.9731 177.902L127.859 178.256Z" fill="black"></path><path opacity="0.2" d="M77.9028 169.465L76.9697 177.185L78.0713 176.01C78.4456 177.418 79.1388 178.722 80.0974 179.82C80.7825 178.915 81.3286 177.914 81.7174 176.848L111.767 176.502L82.0025 175.854C82.0959 175.428 82.1451 174.994 82.1494 174.558C82.1464 174.197 82.1103 173.837 82.0414 173.482L126.144 173.383L81.9464 173.037C81.7908 172.457 81.5736 171.895 81.2984 171.361C81.9308 170.793 82.7506 170.478 83.6009 170.476H127.872V169.465H77.9028Z" fill="black"></path><path d="M78.8964 174.58C78.8941 175.197 79.0137 175.808 79.2483 176.378C79.4828 176.949 79.8278 177.467 80.2633 177.904C80.6989 178.341 81.2164 178.687 81.7862 178.923C82.3559 179.159 82.9668 179.281 83.5836 179.28H128.602C128.694 179.28 128.782 179.316 128.847 179.381C128.911 179.446 128.948 179.534 128.948 179.626V179.997C128.948 180.089 128.911 180.177 128.847 180.241C128.782 180.306 128.694 180.343 128.602 180.343H58.5621C57.8043 180.342 57.0541 180.191 56.3547 179.899C55.6553 179.607 55.0204 179.18 54.4866 178.642C53.9527 178.104 53.5303 177.466 53.2437 176.765C52.9571 176.063 52.812 175.312 52.8165 174.554C52.8528 173.019 53.4917 171.56 54.5951 170.492C55.6985 169.424 57.1778 168.833 58.7133 168.847H128.602C128.694 168.847 128.782 168.884 128.847 168.948C128.911 169.013 128.948 169.101 128.948 169.193V169.564C128.948 169.656 128.911 169.744 128.847 169.809C128.782 169.873 128.694 169.91 128.602 169.91H83.7218C82.4679 169.907 81.2622 170.393 80.3612 171.265C79.4601 172.137 78.9346 173.326 78.8964 174.58Z" fill="#263238"></path><path opacity="0.2" d="M78.8964 174.58C78.8941 175.197 79.0137 175.808 79.2483 176.378C79.4828 176.949 79.8278 177.467 80.2633 177.904C80.6989 178.341 81.2164 178.687 81.7862 178.923C82.3559 179.159 82.9668 179.281 83.5836 179.28H128.602C128.694 179.28 128.782 179.316 128.847 179.381C128.911 179.446 128.948 179.534 128.948 179.626V179.997C128.948 180.089 128.911 180.177 128.847 180.241C128.782 180.306 128.694 180.343 128.602 180.343H58.5621C57.8043 180.342 57.0541 180.191 56.3547 179.899C55.6553 179.607 55.0204 179.18 54.4866 178.642C53.9527 178.104 53.5303 177.466 53.2437 176.765C52.9571 176.063 52.812 175.312 52.8165 174.554C52.8528 173.019 53.4917 171.56 54.5951 170.492C55.6985 169.424 57.1778 168.833 58.7133 168.847H128.602C128.694 168.847 128.782 168.884 128.847 168.948C128.911 169.013 128.948 169.101 128.948 169.193V169.564C128.948 169.656 128.911 169.744 128.847 169.809C128.782 169.873 128.694 169.91 128.602 169.91H83.7218C82.4679 169.907 81.2622 170.393 80.3612 171.265C79.4601 172.137 78.9346 173.326 78.8964 174.58Z" fill="white"></path><path d="M78.8964 174.58C78.8941 175.197 79.0137 175.808 79.2483 176.378C79.4829 176.949 79.8278 177.467 80.2634 177.904C80.6989 178.341 81.2164 178.687 81.7862 178.923C82.356 179.159 82.9668 179.281 83.5836 179.28H128.602C128.694 179.28 128.782 179.316 128.847 179.381C128.911 179.446 128.948 179.534 128.948 179.626V179.997C128.948 180.089 128.911 180.177 128.847 180.241C128.782 180.306 128.694 180.343 128.602 180.343H83.3244C82.5662 180.343 81.8155 180.193 81.1156 179.901C80.4157 179.61 79.7804 179.183 79.2463 178.645C78.7122 178.106 78.2899 177.468 78.0037 176.766C77.7175 176.064 77.5731 175.312 77.5788 174.554C77.6139 173.019 78.2519 171.56 79.3546 170.492C80.4573 169.424 81.9362 168.833 83.4713 168.847H128.602C128.694 168.847 128.782 168.884 128.847 168.948C128.911 169.013 128.948 169.101 128.948 169.193V169.564C128.948 169.656 128.911 169.744 128.847 169.809C128.782 169.873 128.694 169.91 128.602 169.91H83.7218C82.4679 169.907 81.2623 170.393 80.3612 171.265C79.4601 172.137 78.9346 173.326 78.8964 174.58Z" fill="#263238"></path><path d="M83.8081 173.267V177.418L85.3071 175.915L86.763 177.371V173.267H83.8081Z" fill="#00A0AF"></path><path opacity="0.4" d="M78.8964 174.58C78.8941 175.197 79.0137 175.808 79.2483 176.378C79.4829 176.949 79.8278 177.467 80.2634 177.904C80.6989 178.341 81.2164 178.687 81.7862 178.923C82.356 179.159 82.9668 179.281 83.5836 179.28H128.602C128.694 179.28 128.782 179.316 128.847 179.381C128.911 179.446 128.948 179.534 128.948 179.626V179.997C128.948 180.089 128.911 180.177 128.847 180.241C128.782 180.306 128.694 180.343 128.602 180.343H83.3244C82.5662 180.343 81.8155 180.193 81.1156 179.901C80.4157 179.61 79.7804 179.183 79.2463 178.645C78.7122 178.106 78.2899 177.468 78.0037 176.766C77.7175 176.064 77.5731 175.312 77.5788 174.554C77.6139 173.019 78.2519 171.56 79.3546 170.492C80.4573 169.424 81.9362 168.833 83.4713 168.847H128.602C128.694 168.847 128.782 168.884 128.847 168.948C128.911 169.013 128.948 169.101 128.948 169.193V169.564C128.948 169.656 128.911 169.744 128.847 169.809C128.782 169.873 128.694 169.91 128.602 169.91H83.7218C82.4679 169.907 81.2623 170.393 80.3612 171.265C79.4601 172.137 78.9346 173.326 78.8964 174.58Z" fill="white"></path><path d="M57.7282 168.394H81.5659V158.051H57.7282V168.394Z" fill="#00A0AF"></path><path opacity="0.8" d="M57.7282 168.394H81.5659V158.051H57.7282V168.394Z" fill="white"></path><path opacity="0.2" d="M79.6568 159.067H57.7285V158.056H79.6309L79.6568 159.067Z" fill="black"></path><path opacity="0.2" d="M79.6568 159.948L59.8755 160.371L79.6568 160.79V159.948Z" fill="black"></path><path opacity="0.2" d="M79.6567 163.771L58.709 164.125L79.6567 164.424V163.771Z" fill="black"></path><path opacity="0.2" d="M79.6565 166.009L58.8945 166.428L79.6565 166.847V166.009Z" fill="black"></path><path opacity="0.2" d="M57.7285 161.421L77.8122 162.026L57.7285 162.449V161.421Z" fill="black"></path><path d="M110.934 163.171C110.931 164.413 110.437 165.603 109.558 166.481C108.679 167.359 107.488 167.852 106.246 167.854H56.6269C56.5352 167.854 56.4473 167.89 56.3825 167.955C56.3177 168.02 56.2812 168.108 56.2812 168.199V168.566C56.2813 168.658 56.3177 168.746 56.3825 168.811C56.4473 168.876 56.5352 168.912 56.6269 168.912H106.506C107.264 168.913 108.015 168.764 108.716 168.473C109.416 168.182 110.052 167.755 110.586 167.216C111.121 166.678 111.543 166.039 111.829 165.337C112.114 164.634 112.258 163.882 112.251 163.123C112.216 161.588 111.578 160.129 110.475 159.061C109.373 157.993 107.894 157.402 106.359 157.417H56.6269C56.5352 157.417 56.4473 157.453 56.3825 157.518C56.3177 157.583 56.2812 157.67 56.2812 157.762V158.134C56.2813 158.225 56.3177 158.313 56.3825 158.378C56.4473 158.443 56.5352 158.479 56.6269 158.479H106.108C107.366 158.477 108.574 158.966 109.476 159.842C110.378 160.719 110.901 161.914 110.934 163.171Z" fill="#263238"></path><path opacity="0.4" d="M110.934 163.171C110.931 164.413 110.437 165.603 109.558 166.481C108.679 167.359 107.488 167.852 106.246 167.854H56.6269C56.5352 167.854 56.4473 167.89 56.3825 167.955C56.3177 168.02 56.2812 168.108 56.2812 168.199V168.566C56.2813 168.658 56.3177 168.746 56.3825 168.811C56.4473 168.876 56.5352 168.912 56.6269 168.912H106.506C107.264 168.913 108.015 168.764 108.716 168.473C109.416 168.182 110.052 167.755 110.586 167.216C111.121 166.678 111.543 166.039 111.829 165.337C112.114 164.634 112.258 163.882 112.251 163.123C112.216 161.588 111.578 160.129 110.475 159.061C109.373 157.993 107.894 157.402 106.359 157.417H56.6269C56.5352 157.417 56.4473 157.453 56.3825 157.518C56.3177 157.583 56.2812 157.67 56.2812 157.762V158.134C56.2813 158.225 56.3177 158.313 56.3825 158.378C56.4473 158.443 56.5352 158.479 56.6269 158.479H106.108C107.366 158.477 108.574 158.966 109.476 159.842C110.378 160.719 110.901 161.914 110.934 163.171Z" fill="white"></path><path d="M129.03 163.231C129.03 164.606 128.484 165.925 127.512 166.897C126.539 167.869 125.221 168.415 123.846 168.415H79.6567V158.047H123.85C125.224 158.048 126.542 158.595 127.513 159.567C128.484 160.539 129.03 161.857 129.03 163.231Z" fill="#00A0AF"></path><path opacity="0.7" d="M79.6567 158.056V168.424H123.855C125.23 168.424 126.548 167.877 127.52 166.905C128.492 165.933 129.039 164.615 129.039 163.24C129.039 161.865 128.492 160.546 127.52 159.574C126.548 158.602 125.23 158.056 123.855 158.056H79.6567Z" fill="white"></path><path opacity="0.2" d="M79.6567 160.79V159.948L123.708 160.302L79.6567 160.79Z" fill="black"></path><path opacity="0.2" d="M79.6567 164.424V163.771L99.4337 164.48L79.6567 164.424Z" fill="black"></path><path opacity="0.2" d="M79.6567 166.847V166.009L111.543 166.493L79.6567 166.847Z" fill="black"></path><path opacity="0.2" d="M123.924 159.067C124.774 159.068 125.594 159.384 126.226 159.952C125.951 160.488 125.732 161.051 125.574 161.633L81.3804 161.978L125.475 162.086C125.406 162.442 125.37 162.804 125.367 163.166C125.367 163.603 125.418 164.037 125.518 164.462L95.7487 165.11L125.794 165.46C126.055 166.177 126.389 166.865 126.792 167.512C127.697 166.883 128.377 165.982 128.735 164.94C129.092 163.898 129.109 162.769 128.781 161.716C128.454 160.664 127.8 159.744 126.914 159.089C126.028 158.434 124.956 158.078 123.855 158.073H79.6567V159.084L123.924 159.067Z" fill="black"></path><path d="M128.619 163.171C128.617 164.413 128.122 165.603 127.244 166.481C126.365 167.359 125.174 167.852 123.932 167.854H78.9135C78.8218 167.854 78.7339 167.89 78.6691 167.955C78.6043 168.02 78.5679 168.108 78.5679 168.199V168.566C78.5679 168.658 78.6043 168.746 78.6691 168.811C78.7339 168.876 78.8218 168.912 78.9135 168.912H124.191C124.95 168.913 125.701 168.764 126.402 168.473C127.102 168.182 127.738 167.755 128.272 167.216C128.806 166.678 129.229 166.039 129.514 165.337C129.8 164.634 129.944 163.882 129.937 163.123C129.902 161.588 129.264 160.129 128.161 159.061C127.058 157.993 125.58 157.402 124.045 157.417H78.9135C78.8218 157.417 78.7339 157.453 78.6691 157.518C78.6043 157.583 78.5679 157.67 78.5679 157.762V158.134C78.5679 158.225 78.6043 158.313 78.6691 158.378C78.7339 158.443 78.8218 158.479 78.9135 158.479H123.794C125.052 158.477 126.26 158.966 127.162 159.842C128.064 160.719 128.587 161.914 128.619 163.171Z" fill="#263238"></path><path d="M123.708 161.857V166.009L122.204 164.506L120.749 165.961V161.857H123.708Z" fill="#00A0AF"></path><path d="M135.384 103.503H134.304C134.104 103.507 133.907 103.559 133.73 103.654C133.554 103.75 133.403 103.886 133.289 104.051L132.218 105.615C132.005 105.924 131.87 106.28 131.823 106.652C131.777 107.024 131.82 107.402 131.95 107.754L132.114 108.186C133.907 108.272 135.911 107.045 135.911 107.045L136.525 106.76C136.652 106.705 136.766 106.625 136.862 106.525C136.957 106.425 137.032 106.307 137.082 106.178C137.132 106.049 137.156 105.912 137.152 105.774C137.148 105.635 137.117 105.499 137.061 105.373L136.512 104.185C136.41 103.975 136.249 103.799 136.049 103.678C135.849 103.557 135.618 103.496 135.384 103.503Z" fill="#EEC1BB"></path><path d="M114.912 105.408C117.685 107.65 120.679 109.81 123.984 111.132L123.574 111.046C123.876 111.119 124.671 110.817 125.086 110.614C127.392 109.49 129.578 107.806 131.652 106.268C131.864 106.114 132.124 106.041 132.386 106.063C132.647 106.084 132.891 106.199 133.076 106.385C133.26 106.571 133.371 106.817 133.39 107.079C133.409 107.34 133.333 107.599 133.177 107.81C131.108 110.402 126.451 115.668 122.761 114.899C118.718 113.694 115.145 111.443 111.961 108.691C109.896 106.704 112.666 103.598 114.912 105.408Z" fill="#EBC0BB"></path><path d="M109.093 102.354C108.082 105.17 109.711 107.97 113.629 111.266C115.577 110.976 118.208 106.98 118.208 106.98C118.208 106.98 112.696 101.468 109.093 102.354Z" fill="#00A0AF"></path><path d="M112.463 84.8577C112.463 84.8577 108.605 80.9092 103.576 85.8643C98.548 90.8193 97.5674 107.235 97.5674 107.235L110.692 109.784C110.692 109.784 112.389 107.836 113.262 102.215C114.135 96.5951 114.597 91.2211 115.703 89.9683C116.809 88.7155 112.463 84.8577 112.463 84.8577Z" fill="#263238"></path><path d="M123.734 167.992L120.891 166.86L122.001 162.717L123.025 158.916L126.619 159.71L125.094 164.095L123.734 167.992Z" fill="#EEC1BB"></path><path opacity="0.2" d="M125.06 164.186L121.971 162.795L123.012 158.954L126.611 159.732L125.06 164.186Z" fill="black"></path><path d="M102.224 130.663C102.224 130.663 125.984 127.457 132.585 131.673C139.186 135.89 126.403 161.568 126.403 161.568L122.403 160.704C122.403 160.704 125.401 140.348 125.177 139.497C124.952 138.646 113.763 144.197 98.4487 144.724L102.224 130.663Z" fill="#263238"></path><path opacity="0.2" d="M102.224 130.663C102.224 130.663 125.984 127.457 132.585 131.673C139.186 135.89 126.403 161.568 126.403 161.568L122.403 160.704C122.403 160.704 125.401 140.348 125.177 139.497C124.952 138.646 113.763 144.197 98.4487 144.724L102.224 130.663Z" fill="black"></path><path d="M122.183 159.408L127.216 161.041L126.313 163.335L121.69 161.762L122.183 159.408Z" fill="#263238"></path><path d="M126.364 168.631C125.82 168.631 124.861 167.767 124.662 167.56C124.651 167.549 124.642 167.536 124.636 167.521V167.495C124.635 167.468 124.643 167.44 124.658 167.417C124.684 167.387 125.315 166.553 125.919 166.527C126.011 166.518 126.103 166.529 126.19 166.56C126.276 166.59 126.355 166.64 126.42 166.705C126.572 166.847 126.624 166.985 126.572 167.115C126.49 167.322 126.14 167.435 125.747 167.504C126.065 167.549 126.364 167.682 126.611 167.888C126.654 167.932 126.687 167.984 126.709 168.041C126.731 168.098 126.74 168.16 126.736 168.221C126.736 168.471 126.602 168.571 126.507 168.605C126.461 168.623 126.413 168.632 126.364 168.631ZM125.025 167.607C125.526 168.039 126.192 168.506 126.429 168.411C126.429 168.411 126.516 168.381 126.524 168.208C126.526 168.175 126.521 168.142 126.509 168.112C126.497 168.081 126.479 168.054 126.455 168.031C126.222 167.772 125.5 167.651 125.025 167.616V167.607ZM125.967 166.743H125.928C125.546 166.844 125.207 167.067 124.965 167.378C125.626 167.348 126.3 167.223 126.369 167.046C126.39 166.99 126.317 166.908 126.269 166.864C126.187 166.789 126.078 166.749 125.967 166.752V166.743Z" fill="#577AFA"></path><path d="M120.36 165.093C120.472 164.773 124.33 166.307 124.33 166.307C124.33 166.307 125.954 169.56 128.132 170.882C130.309 172.204 128.529 173.189 125.898 172.329L119.384 170.208C117.504 169.603 119.198 168.394 120.36 165.093Z" fill="#2E353A"></path><path opacity="0.4" d="M122.183 159.408L127.216 161.041L126.313 163.335L121.69 161.762L122.183 159.408Z" fill="white"></path><path d="M136.132 176.213L133.186 177.042L131.544 173.076L130.049 169.439L133.384 167.884L134.84 172.295L136.132 176.213Z" fill="#EEC1BB"></path><path d="M131.877 174.96C131.877 174.623 136.032 174.99 136.032 174.99C136.032 174.99 138.516 177.647 140.979 178.291C143.441 178.934 142.02 180.386 139.251 180.321L132.404 180.148C130.438 180.101 131.708 178.455 131.877 174.96Z" fill="#2E353A"></path><path d="M138.214 176.1C137.609 176.018 137.023 175.826 136.486 175.534L136.456 175.513C136.455 175.501 136.455 175.49 136.456 175.478C136.454 175.468 136.454 175.458 136.456 175.448C136.451 175.434 136.451 175.419 136.456 175.405C136.456 175.357 136.841 174.407 137.407 174.187C137.492 174.152 137.584 174.136 137.676 174.142C137.768 174.147 137.857 174.173 137.938 174.217C138.124 174.308 138.21 174.424 138.201 174.567C138.18 174.787 137.869 174.999 137.523 175.172C137.844 175.124 138.172 175.167 138.469 175.297C138.522 175.326 138.568 175.366 138.605 175.415C138.641 175.463 138.667 175.519 138.681 175.578C138.709 175.652 138.713 175.733 138.694 175.81C138.675 175.888 138.632 175.957 138.573 176.01C138.468 176.082 138.341 176.114 138.214 176.1ZM136.845 175.478C137.454 175.751 138.219 176.005 138.422 175.846C138.422 175.846 138.495 175.789 138.456 175.625C138.449 175.593 138.435 175.563 138.415 175.537C138.395 175.51 138.369 175.489 138.34 175.474C138.037 175.293 137.311 175.392 136.845 175.478ZM137.623 174.351C137.568 174.351 137.514 174.361 137.463 174.381C137.129 174.583 136.869 174.885 136.72 175.245C137.346 175.029 137.955 174.714 137.972 174.528C137.972 174.467 137.882 174.407 137.826 174.381C137.761 174.356 137.692 174.345 137.623 174.351Z" fill="#577AFA"></path><path opacity="0.2" d="M134.866 172.385L131.57 173.158L130.058 169.478L133.389 167.905L134.866 172.385Z" fill="black"></path><path d="M108.964 133.734C108.964 133.734 108.622 129.034 108.463 128.075C108.33 127.124 108.136 126.183 107.879 125.258C106.838 122.126 92.8717 125.811 92.8717 125.811L92.4742 127.971C92.4742 127.971 86.1713 139.856 90.3833 144.137C91.6793 145.433 94.172 146.02 96.7337 146.003C96.7337 146.003 104.566 146.379 119.133 145.701C119.133 145.701 118.053 154.185 130.058 170.808L134.076 169.512C134.076 169.512 126.144 139.333 125.47 138.797C119.664 134.106 108.964 133.734 108.964 133.734Z" fill="#263238"></path><path d="M129.333 170.605L134.322 168.838L135 171.21L130.374 172.774L129.333 170.605Z" fill="#263238"></path><path d="M113.659 104.604C113.659 104.604 113.158 105.831 112.458 107.974C112.29 108.475 112.117 109.028 111.935 109.624C111.698 110.406 111.443 111.266 111.188 112.216C111.002 112.89 110.817 113.594 110.635 114.337C110.454 115.08 110.259 115.884 110.074 116.7C110.074 116.795 110.03 116.895 110.013 116.99C109.223 120.332 108.646 123.722 108.285 127.138L92.9405 125.798C92.9382 122.431 93.1127 119.065 93.4632 115.715C93.7398 112.813 94.2762 109.942 95.0659 107.136C95.675 105.114 96.4613 103.378 97.4721 102.241C97.4721 102.259 105.792 99.5284 113.659 104.604Z" fill="#00A0AF"></path><path d="M105.84 100.055C101.222 98.578 99.4292 102.215 99.4292 102.215L101.887 101.974L106.877 108.238L109.802 104.449L111.642 105.438C111.642 105.438 109.84 101.334 105.84 100.055Z" fill="#00A0AF"></path><path opacity="0.6" d="M105.84 100.055C101.222 98.578 99.4292 102.215 99.4292 102.215L101.887 101.974L106.877 108.238L109.802 104.449L111.642 105.438C111.642 105.438 109.84 101.334 105.84 100.055Z" fill="white"></path><path d="M106.747 107.896L102.514 101.559C104.51 100.656 105.831 96.8372 106.121 94.6858L109.11 99.2045C108.134 100.656 107.482 102.315 109.719 103.568C109.728 103.568 106.743 107.883 106.747 107.896Z" fill="#EEC1BB"></path><path opacity="0.2" d="M107.339 96.5303L109.111 99.2044C108.878 99.5362 108.677 99.8891 108.51 100.258C107.624 99.861 106.683 98.5304 106.903 97.6103C106.978 97.2257 107.126 96.8591 107.339 96.5303Z" fill="black"></path><path d="M92.7033 126.287L97.5028 126.602L97.33 127.958L92.2324 127.591L92.7033 126.287Z" fill="black"></path><path d="M108.67 128.766L97.9087 127.997L98.0815 126.641L108.497 127.328L108.67 128.766Z" fill="black"></path><path d="M104.726 128.762H104.683L103.387 128.675C103.232 128.665 103.087 128.595 102.984 128.48C102.88 128.364 102.827 128.213 102.834 128.058L102.868 127.194C102.868 127.112 102.885 127.031 102.918 126.957C102.952 126.882 103.001 126.816 103.063 126.762C103.12 126.707 103.188 126.665 103.262 126.638C103.337 126.611 103.416 126.601 103.495 126.606L104.842 126.684C104.921 126.688 104.998 126.708 105.069 126.743C105.139 126.777 105.202 126.825 105.254 126.885C105.306 126.944 105.346 127.013 105.371 127.087C105.396 127.162 105.406 127.241 105.4 127.319L105.335 128.218C105.321 128.368 105.25 128.508 105.137 128.609C105.024 128.71 104.877 128.765 104.726 128.762ZM103.283 127.189L103.244 128.053C103.243 128.096 103.258 128.137 103.286 128.168C103.314 128.199 103.353 128.219 103.395 128.222L104.691 128.313C104.734 128.315 104.776 128.301 104.808 128.272C104.841 128.244 104.861 128.204 104.864 128.161L104.929 127.267C104.931 127.245 104.929 127.223 104.922 127.203C104.915 127.182 104.904 127.163 104.89 127.146C104.876 127.131 104.858 127.118 104.839 127.109C104.82 127.1 104.799 127.095 104.778 127.094L103.43 127.017C103.387 127.015 103.345 127.031 103.313 127.06C103.297 127.074 103.284 127.091 103.275 127.11C103.266 127.13 103.261 127.151 103.261 127.172L103.283 127.189Z" fill="white"></path><path opacity="0.5" d="M129.333 170.605L134.322 168.838L135 171.21L130.374 172.774L129.333 170.605Z" fill="white"></path><path d="M116.61 93.5237C116.588 93.5244 116.565 93.5186 116.546 93.5071C116.527 93.4956 116.512 93.4789 116.502 93.4589C116.382 93.2259 116.211 93.0231 116.002 92.866C115.792 92.7088 115.549 92.6013 115.292 92.5517C115.276 92.5512 115.26 92.5474 115.246 92.5404C115.231 92.5335 115.218 92.5237 115.208 92.5115C115.197 92.4993 115.189 92.4851 115.184 92.4697C115.18 92.4543 115.178 92.4381 115.18 92.4221C115.184 92.3912 115.2 92.363 115.224 92.343C115.248 92.323 115.278 92.3127 115.31 92.3141C115.608 92.3652 115.891 92.4856 116.135 92.6657C116.379 92.8457 116.577 93.0804 116.714 93.3509C116.721 93.3647 116.725 93.3799 116.727 93.3955C116.728 93.4112 116.726 93.4269 116.722 93.4418C116.717 93.4568 116.709 93.4705 116.699 93.4824C116.688 93.4942 116.676 93.5039 116.662 93.5107L116.61 93.5237Z" fill="#263238"></path><path d="M115.167 95.3943C115.214 95.9939 115.333 96.5856 115.521 97.1568C115.368 97.2504 115.193 97.2999 115.013 97.2999C114.834 97.2999 114.659 97.2504 114.506 97.1568L115.167 95.3943Z" fill="#D4827D"></path><path d="M116.122 94.7506C116.009 95.0184 115.776 95.1826 115.595 95.1048C115.413 95.0271 115.357 94.7506 115.469 94.4827C115.582 94.2149 115.815 94.0507 115.997 94.1285C116.178 94.2063 116.23 94.4784 116.122 94.7506Z" fill="#263238"></path><path d="M115.915 94.1111H116.593C116.593 94.1111 116.1 94.4956 115.915 94.1111Z" fill="#263238"></path><path d="M106.177 97.0747C106.194 97.119 106.215 97.1611 106.242 97.2C106.285 97.2864 106.333 97.3641 106.38 97.4505C106.658 97.9824 107.035 98.4561 107.49 98.8459C108.964 100.068 110.234 100.457 111.378 100.142C111.435 100.142 111.486 100.107 111.543 100.09C113.236 99.4507 114.567 97.498 115.694 94.8628C116.182 93.8426 116.502 92.7498 116.64 91.6272C116.64 91.6272 116.64 91.5883 116.64 91.5797C116.64 91.571 116.64 91.4889 116.64 91.45C116.695 90.8044 116.588 90.1552 116.329 89.5614C116.069 88.9677 115.666 88.4482 115.154 88.0502C114.717 87.6907 114.242 87.3806 113.737 87.1257C108.83 84.5769 103.806 92.3313 106.177 97.0747Z" fill="#EEC1BB"></path><path d="M116.64 91.584C116.64 91.584 115.163 95.1956 111.119 95.04C111.119 95.04 107.888 97.9388 105.784 96.9408C102.911 95.58 102.445 90.2837 105.499 86.6679C109.469 81.9764 117.764 85.6138 116.64 91.584Z" fill="#263238"></path><path d="M113.301 94.8845C113.573 94.3402 113.594 93.2126 112.692 92.9102C111.789 92.6078 110.186 94.5043 112.087 96.0638C112.359 96.2885 112.752 96.0163 113.301 94.8845Z" fill="#EEC1BB"></path><path d="M112.463 84.8577C112.463 84.8577 116.2 85.6872 117.357 87.9422C118.714 90.5774 118.714 92.5948 114.921 93.8174C114.921 93.8174 110.268 89.2123 108.225 88.6636C107.033 88.3363 105.817 88.1094 104.587 87.9854C106.052 84.1147 110.99 83.1729 112.463 84.8577Z" fill="#263238"></path><path d="M111.128 95.04C108.778 99.7359 103.611 107.715 98.103 102.086C98.103 102.086 100.082 95.7183 104.078 93.0917C108.074 90.4652 111.128 95.04 111.128 95.04Z" fill="#263238"></path><path d="M110.277 102.872C112.286 104.358 109.715 109.249 112.251 110.337C112.013 110.008 111.863 109.623 111.816 109.219C111.769 108.815 111.827 108.406 111.983 108.03C112.515 106.7 114.67 103.183 113.811 98.4226L110.277 102.872Z" fill="#263238"></path><path opacity="0.2" d="M99.8697 113.184C99.8697 113.184 96.5865 115.409 93.4805 115.685C93.7532 112.794 94.2838 109.933 95.0659 107.136C95.4633 106.912 95.9066 106.782 96.3619 106.756C98.6688 106.799 99.5112 108.963 99.5112 108.963C99.7609 110.356 99.8809 111.769 99.8697 113.184Z" fill="black"></path><path d="M111.853 128.593L111.162 127.764C111.032 127.612 110.868 127.494 110.683 127.419C110.498 127.344 110.298 127.314 110.099 127.332L108.207 127.47C107.833 127.497 107.471 127.614 107.152 127.81C106.832 128.006 106.565 128.276 106.371 128.598L106.129 128.999C107.183 130.455 109.391 131.254 109.391 131.254L109.996 131.553C110.117 131.618 110.251 131.659 110.388 131.673C110.526 131.687 110.664 131.673 110.797 131.633C110.929 131.593 111.052 131.527 111.158 131.439C111.265 131.351 111.353 131.243 111.417 131.121L112.022 129.928C112.13 129.714 112.172 129.473 112.142 129.235C112.112 128.997 112.012 128.774 111.853 128.593Z" fill="#EEC1BB"></path><path d="M98.5525 108.734C98.4998 111.455 98.695 114.175 99.1357 116.86C99.2976 117.719 99.5067 118.569 99.7621 119.405L99.572 119.029C100.57 120.554 102.03 121.967 103.305 123.349L105.439 125.552L107.599 127.768C107.789 127.96 107.901 128.215 107.915 128.485C107.928 128.755 107.841 129.02 107.67 129.229C107.499 129.438 107.257 129.577 106.99 129.618C106.724 129.66 106.451 129.601 106.225 129.453C105.331 128.887 104.497 128.291 103.633 127.686C100.998 125.703 98.3408 123.85 96.2888 121.206C94.5004 117.245 94.064 112.843 94.2152 108.54C94.4701 105.667 98.6346 105.879 98.6 108.76L98.5525 108.734Z" fill="#EBC0BB"></path><path d="M97.3253 102.285C94.4957 103.257 93.325 106.281 93.1997 111.396C94.6469 112.739 99.4075 112.294 99.4075 112.294C99.4075 112.294 100.267 104.544 97.3253 102.285Z" fill="#00A0AF"></path><path d="M127.816 132.568V133.92C127.816 134.27 127.384 134.413 127.056 134.413H99.7923C99.4424 134.413 99.019 134.27 99.019 133.92V132.555L127.816 132.568Z" fill="#263238"></path><path opacity="0.4" d="M127.816 132.568V133.92C127.816 134.27 127.384 134.413 127.056 134.413H99.7923C99.4424 134.413 99.019 134.27 99.019 133.92V132.555L127.816 132.568Z" fill="white"></path><path opacity="0.2" d="M127.816 132.568V133.92C127.816 134.27 127.384 134.413 127.056 134.413H109.076C108.726 134.413 108.311 134.27 108.311 133.92V132.555L127.816 132.568Z" fill="black"></path><path d="M132.378 118.407L129.129 133.125C129.071 133.362 128.937 133.573 128.746 133.725C128.555 133.877 128.319 133.961 128.075 133.963H110.363C110.253 133.96 110.145 133.931 110.048 133.88C109.95 133.828 109.866 133.755 109.802 133.665C109.738 133.576 109.695 133.473 109.677 133.364C109.659 133.256 109.666 133.144 109.698 133.039L112.942 118.428C113.008 118.206 113.148 118.013 113.339 117.882C113.53 117.75 113.761 117.689 113.992 117.707H131.725C132.192 117.707 132.481 117.936 132.378 118.407Z" fill="#263238"></path><path opacity="0.4" d="M132.378 118.407L129.129 133.125C129.072 133.362 128.937 133.573 128.746 133.725C128.555 133.877 128.319 133.96 128.075 133.963H110.951C110.84 133.96 110.732 133.932 110.634 133.881C110.536 133.83 110.452 133.756 110.387 133.667C110.322 133.577 110.279 133.474 110.26 133.365C110.242 133.256 110.249 133.144 110.281 133.039L113.526 118.428C113.591 118.205 113.732 118.011 113.924 117.88C114.116 117.749 114.348 117.687 114.58 117.707H131.708C132.192 117.707 132.482 117.936 132.378 118.407Z" fill="white"></path><path opacity="0.2" d="M123.634 125.889C123.634 127.146 122.282 128.17 121.293 128.17C120.304 128.17 119.716 127.146 119.997 125.889C120.278 124.632 121.267 123.643 122.235 123.608C121.954 124.865 122.559 125.889 123.531 125.889H123.634Z" fill="black"></path></svg>